<svg width="22" height="19" viewBox="0 0 22 19" fill="none" xmlns="http://www.w3.org/2000/svg">
<path d="M7.59293 5.36163C8.91278 5.36163 9.98273 4.29168 9.98273 2.97183C9.98273 1.65198 8.91278 0.582031 7.59293 0.582031C6.27308 0.582031 5.20312 1.65198 5.20312 2.97183C5.20312 4.29168 6.27308 5.36163 7.59293 5.36163Z" fill="#EB0044"/>
<path d="M14.3468 11.7288C15.6667 11.7288 16.7366 10.6589 16.7366 9.33902C16.7366 8.01917 15.6667 6.94922 14.3468 6.94922C13.027 6.94922 11.957 8.01917 11.957 9.33902C11.957 10.6589 13.027 11.7288 14.3468 11.7288Z" fill="#EB0044"/>
<path d="M8.19058 18.3597C9.51043 18.3597 10.5804 17.2897 10.5804 15.9699C10.5804 14.65 9.51043 13.5801 8.19058 13.5801C6.87073 13.5801 5.80078 14.65 5.80078 15.9699C5.80078 17.2897 6.87073 18.3597 8.19058 18.3597Z" fill="#EB0044"/>
<path d="M0.576319 3.54658H4.68355C4.81614 4.22103 5.17886 4.8285 5.70972 5.26515C6.24057 5.7018 6.90659 5.94052 7.59396 5.94052C8.28132 5.94052 8.94734 5.7018 9.4782 5.26515C10.009 4.8285 10.3718 4.22103 10.5044 3.54658H21.4237C21.5765 3.54658 21.7231 3.48586 21.8312 3.37778C21.9393 3.2697 22 3.12311 22 2.97026C22 2.81741 21.9393 2.67082 21.8312 2.56274C21.7231 2.45466 21.5765 2.39394 21.4237 2.39394H10.5044C10.3718 1.71949 10.009 1.11203 9.4782 0.675376C8.94734 0.238726 8.28132 0 7.59396 0C6.90659 0 6.24057 0.238726 5.70972 0.675376C5.17886 1.11203 4.81614 1.71949 4.68355 2.39394H0.576319C0.423469 2.39394 0.276881 2.45466 0.1688 2.56274C0.0607191 2.67082 0 2.81741 0 2.97026C0 3.12311 0.0607191 3.2697 0.1688 3.37778C0.276881 3.48586 0.423469 3.54658 0.576319 3.54658ZM7.59204 1.15678C7.95071 1.15678 8.30133 1.26314 8.59955 1.46241C8.89778 1.66167 9.13022 1.9449 9.26748 2.27627C9.40473 2.60764 9.44065 2.97227 9.37067 3.32405C9.3007 3.67584 9.12798 3.99897 8.87436 4.25259C8.62074 4.50621 8.29761 4.67892 7.94583 4.7489C7.59405 4.81887 7.22942 4.78296 6.89805 4.6457C6.56668 4.50844 6.28345 4.276 6.08418 3.97778C5.88491 3.67955 5.77855 3.32893 5.77855 2.97026C5.77957 2.48961 5.97096 2.02893 6.31083 1.68906C6.65071 1.34918 7.11138 1.15779 7.59204 1.15678Z" fill="#006DF0"/>
<path d="M21.4237 8.76121H17.255C17.1205 8.08887 16.7572 7.48389 16.2269 7.0492C15.6966 6.61451 15.0322 6.37695 14.3465 6.37695C13.6608 6.37695 12.9963 6.61451 12.4661 7.0492C11.9358 7.48389 11.5725 8.08887 11.438 8.76121H0.576319C0.423469 8.76121 0.276881 8.82193 0.1688 8.93001C0.0607191 9.03809 0 9.18468 0 9.33753C0 9.49038 0.0607191 9.63697 0.1688 9.74505C0.276881 9.85313 0.423469 9.91385 0.576319 9.91385H11.438C11.5725 10.5862 11.9358 11.1912 12.4661 11.6259C12.9963 12.0606 13.6608 12.2981 14.3465 12.2981C15.0322 12.2981 15.6966 12.0606 16.2269 11.6259C16.7572 11.1912 17.1205 10.5862 17.255 9.91385H21.4237C21.5765 9.91385 21.7231 9.85313 21.8312 9.74505C21.9393 9.63697 22 9.49038 22 9.33753C22 9.18468 21.9393 9.03809 21.8312 8.93001C21.7231 8.82193 21.5765 8.76121 21.4237 8.76121ZM14.3465 11.151C13.9878 11.151 13.6372 11.0447 13.339 10.8454C13.0407 10.6461 12.8083 10.3629 12.6711 10.0315C12.5338 9.70015 12.4979 9.33552 12.5679 8.98374C12.6378 8.63195 12.8105 8.30882 13.0642 8.0552C13.3178 7.80158 13.6409 7.62887 13.9927 7.55889C14.3445 7.48892 14.7091 7.52483 15.0405 7.66209C15.3719 7.79935 15.6551 8.03179 15.8543 8.33001C16.0536 8.62824 16.16 8.97886 16.16 9.33753C16.159 9.81818 15.9676 10.2789 15.6277 10.6187C15.2878 10.9586 14.8271 11.15 14.3465 11.151Z" fill="#006DF0"/>
<path d="M21.4237 15.1303H11.0999C10.9654 14.458 10.6021 13.853 10.0718 13.4183C9.54156 12.9836 8.87707 12.7461 8.19141 12.7461C7.50574 12.7461 6.84125 12.9836 6.31098 13.4183C5.78072 13.853 5.41743 14.458 5.28292 15.1303H0.576319C0.423469 15.1303 0.276881 15.1911 0.1688 15.2991C0.0607191 15.4072 0 15.5538 0 15.7067C0 15.8595 0.0607191 16.0061 0.1688 16.1142C0.276881 16.2223 0.423469 16.283 0.576319 16.283H5.28292C5.41743 16.9553 5.78072 17.5603 6.31098 17.995C6.84125 18.4297 7.50574 18.6672 8.19141 18.6672C8.87707 18.6672 9.54156 18.4297 10.0718 17.995C10.6021 17.5603 10.9654 16.9553 11.0999 16.283H21.4237C21.5765 16.283 21.7231 16.2223 21.8312 16.1142C21.9393 16.0061 22 15.8595 22 15.7067C22 15.5538 21.9393 15.4072 21.8312 15.2991C21.7231 15.1911 21.5765 15.1303 21.4237 15.1303ZM8.19141 17.5202C7.83273 17.5202 7.48212 17.4138 7.18389 17.2145C6.88566 17.0153 6.65323 16.732 6.51597 16.4007C6.37871 16.0693 6.3428 15.7047 6.41277 15.3529C6.48274 15.0011 6.65546 14.678 6.90908 14.4243C7.1627 14.1707 7.48583 13.998 7.83761 13.928C8.1894 13.8581 8.55403 13.894 8.8854 14.0312C9.21677 14.1685 9.5 14.4009 9.69926 14.6992C9.89853 14.9974 10.0049 15.348 10.0049 15.7067C10.0049 16.1876 9.81383 16.6489 9.47373 16.989C9.13364 17.3291 8.67237 17.5202 8.19141 17.5202Z" fill="#006DF0"/>
</svg>
