<svg width="22" height="22" viewBox="0 0 22 22" fill="none" xmlns="http://www.w3.org/2000/svg">
<path d="M18.3333 7.33334C17.987 7.33334 17.6966 7.216 17.4619 6.98134C17.2272 6.74667 17.1103 6.45659 17.1111 6.11111V4.88889H15.8889C15.5426 4.88889 15.2521 4.77156 15.0174 4.53689C14.7828 4.30223 14.6658 4.01215 14.6667 3.66667C14.6667 3.32037 14.784 3.02989 15.0187 2.79523C15.2533 2.56056 15.5434 2.44363 15.8889 2.44445H17.1111V1.22223C17.1111 0.87593 17.2284 0.585448 17.4631 0.350782C17.6978 0.116115 17.9878 -0.000810585 18.3333 4.22914e-06C18.6796 4.22914e-06 18.9701 0.117338 19.2048 0.352004C19.4394 0.586671 19.5564 0.876745 19.5556 1.22223V2.44445H20.7778C21.1241 2.44445 21.4146 2.56178 21.6492 2.79645C21.8839 3.03111 22.0008 3.32119 22 3.66667C22 4.01297 21.8827 4.30345 21.648 4.53811C21.4133 4.77278 21.1233 4.88971 20.7778 4.88889H19.5556V6.11111C19.5556 6.45741 19.4382 6.74789 19.2036 6.98256C18.9689 7.21722 18.6788 7.33415 18.3333 7.33334ZM4.88889 17.1111H17.1111C17.3556 17.1111 17.5389 16.9991 17.6611 16.775C17.7833 16.5509 17.763 16.337 17.6 16.1333L14.2389 11.6417C14.1167 11.4787 13.9537 11.3972 13.75 11.3972C13.5463 11.3972 13.3833 11.4787 13.2611 11.6417L10.0833 15.8889L7.82222 12.8639C7.7 12.7009 7.53704 12.6194 7.33333 12.6194C7.12963 12.6194 6.96667 12.7009 6.84445 12.8639L4.4 16.1333C4.23704 16.337 4.21667 16.5509 4.33889 16.775C4.46111 16.9991 4.64445 17.1111 4.88889 17.1111ZM2.44445 22C1.77222 22 1.19656 21.7604 0.717446 21.2813C0.238335 20.8022 -0.000812739 20.227 2.07508e-06 19.5556V2.44445C2.07508e-06 1.77223 0.239558 1.19656 0.718669 0.717448C1.19778 0.238337 1.77304 -0.000810585 2.44445 4.22914e-06H12.2222V6.11111C12.2222 6.45741 12.3396 6.74789 12.5742 6.98256C12.8089 7.21722 13.099 7.33415 13.4444 7.33334H14.6667V8.55556C14.6667 8.90185 14.784 9.19234 15.0187 9.427C15.2533 9.66167 15.5434 9.77859 15.8889 9.77778H22V19.5556C22 20.2278 21.7604 20.8034 21.2813 21.2826C20.8022 21.7617 20.227 22.0008 19.5556 22H2.44445Z" fill="#0C2160"/>
</svg>
