<svg width="20" height="21" viewBox="0 0 20 21" fill="none" xmlns="http://www.w3.org/2000/svg">
<g clip-path="url(#clip0_1812_16051)">
<path d="M10.8984 14.7106C10.8984 15.574 11.5994 16.2765 12.4609 16.2765H14.2969C15.1584 16.2765 15.8594 15.574 15.8594 14.7106V12.8706C15.8594 12.0072 15.1584 11.3047 14.2969 11.3047H12.4609C11.5994 11.3047 10.8984 12.0072 10.8984 12.8706V14.7106ZM12.4609 12.8706H14.2969L14.2979 14.7105C14.2979 14.7105 14.2976 14.7106 14.2969 14.7106H12.4609V12.8706Z" fill="black"/>
<path d="M15.0781 9.46436C15.5096 9.46436 15.8594 9.11382 15.8594 8.6814C15.8594 8.24898 15.5096 7.89844 15.0781 7.89844C14.6467 7.89844 14.2969 8.24898 14.2969 8.6814C14.2969 9.11382 14.6467 9.46436 15.0781 9.46436Z" fill="black"/>
<path d="M11.6797 9.46436C12.1112 9.46436 12.4609 9.11382 12.4609 8.6814C12.4609 8.24898 12.1112 7.89844 11.6797 7.89844C11.2482 7.89844 10.8984 8.24898 10.8984 8.6814C10.8984 9.11382 11.2482 9.46436 11.6797 9.46436Z" fill="black"/>
<path d="M19.2188 14.2411C19.6502 14.2411 20 13.8905 20 13.4581V5.15871C20 3.43181 18.5981 2.02686 16.875 2.02686H15.8594V1.2439C15.8594 0.811469 15.5096 0.460938 15.0781 0.460938C14.6466 0.460938 14.2969 0.811469 14.2969 1.2439V2.02686H10.7422V1.2439C10.7422 0.811469 10.3924 0.460938 9.96094 0.460938C9.52945 0.460938 9.17969 0.811469 9.17969 1.2439V2.02686H5.66406V1.2439C5.66406 0.811469 5.3143 0.460938 4.88281 0.460938C4.45133 0.460938 4.10156 0.811469 4.10156 1.2439V2.02686H3.125C1.40188 2.02686 0 3.43181 0 5.15871V17.3729C0 19.0998 1.40188 20.5048 3.125 20.5048H16.875C18.5981 20.5048 20 19.0998 20 17.3729C20 16.9405 19.6502 16.59 19.2188 16.59C18.7873 16.59 18.4375 16.9405 18.4375 17.3729C18.4375 18.2364 17.7366 18.9388 16.875 18.9388H3.125C2.26344 18.9388 1.5625 18.2364 1.5625 17.3729V5.15871C1.5625 4.29526 2.26344 3.59278 3.125 3.59278H4.10156V4.37575C4.10156 4.80818 4.45133 5.15871 4.88281 5.15871C5.3143 5.15871 5.66406 4.80818 5.66406 4.37575V3.59278H9.17969V4.37575C9.17969 4.80818 9.52945 5.15871 9.96094 5.15871C10.3924 5.15871 10.7422 4.80818 10.7422 4.37575V3.59278H14.2969V4.37575C14.2969 4.80818 14.6466 5.15871 15.0781 5.15871C15.5096 5.15871 15.8594 4.80818 15.8594 4.37575V3.59278H16.875C17.7366 3.59278 18.4375 4.29526 18.4375 5.15871V13.4581C18.4375 13.8905 18.7873 14.2411 19.2188 14.2411Z" fill="black"/>
<path d="M4.88281 16.2769C5.31428 16.2769 5.66406 15.9263 5.66406 15.4939C5.66406 15.0615 5.31428 14.7109 4.88281 14.7109C4.45134 14.7109 4.10156 15.0615 4.10156 15.4939C4.10156 15.9263 4.45134 16.2769 4.88281 16.2769Z" fill="black"/>
<path d="M4.88281 9.46436C5.31428 9.46436 5.66406 9.11382 5.66406 8.6814C5.66406 8.24898 5.31428 7.89844 4.88281 7.89844C4.45134 7.89844 4.10156 8.24898 4.10156 8.6814C4.10156 9.11382 4.45134 9.46436 4.88281 9.46436Z" fill="black"/>
<path d="M4.88281 12.8706C5.31428 12.8706 5.66406 12.5201 5.66406 12.0876C5.66406 11.6552 5.31428 11.3047 4.88281 11.3047C4.45134 11.3047 4.10156 11.6552 4.10156 12.0876C4.10156 12.5201 4.45134 12.8706 4.88281 12.8706Z" fill="black"/>
<path d="M8.28125 12.8706C8.71272 12.8706 9.0625 12.5201 9.0625 12.0876C9.0625 11.6552 8.71272 11.3047 8.28125 11.3047C7.84978 11.3047 7.5 11.6552 7.5 12.0876C7.5 12.5201 7.84978 12.8706 8.28125 12.8706Z" fill="black"/>
<path d="M8.28125 9.46436C8.71272 9.46436 9.0625 9.11382 9.0625 8.6814C9.0625 8.24898 8.71272 7.89844 8.28125 7.89844C7.84978 7.89844 7.5 8.24898 7.5 8.6814C7.5 9.11382 7.84978 9.46436 8.28125 9.46436Z" fill="black"/>
<path d="M8.28125 16.2769C8.71272 16.2769 9.0625 15.9263 9.0625 15.4939C9.0625 15.0615 8.71272 14.7109 8.28125 14.7109C7.84978 14.7109 7.5 15.0615 7.5 15.4939C7.5 15.9263 7.84978 16.2769 8.28125 16.2769Z" fill="black"/>
</g>
<defs>
<clipPath id="clip0_1812_16051">
<rect width="20" height="20.0438" fill="white" transform="translate(0 0.460938)"/>
</clipPath>
</defs>
</svg>
