<svg width="150" height="258" viewBox="0 0 150 258" fill="none" xmlns="http://www.w3.org/2000/svg">
<rect width="150" height="258" rx="8" fill="url(#paint0_linear_1208_18460)"/>
<path d="M58.4893 24L56.083 16.1592H56.0215C56.0306 16.346 56.0443 16.6286 56.0625 17.0068C56.0853 17.3805 56.1058 17.7793 56.124 18.2031C56.1423 18.627 56.1514 19.0098 56.1514 19.3516V24H54.2578V14.0059H57.1426L59.5078 21.6484H59.5488L62.0576 14.0059H64.9424V24H62.9668V19.2695C62.9668 18.9551 62.9714 18.5928 62.9805 18.1826C62.9941 17.7725 63.0101 17.3828 63.0283 17.0137C63.0465 16.64 63.0602 16.3597 63.0693 16.1729H63.0078L60.4307 24H58.4893ZM77.5361 18.9893C77.5361 19.7594 77.4404 20.4613 77.249 21.0947C77.0576 21.7236 76.766 22.266 76.374 22.7217C75.9867 23.1774 75.4945 23.5283 74.8975 23.7744C74.3005 24.016 73.5941 24.1367 72.7783 24.1367C71.9626 24.1367 71.2562 24.016 70.6592 23.7744C70.0622 23.5283 69.5677 23.1774 69.1758 22.7217C68.7884 22.266 68.499 21.7214 68.3076 21.0879C68.1162 20.4544 68.0205 19.7503 68.0205 18.9756C68.0205 17.9411 68.1891 17.041 68.5264 16.2754C68.8682 15.5052 69.3923 14.9082 70.0986 14.4844C70.805 14.0605 71.7028 13.8486 72.792 13.8486C73.8766 13.8486 74.7676 14.0605 75.4648 14.4844C76.1667 14.9082 76.6862 15.5052 77.0234 16.2754C77.3652 17.0456 77.5361 17.9502 77.5361 18.9893ZM70.2422 18.9893C70.2422 19.6865 70.3288 20.2881 70.502 20.7939C70.6797 21.2952 70.9554 21.6826 71.3291 21.9561C71.7028 22.2249 72.1859 22.3594 72.7783 22.3594C73.3799 22.3594 73.8675 22.2249 74.2412 21.9561C74.6149 21.6826 74.8861 21.2952 75.0547 20.7939C75.2279 20.2881 75.3145 19.6865 75.3145 18.9893C75.3145 17.9411 75.1185 17.1162 74.7266 16.5146C74.3346 15.9131 73.6898 15.6123 72.792 15.6123C72.195 15.6123 71.7074 15.749 71.3291 16.0225C70.9554 16.2913 70.6797 16.6787 70.502 17.1846C70.3288 17.6859 70.2422 18.2874 70.2422 18.9893ZM86.5068 21.2246C86.5068 21.8171 86.3633 22.332 86.0762 22.7695C85.7891 23.207 85.3698 23.5443 84.8184 23.7812C84.2715 24.0182 83.6061 24.1367 82.8223 24.1367C82.4759 24.1367 82.1364 24.1139 81.8037 24.0684C81.4756 24.0228 81.1589 23.9567 80.8535 23.8701C80.5527 23.779 80.2656 23.6673 79.9922 23.5352V21.5664C80.4661 21.776 80.9583 21.9652 81.4688 22.1338C81.9792 22.3024 82.485 22.3867 82.9863 22.3867C83.3327 22.3867 83.6107 22.3411 83.8203 22.25C84.0345 22.1589 84.1895 22.0335 84.2852 21.874C84.3809 21.7145 84.4287 21.5322 84.4287 21.3271C84.4287 21.0765 84.3444 20.8623 84.1758 20.6846C84.0072 20.5068 83.7747 20.3405 83.4785 20.1855C83.1868 20.0306 82.8564 19.8643 82.4873 19.6865C82.2549 19.5771 82.002 19.445 81.7285 19.29C81.4551 19.1305 81.1953 18.9368 80.9492 18.709C80.7031 18.4811 80.5003 18.2054 80.3408 17.8818C80.1859 17.5537 80.1084 17.1618 80.1084 16.7061C80.1084 16.109 80.2451 15.5986 80.5186 15.1748C80.792 14.751 81.1816 14.4274 81.6875 14.2041C82.1979 13.9762 82.7995 13.8623 83.4922 13.8623C84.0117 13.8623 84.5062 13.9238 84.9756 14.0469C85.4495 14.1654 85.944 14.3385 86.459 14.5664L85.7754 16.2139C85.3151 16.027 84.9027 15.8835 84.5381 15.7832C84.1735 15.6784 83.8021 15.626 83.4238 15.626C83.1595 15.626 82.9339 15.6693 82.7471 15.7559C82.5602 15.8379 82.4189 15.9564 82.3232 16.1113C82.2275 16.2617 82.1797 16.4372 82.1797 16.6377C82.1797 16.8747 82.248 17.0752 82.3848 17.2393C82.526 17.3988 82.7357 17.5537 83.0137 17.7041C83.2962 17.8545 83.6471 18.0299 84.0664 18.2305C84.5768 18.472 85.012 18.7249 85.3721 18.9893C85.7367 19.249 86.0169 19.5566 86.2129 19.9121C86.4089 20.263 86.5068 20.7005 86.5068 21.2246ZM93.1738 24H91.0547V15.7695H88.3408V14.0059H95.8877V15.7695H93.1738V24Z" fill="white"/>
<path d="M13 36H137" stroke="white"/>
<path d="M13 132H138" stroke="white" stroke-opacity="0.3" stroke-width="0.5"/>
<path d="M13 152H138" stroke="white" stroke-opacity="0.3" stroke-width="0.5"/>
<path d="M13 172H138" stroke="white" stroke-opacity="0.3" stroke-width="0.5"/>
<path d="M13 192H138" stroke="white" stroke-opacity="0.3" stroke-width="0.5"/>
<path d="M13 212H138" stroke="white" stroke-opacity="0.3" stroke-width="0.5"/>
<path d="M13 112H138" stroke="white" stroke-opacity="0.3" stroke-width="0.5"/>
<path d="M13 92H138" stroke="white" stroke-opacity="0.3" stroke-width="0.5"/>
<path d="M13 72H138" stroke="white" stroke-opacity="0.3" stroke-width="0.5"/>
<path d="M13 52H138" stroke="white" stroke-opacity="0.3" stroke-width="0.5"/>
<path d="M13 221H137" stroke="white"/>
<path d="M26.5 62L60 176.5L91 194L126.5 145.5" stroke="white" stroke-width="2"/>
<circle cx="91.5" cy="192.5" r="5" fill="#FCFCFC" stroke="white" stroke-width="5"/>
<circle cx="61.5" cy="177.5" r="5" fill="#FCFCFC" stroke="white" stroke-width="5"/>
<circle cx="125.5" cy="146.5" r="5" fill="white" stroke="white" stroke-width="5"/>
<circle cx="28.5" cy="64.5" r="5" fill="white" stroke="white" stroke-width="5"/>
<path d="M31.5635 238.791C31.5635 239.953 31.347 240.919 30.9141 241.689C30.4811 242.46 29.8704 243.038 29.082 243.426C28.2982 243.809 27.3753 244 26.3135 244H23.0801V234.006H26.5391C27.6146 234.006 28.526 234.19 29.2734 234.56C30.0208 234.929 30.5882 235.469 30.9756 236.18C31.3675 236.891 31.5635 237.761 31.5635 238.791ZM28.7607 238.887C28.7607 238.281 28.6787 237.779 28.5146 237.383C28.3551 236.982 28.1136 236.683 27.79 236.487C27.4665 236.287 27.0586 236.187 26.5664 236.187H25.7803V241.785H26.3818C27.2021 241.785 27.8037 241.548 28.1865 241.074C28.5693 240.596 28.7607 239.867 28.7607 238.887Z" fill="white"/>
<path d="M59.1396 244V234.006H61.8535V244H59.1396Z" fill="white"/>
<path d="M95.0752 240.965C95.0752 241.507 94.9385 242.022 94.665 242.51C94.3916 242.993 93.9655 243.385 93.3867 243.686C92.8125 243.986 92.0697 244.137 91.1582 244.137C90.7025 244.137 90.3014 244.116 89.9551 244.075C89.6133 244.034 89.2943 243.968 88.998 243.877C88.7018 243.781 88.3942 243.658 88.0752 243.508V241.102C88.6175 241.375 89.1644 241.585 89.7158 241.73C90.2673 241.872 90.7663 241.942 91.2129 241.942C91.4818 241.942 91.7005 241.91 91.8691 241.847C92.0423 241.783 92.1699 241.696 92.252 241.587C92.334 241.473 92.375 241.343 92.375 241.197C92.375 241.024 92.3135 240.878 92.1904 240.76C92.0719 240.637 91.8805 240.509 91.6162 240.377C91.3519 240.245 91.0033 240.081 90.5703 239.885C90.2012 239.712 89.8662 239.534 89.5654 239.352C89.2692 239.169 89.014 238.962 88.7998 238.729C88.5902 238.493 88.4284 238.217 88.3145 237.902C88.2005 237.588 88.1436 237.216 88.1436 236.788C88.1436 236.146 88.3008 235.608 88.6152 235.175C88.9342 234.737 89.3763 234.409 89.9414 234.19C90.5111 233.972 91.1673 233.862 91.9102 233.862C92.5618 233.862 93.1475 233.935 93.667 234.081C94.1911 234.227 94.6605 234.393 95.0752 234.58L94.248 236.665C93.8197 236.469 93.3981 236.314 92.9834 236.2C92.5687 236.082 92.1836 236.022 91.8281 236.022C91.5957 236.022 91.4043 236.052 91.2539 236.111C91.1081 236.166 90.9987 236.241 90.9258 236.337C90.8574 236.433 90.8232 236.542 90.8232 236.665C90.8232 236.82 90.8825 236.959 91.001 237.082C91.124 237.205 91.3268 237.34 91.6094 237.485C91.8965 237.627 92.2861 237.811 92.7783 238.039C93.266 238.258 93.6807 238.495 94.0225 238.75C94.3643 239.001 94.624 239.304 94.8018 239.659C94.984 240.01 95.0752 240.445 95.0752 240.965Z" fill="white"/>
<path d="M124.984 236.077C124.665 236.077 124.381 236.146 124.13 236.282C123.879 236.414 123.665 236.608 123.487 236.863C123.31 237.118 123.173 237.431 123.077 237.8C122.986 238.164 122.94 238.579 122.94 239.044C122.94 239.673 123.02 240.201 123.18 240.63C123.339 241.058 123.581 241.382 123.904 241.601C124.232 241.819 124.643 241.929 125.135 241.929C125.581 241.929 126.01 241.867 126.42 241.744C126.835 241.621 127.252 241.473 127.671 241.3V243.583C127.229 243.779 126.775 243.92 126.311 244.007C125.85 244.093 125.36 244.137 124.841 244.137C123.756 244.137 122.868 243.923 122.175 243.494C121.487 243.061 120.979 242.462 120.65 241.696C120.327 240.931 120.165 240.042 120.165 239.03C120.165 238.274 120.27 237.581 120.479 236.952C120.694 236.323 121.006 235.779 121.416 235.318C121.826 234.854 122.332 234.496 122.934 234.245C123.54 233.99 124.232 233.862 125.012 233.862C125.495 233.862 126.003 233.919 126.536 234.033C127.074 234.143 127.598 234.32 128.108 234.566L127.281 236.692C126.917 236.519 126.548 236.373 126.174 236.255C125.8 236.136 125.404 236.077 124.984 236.077Z" fill="white"/>
<defs>
<linearGradient id="paint0_linear_1208_18460" x1="75" y1="0" x2="75" y2="258" gradientUnits="userSpaceOnUse">
<stop stop-color="#1C34E9"/>
<stop offset="1" stop-color="#EB0044"/>
</linearGradient>
</defs>
</svg>
