<svg width="29" height="34" viewBox="0 0 29 34" fill="none" xmlns="http://www.w3.org/2000/svg">
<path d="M11.691 16.9132C16.3614 16.9132 20.1476 13.1271 20.1476 8.45661C20.1476 3.78615 16.3614 0 11.691 0C7.02053 0 3.23438 3.78615 3.23438 8.45661C3.23438 13.1271 7.02053 16.9132 11.691 16.9132Z" fill="#525F70"/>
<path d="M7.28138 14.7174C5.63131 13.5486 4.46251 11.6235 4.1875 9.56094L4.87503 9.49219C5.15004 11.3485 6.18133 13.0673 7.6939 14.1674L7.28138 14.7174Z" fill="#616B77"/>
<path d="M4.81253 7.8391L4.125 7.77035C4.125 7.49534 4.19375 7.22032 4.26251 6.94531L4.95004 7.08282C4.88128 7.35783 4.81253 7.56409 4.81253 7.8391Z" fill="#616B77"/>
<path d="M11.6909 14.5068C15.0323 14.5068 17.7411 11.798 17.7411 8.45651C17.7411 5.11504 15.0323 2.40625 11.6909 2.40625C8.34942 2.40625 5.64062 5.11504 5.64062 8.45651C5.64062 11.798 8.34942 14.5068 11.6909 14.5068Z" fill="white"/>
<path d="M19.7969 11L21.8595 11.9625L20.8282 14.0939L18.7656 13.1313C18.9719 12.7876 19.1781 12.4438 19.3156 12.1C19.5219 11.7563 19.6594 11.3438 19.7969 11Z" fill="#425060"/>
<path d="M27.9812 16.1592C27.5 17.1218 26.3999 17.5343 25.3686 17.1218L21.2434 15.1967C20.8309 14.9904 20.6247 14.5092 20.8309 14.0966L21.7935 12.1028C21.9997 11.6903 22.481 11.484 22.8935 11.6903L27.0187 13.6154C27.9812 14.0279 28.3937 15.1967 27.9812 16.1592Z" fill="#525F70"/>
<path d="M25.3751 14.2969L24 13.6094L25.3751 14.2969Z" fill="#616B77"/>
<path d="M24.0938 13.2812L25.5251 13.9534L25.2328 14.5758L23.8015 13.9036L24.0938 13.2812Z" fill="#616B77"/>
<path d="M22.9 13.1297L22.625 12.9922L22.9 13.1297Z" fill="#616B77"/>
<path d="M22.7734 12.7031L23.0223 12.8203L22.7294 13.4423L22.4806 13.3252L22.7734 12.7031Z" fill="#616B77"/>
<path d="M24.6823 26.4019C24.6823 30.1146 21.5197 33.0022 17.807 33.0022H6.87529C3.16263 33.0022 0.0687529 30.1146 0 26.4706V26.4019C0 20.6954 3.98767 18.9766 9.3504 18.6328L12.3068 22.1392L15.2632 18.6328C16.2944 18.7016 17.3257 18.8391 18.2195 19.0453C22.0697 19.8016 24.6823 21.7954 24.6823 26.4019Z" fill="#559AFF"/>
<path d="M11.4157 22.1406L10.1094 30.0472L12.2407 31.6285L14.4408 30.0472L13.1345 22.1406H11.4157Z" fill="#FA4968"/>
<path d="M18.2878 18.975L15.2626 24.3377L12.375 22.0689L15.3314 18.5625C16.3627 18.7 17.3252 18.8375 18.2878 18.975Z" fill="#DDEDEB"/>
<path d="M6.46094 18.975L9.48607 24.3377L12.3737 22.0689L9.41731 18.5625C8.38602 18.7 7.35473 18.8375 6.46094 18.975Z" fill="#DDEDEB"/>
<path d="M14.369 6.1875H9.0063C8.38752 6.1875 7.90625 6.66877 7.90625 7.28755V10.3814C7.90625 11.0002 8.38752 11.4815 9.0063 11.4815H14.369C14.9878 11.4815 15.4691 11.0002 15.4691 10.3814V7.28755C15.4691 6.66877 14.9878 6.1875 14.369 6.1875Z" fill="#FECD04"/>
<path d="M13.3314 6.87353H10.0312V5.56722C10.0312 5.08595 10.375 4.74219 10.8563 4.74219H12.5064C12.9876 4.74219 13.3314 5.08595 13.3314 5.56722V6.87353ZM10.7188 6.186H12.6439V5.56722C12.6439 5.49847 12.5751 5.42972 12.5064 5.42972H10.8563C10.7875 5.42972 10.7188 5.49847 10.7188 5.56722V6.186Z" fill="#425060"/>
<path d="M14.5003 6.1875H8.93129C8.38127 6.1875 7.96875 6.60002 7.96875 7.15004V7.63131C7.96875 8.18134 8.38127 8.59385 8.93129 8.59385H14.5003C15.0503 8.59385 15.4628 8.18134 15.4628 7.63131V7.15004C15.4628 6.66877 14.9815 6.1875 14.5003 6.1875Z" fill="#FFD731"/>
<path d="M12.0391 7.97656H11.3516C11.1453 7.97656 11.0078 8.11407 11.0078 8.32033V9.21412C11.0078 9.42037 11.1453 9.55788 11.3516 9.55788H12.0391C12.2454 9.55788 12.3829 9.42037 12.3829 9.21412V8.32033C12.3829 8.11407 12.2454 7.97656 12.0391 7.97656Z" fill="white"/>
</svg>
