<svg width="17" height="17" viewBox="0 0 17 17" fill="none" xmlns="http://www.w3.org/2000/svg">
<path d="M16.3049 13.1207C16.3049 13.4867 16.1768 13.7978 15.9206 14.054L14.054 15.9206C13.7978 16.1768 13.4867 16.3049 13.1207 16.3049C12.7548 16.3049 12.4437 16.1768 12.1875 15.9206L8.15243 11.8855L4.11739 15.9206C3.8612 16.1768 3.5501 16.3049 3.18411 16.3049C2.81812 16.3049 2.50703 16.1768 2.25084 15.9206L0.38429 14.054C0.128097 13.7978 0 13.4867 0 13.1207C0 12.7548 0.128097 12.4437 0.38429 12.1875L4.41933 8.15243L0.38429 4.11739C0.128097 3.8612 0 3.5501 0 3.18411C0 2.81812 0.128097 2.50703 0.38429 2.25084L2.25084 0.38429C2.50703 0.128097 2.81812 0 3.18411 0C3.5501 0 3.8612 0.128097 4.11739 0.38429L8.15243 4.41933L12.1875 0.38429C12.4437 0.128097 12.7548 0 13.1207 0C13.4867 0 13.7978 0.128097 14.054 0.38429L15.9206 2.25084C16.1768 2.50703 16.3049 2.81812 16.3049 3.18411C16.3049 3.5501 16.1768 3.8612 15.9206 4.11739L11.8855 8.15243L15.9206 12.1875C16.1768 12.4437 16.3049 12.7548 16.3049 13.1207Z" fill="#686E74"/>
</svg>
