<svg width="205" height="13" viewBox="0 0 205 13" fill="none" xmlns="http://www.w3.org/2000/svg">
<path d="M205 2.19618C203.954 2.11434 202.997 2.11434 201.957 2.11434C200.911 2.11434 199.954 2.0325 198.913 1.95067C196.653 1.78701 194.477 1.54633 192.217 1.38748C187.954 1.06496 183.607 0.742439 179.344 0.660606C175.428 0.501755 171.428 0.419922 167.518 0.419922C166.472 0.419922 165.431 0.419922 164.474 0.419922C160.558 0.501755 156.648 0.501753 152.732 0.583586C143.601 0.82427 134.382 1.06977 125.247 1.47412C116.29 1.87847 107.328 2.28282 98.4606 2.76419C94.1136 3.00487 89.6773 3.25037 85.3251 3.49106C80.5419 3.89541 75.7587 4.1361 71.0596 4.45862C61.2304 5.18548 51.4905 5.83051 41.6612 6.55738C33.1356 7.20241 24.6992 8.09295 16.2629 9.22417C10.87 10.0329 5.39294 10.9186 0 11.8091C6.17612 12.2135 12.4364 12.3723 18.7018 12.4541C22.7912 12.4541 26.8753 12.3723 30.8754 12.2905C33.4825 12.2087 36.0948 12.0498 38.7913 11.8861C40.4418 11.8043 42.0082 11.6455 43.5745 11.4818C47.8374 11.0774 52.1843 10.7549 56.4472 10.3506C61.4038 9.94622 66.2764 9.46004 71.2331 9.0605C76.2791 8.65615 81.4092 8.25179 86.4552 7.84744C90.9756 7.52493 95.5854 7.20242 100.195 6.8799C104.631 6.55738 109.152 6.31187 113.588 6.07119C118.109 5.83051 122.545 5.58502 127.07 5.34433C131.68 5.10365 136.201 5.02181 140.81 4.85815C149.157 4.53563 157.51 4.45379 165.946 4.37196C170.645 4.37196 175.255 4.2083 179.949 4.04945C184.558 3.8906 189.168 3.72693 193.688 3.48624C195.512 3.40441 197.426 3.32258 199.255 3.16373C200.127 3.0819 201.084 3.00006 201.951 2.84121C202.735 2.67754 203.518 2.43685 204.301 2.35502C204.564 2.278 204.737 2.19618 205 2.19618Z" fill="#FCEC8F"/>
</svg>
