<svg width="9" height="9" viewBox="0 0 9 9" fill="none" xmlns="http://www.w3.org/2000/svg">
<path d="M3.64551 3.51922L2.90877 2.81922C2.74505 2.67255 2.55049 2.60242 2.3251 2.60882C2.09971 2.61522 1.91225 2.69202 1.76272 2.83922C1.61264 2.98589 1.53761 3.17255 1.53761 3.39922C1.53761 3.62589 1.61264 3.81255 1.76272 3.95922L3.89109 6.03922C4.05481 6.19922 4.24582 6.27922 4.46412 6.27922C4.68241 6.27922 4.87342 6.19922 5.03714 6.03922L7.18598 3.93922C7.33605 3.79255 7.40782 3.60909 7.40127 3.38882C7.39472 3.16855 7.31614 2.98535 7.16551 2.83922C7.01543 2.69255 6.8277 2.61922 6.60231 2.61922C6.37692 2.61922 6.18264 2.69255 6.01947 2.83922L5.28272 3.51922V0.979219C5.28272 0.752552 5.20413 0.565886 5.04696 0.419219C4.88979 0.272552 4.69551 0.199219 4.46412 0.199219C4.23218 0.199219 4.03762 0.276019 3.88045 0.429619C3.72328 0.583219 3.64497 0.773086 3.64551 0.999219V3.51922ZM1.1897 8.99922H7.759C7.99094 8.99922 8.18195 8.92242 8.33202 8.76882C8.4821 8.61522 8.55714 8.42535 8.55714 8.19922C8.55714 7.97255 8.47855 7.78242 8.32138 7.62882C8.16421 7.47522 7.96993 7.39869 7.73853 7.39922H1.16923C0.937295 7.39922 0.746287 7.47602 0.59621 7.62962C0.446132 7.78322 0.371094 7.97308 0.371094 8.19922C0.371094 8.42589 0.449679 8.61602 0.606851 8.76962C0.764024 8.92322 0.958306 8.99975 1.1897 8.99922Z" fill="white"/>
</svg>
