<svg width="315" height="327" viewBox="0 0 315 327" fill="none" xmlns="http://www.w3.org/2000/svg">
<path d="M56.7695 303.18L92.6295 326" stroke="white" stroke-width="2" stroke-linecap="round" stroke-linejoin="round"/>
<path d="M179.24 309.811C179.85 310.171 180.61 310.171 181.22 309.811L184.21 308.081C185.53 307.321 185.53 305.421 184.21 304.661C183.6 304.301 182.84 304.301 182.23 304.661L179.24 306.391C177.92 307.151 177.92 309.051 179.24 309.811Z" fill="white"/>
<path d="M9.35 147.199L5.34 162.549L3.73 163.479L0 152.609L1.58 151.699L3.36 157.089C3.86 158.559 4.28 159.899 4.59 161.249C4.94 159.539 5.4 157.629 5.9 155.639L7.8 148.109L9.36 147.209L9.35 147.199Z" fill="#3B7CF2"/>
<path d="M284.501 4.18945L215.581 43.3094V122.479L175.531 144.839" stroke="white" stroke-miterlimit="10"/>
<path d="M285.899 5.58C287.44 5.58 288.689 4.33088 288.689 2.79C288.689 1.24913 287.44 0 285.899 0C284.359 0 283.109 1.24913 283.109 2.79C283.109 4.33088 284.359 5.58 285.899 5.58Z" fill="white"/>
<path d="M215.583 59.0293L208.633 71.0793H222.533L215.583 59.0293Z" fill="white"/>
<path d="M215.581 89.2305L211.391 96.4905H219.771L215.581 89.2305Z" fill="white"/>
<path d="M228.327 253.511C241.187 260.931 241.257 272.971 228.477 280.391L168.517 315.241C155.747 322.661 134.967 322.661 122.107 315.241L61.7566 280.391C48.8966 272.971 48.8266 260.931 61.6066 253.511L121.567 218.661C134.337 211.241 155.117 211.241 167.977 218.661L228.327 253.511Z" stroke="white" stroke-miterlimit="10"/>
<path d="M249.719 248.74L174.499 292.45C158.469 301.76 132.409 301.76 116.279 292.45L40.5685 248.74C32.4485 244.05 28.3985 237.9 28.4185 231.76L28.3985 240.46C28.3785 246.6 32.4385 252.75 40.5485 257.44L116.259 301.15C132.389 310.46 158.449 310.46 174.479 301.15L249.699 257.44C257.659 252.81 261.649 246.76 261.659 240.7L261.678 232C261.658 238.06 257.679 244.12 249.719 248.74Z" fill="#A6D0F4"/>
<path d="M249.529 215.021C265.659 224.331 265.749 239.431 249.719 248.741L174.499 292.451C158.469 301.761 132.409 301.761 116.279 292.451L40.5694 248.741C24.4394 239.431 24.3594 224.331 40.3794 215.021L115.599 171.311C131.629 162.001 157.689 162.001 173.819 171.311L249.539 215.021H249.529Z" fill="white"/>
<path d="M203.857 222.39C212.937 227.63 212.987 236.13 203.967 241.37L161.627 265.98C152.607 271.22 137.937 271.22 128.857 265.98L86.2372 241.37C77.1572 236.13 77.1072 227.63 86.1272 222.39L128.467 197.78C137.487 192.54 152.157 192.54 161.237 197.78L203.857 222.39Z" fill="#CBDCEB"/>
<path d="M149.048 254.171C149.048 256.721 146.988 258.781 144.438 258.781C141.888 258.781 139.828 256.721 139.828 254.171C139.828 251.621 141.888 249.561 144.438 249.561C146.988 249.561 149.048 251.621 149.048 254.171Z" fill="#333333"/>
<path d="M106.958 228.671C106.958 231.221 104.898 233.281 102.348 233.281C99.7983 233.281 97.7383 231.221 97.7383 228.671C97.7383 226.121 99.7983 224.061 102.348 224.061C104.898 224.061 106.958 226.121 106.958 228.671Z" fill="#333333"/>
<path d="M191.138 228.671C191.138 231.221 189.078 233.281 186.528 233.281C183.978 233.281 181.918 231.221 181.918 228.671C181.918 226.121 183.978 224.061 186.528 224.061C189.078 224.061 191.138 226.121 191.138 228.671Z" fill="#333333"/>
<path d="M151.55 228.002C151.32 228.182 151.07 228.342 150.81 228.502C150.5 228.682 150.17 228.862 149.82 229.012L147.6 250.392H141.55L139.09 229.012C138.76 228.872 138.45 228.712 138.16 228.542C137.87 228.372 137.6 228.192 137.35 228.002L100.43 226.652L100.41 223.152V225.432L100.42 228.932L137.34 230.282C137.59 230.472 137.86 230.652 138.15 230.822C138.44 230.992 138.75 231.152 139.08 231.292L141.54 252.672H147.59L149.81 231.292C150.16 231.132 150.49 230.962 150.8 230.782C150.82 230.772 150.84 230.762 150.86 230.752C151.1 230.602 151.33 230.452 151.54 230.292L188.43 228.942V226.662L151.55 228.012V228.002Z" fill="url(#paint0_linear_1827_11829)"/>
<path d="M188.03 222.72V226.23L151.15 227.58C150.65 227.96 150.07 228.3 149.41 228.59L147.19 249.97H141.14L138.68 228.59C138.35 228.45 138.04 228.29 137.75 228.12C137.46 227.95 137.19 227.77 136.94 227.58L100.02 226.23L100 222.73L136.9 221.38C137.4 221 137.98 220.66 138.64 220.37L140.85 199H146.9L149.35 220.38C149.68 220.52 150 220.68 150.29 220.85C150.58 221.02 150.85 221.2 151.1 221.39L188.02 222.74L188.03 222.72Z" fill="#615D6C"/>
<path d="M147.886 204.591C147.696 204.401 147.466 204.221 147.186 204.061C145.506 203.091 142.776 203.091 141.096 204.061C140.816 204.221 140.576 204.401 140.396 204.591H139.836V224.862C139.836 225.502 140.256 226.131 141.096 226.621C142.776 227.591 145.506 227.591 147.186 226.621C148.026 226.131 148.446 225.502 148.446 224.862V204.591H147.886Z" fill="url(#paint1_linear_1827_11829)"/>
<path d="M147.186 202.831C148.866 203.801 148.866 205.371 147.186 206.341C145.506 207.311 142.776 207.311 141.096 206.341C139.416 205.371 139.416 203.801 141.096 202.831C142.776 201.861 145.506 201.861 147.186 202.831Z" fill="#4D4D4D"/>
<path d="M149.626 190.362C149.006 189.732 148.056 189.182 146.716 188.822C145.026 188.362 143.236 188.362 141.546 188.822C140.206 189.182 139.256 189.732 138.636 190.362H137.816V205.772C137.816 207.062 138.996 208.352 141.366 209.062C143.156 209.592 145.086 209.592 146.886 209.062C149.256 208.362 150.436 207.072 150.436 205.772V190.362H149.616H149.626Z" fill="url(#paint2_linear_1827_11829)"/>
<path d="M146.896 187.081C151.626 188.491 151.626 192.251 146.896 193.651C145.106 194.181 143.176 194.181 141.376 193.651C136.646 192.241 136.646 188.481 141.376 187.081C143.166 186.551 145.096 186.551 146.896 187.081Z" fill="#4D4D4D"/>
<path d="M132.598 213.36L83.3577 184.75L83.3477 180.68L132.588 209.29L132.598 213.36Z" fill="#535685"/>
<path d="M132.588 209.29L83.3477 180.68L86.3077 173.17L135.538 201.78L132.588 209.29Z" fill="#696FA3"/>
<path d="M135.539 201.78L86.3086 173.17L131.479 147.09L180.709 175.7L135.539 201.78Z" fill="#7B81B3"/>
<path d="M187.199 98.1905L137.969 69.5705L147.219 64.2305L196.459 92.8505L187.199 98.1905Z" fill="#7B81B3"/>
<path d="M180.707 175.7L131.477 147.09L137.967 69.5703L187.197 98.1903L180.707 175.7Z" fill="#696FA3"/>
<path d="M187.196 98.1896L196.456 92.8496L191.076 179.6L179.836 186.09L132.596 213.36L132.586 209.29L135.536 201.78L180.706 175.7L187.196 98.1896Z" fill="#535685"/>
<path d="M158.477 188.281L166.688 183.741L155.688 177.631L158.477 188.281Z" fill="#696FA3"/>
<path d="M152.228 173.54C154.578 174.9 156.488 178.199 156.478 180.899L156.438 195.32C156.438 198.03 154.518 199.12 152.158 197.76L92.928 163.559C90.568 162.199 88.668 158.899 88.668 156.189L88.708 141.769C88.708 139.069 90.628 137.979 92.988 139.339L152.218 173.54H152.228Z" fill="#E72E34"/>
<path d="M155.217 171.8L95.987 137.6C94.797 136.91 93.727 136.85 92.947 137.3L89.957 139.04C90.737 138.59 91.807 138.65 92.997 139.34L152.227 173.54C154.577 174.9 156.487 178.2 156.477 180.9L156.437 195.32C156.437 196.67 155.957 197.61 155.187 198.06L158.177 196.32C158.947 195.87 159.417 194.93 159.427 193.58L159.467 179.16C159.467 176.46 157.567 173.16 155.217 171.8Z" fill="#FF5F55"/>
<path d="M112.389 158.97L115.059 169.58L113.969 168.95L113.139 165.62L110.349 164.01L109.519 166.38L108.469 165.77L111.169 158.26L112.399 158.97H112.389ZM110.559 163.21L112.939 164.58L112.169 161.53C111.989 160.84 111.879 160.23 111.769 159.64H111.739C111.619 160.09 111.489 160.57 111.339 161.03L110.559 163.2" fill="white"/>
<path d="M108.887 156.95L106.037 164.37L104.917 163.72L102.367 153.18L103.467 153.81L104.677 158.98C105.007 160.39 105.307 161.67 105.507 162.85H105.537C105.757 161.94 106.097 161 106.447 160.02L107.787 156.31L108.877 156.94L108.887 156.95Z" fill="white"/>
<path d="M119.708 163.05C120.688 163.62 121.308 164.22 121.578 164.53L121.328 165.34C120.938 164.9 120.388 164.42 119.738 164.04C117.888 162.97 116.658 163.62 116.648 166C116.648 168.22 117.748 170.29 119.668 171.39C120.288 171.75 120.918 171.96 121.328 171.97L121.538 173.02C121.168 173.02 120.418 172.8 119.458 172.24C117.238 170.96 115.578 168.39 115.578 165.42C115.578 162.45 117.258 161.63 119.708 163.04V163.05Z" fill="white"/>
<path d="M126.198 166.94L128.858 177.55L127.768 176.92L126.938 173.59L124.138 171.98L123.308 174.35L122.258 173.74L124.958 166.23L126.188 166.94H126.198ZM124.358 171.18L126.738 172.55L125.968 169.5C125.788 168.81 125.678 168.2 125.568 167.61H125.538C125.418 168.06 125.288 168.54 125.138 169L124.358 171.17" fill="white"/>
<path d="M135.958 172.58L135.928 181.63L134.898 181.04L132.408 175C131.858 173.67 131.338 172.33 130.938 171.13H130.908C130.958 172.3 130.988 173.4 130.978 174.91V178.78L130.008 178.22L130.038 169.17L131.148 169.81L133.668 175.85C134.248 177.25 134.708 178.47 135.068 179.61H135.098C135.008 178.35 134.988 177.23 134.998 175.82V172.03L135.968 172.58H135.958Z" fill="white"/>
<path d="M142.666 176.46V177.45L140.256 176.06L140.236 184.12L139.206 183.53L139.236 175.46L136.836 174.08V173.09L142.666 176.46Z" fill="white"/>
<path d="M253.387 185.722L246.127 189.692C242.177 191.982 235.757 191.982 231.787 189.692L213.127 178.922C211.127 177.772 210.127 176.252 210.137 174.742V176.882C210.127 178.392 211.127 179.912 213.127 181.062L231.787 191.832C235.757 194.122 242.187 194.122 246.127 191.832L253.387 187.862C255.347 186.722 256.327 185.232 256.337 183.732V181.592C256.337 183.082 255.357 184.582 253.397 185.722H253.387Z" fill="#A6D0F4"/>
<path d="M253.346 177.411C257.316 179.701 257.346 183.421 253.396 185.721L246.136 189.691C242.186 191.981 235.766 191.981 231.796 189.691L213.136 178.921C209.166 176.631 209.136 172.911 213.086 170.611L220.346 166.641C224.296 164.351 230.716 164.351 234.686 166.641L253.346 177.411Z" fill="white"/>
<path d="M281.336 159.642L274.076 163.612C270.126 165.902 263.706 165.902 259.736 163.612L241.076 152.842C239.076 151.692 238.076 150.172 238.086 148.662V150.802C238.076 152.312 239.076 153.832 241.076 154.982L259.736 165.752C263.706 168.042 270.136 168.042 274.076 165.752L281.336 161.782C283.296 160.642 284.276 159.152 284.286 157.652V155.512C284.286 157.002 283.306 158.502 281.346 159.642H281.336Z" fill="#A6D0F4"/>
<path d="M281.287 151.331C285.257 153.621 285.287 157.341 281.337 159.641L274.077 163.611C270.127 165.901 263.707 165.901 259.737 163.611L241.077 152.841C237.107 150.551 237.077 146.831 241.027 144.531L248.287 140.561C252.237 138.271 258.657 138.271 262.627 140.561L281.287 151.331Z" fill="white"/>
<path d="M311.836 131.232L304.576 135.202C300.626 137.492 294.206 137.492 290.236 135.202L271.576 124.432C269.576 123.282 268.576 121.762 268.586 120.252V122.392C268.576 123.902 269.576 125.422 271.576 126.572L290.236 137.342C294.206 139.632 300.636 139.632 304.586 137.342L311.846 133.372C313.806 132.232 314.786 130.742 314.796 129.242V127.102C314.796 128.592 313.816 130.092 311.856 131.232H311.836Z" fill="#A6D0F4"/>
<path d="M311.787 122.921C315.757 125.211 315.787 128.931 311.837 131.231L304.577 135.201C300.627 137.491 294.207 137.491 290.237 135.201L271.577 124.431C267.607 122.141 267.577 118.421 271.527 116.121L278.787 112.151C282.737 109.861 289.157 109.861 293.127 112.151L311.787 122.921Z" fill="white"/>
<path d="M188.662 304.37C189.272 304.73 190.032 304.73 190.642 304.37L229.312 282.04C230.632 281.28 230.632 279.38 229.312 278.62C228.702 278.26 227.942 278.26 227.332 278.62L188.662 300.95C187.342 301.71 187.342 303.61 188.662 304.37Z" fill="white"/>
<path d="M223.252 40.1583C223.862 40.5183 224.622 40.5183 225.232 40.1583L228.222 38.4283C229.542 37.6683 229.542 35.7683 228.222 35.0083C227.612 34.6483 226.852 34.6483 226.242 35.0083L223.252 36.7383C221.932 37.4983 221.932 39.3983 223.252 40.1583Z" fill="white"/>
<path d="M232.674 34.7192C233.284 35.0792 234.044 35.0792 234.654 34.7192L273.324 12.3892C274.644 11.6292 274.644 9.72922 273.324 8.96922C272.714 8.60922 271.954 8.60922 271.344 8.96922L232.674 31.2992C231.354 32.0592 231.354 33.9592 232.674 34.7192Z" fill="white"/>
<path d="M35.8086 154.469V155.989C35.8086 156.889 36.7786 157.449 37.5586 156.999L68.3486 139.669C68.7086 139.459 68.9286 139.079 68.9286 138.659V137.139C68.9286 136.239 67.9586 135.679 67.1786 136.129L36.3886 153.459C36.0286 153.669 35.8086 154.049 35.8086 154.469Z" fill="#F2F9FF"/>
<path d="M13.0586 175.06V176.58C13.0586 177.48 14.0286 178.04 14.7986 177.59L68.3386 147.24C68.6986 147.03 68.9286 146.65 68.9286 146.23V144.71C68.9286 143.81 67.9586 143.25 67.1886 143.7L13.6486 174.05C13.2886 174.26 13.0586 174.64 13.0586 175.06Z" fill="#F2F9FF"/>
<g opacity="0.53">
<path d="M25.3984 183.13V184.65C25.3984 185.55 26.3684 186.11 27.1384 185.66L68.3384 162.38C68.6984 162.17 68.9284 161.79 68.9284 161.37V159.85C68.9284 158.95 67.9584 158.39 67.1884 158.84L25.9884 182.12C25.6284 182.33 25.3984 182.71 25.3984 183.13Z" fill="#F2F9FF"/>
</g>
<path d="M17.6992 179.97V181.49C17.6992 182.39 18.6692 182.95 19.4392 182.5L68.3392 154.81C68.6992 154.6 68.9292 154.22 68.9292 153.8V152.28C68.9292 151.38 67.9592 150.82 67.1892 151.27L18.2892 178.96C17.9292 179.17 17.6992 179.55 17.6992 179.97Z" fill="#F2F9FF"/>
<path d="M34.3611 111.77C37.4511 109.99 39.4611 111.55 39.4711 115.41C39.4811 119.89 37.1211 123.63 34.2311 125.3C31.3411 126.97 29.1311 125.57 29.1211 121.64C29.1111 117.51 31.3411 113.52 34.3611 111.78V111.77ZM34.3111 123.87C36.6311 122.53 37.9311 119.33 37.9211 116.38C37.9211 113.8 36.7311 111.77 34.3011 113.17C31.8711 114.57 30.6811 117.83 30.6911 120.69C30.7011 123.55 32.0111 125.2 34.3111 123.88" fill="#3B7CF2"/>
<path d="M47.3203 105.49C47.9503 105.75 48.3203 106.48 48.3203 107.63C48.3203 108.78 48.0203 109.91 47.4503 110.92C46.6803 112.31 45.4203 113.52 43.9903 114.35C43.5603 114.6 43.1503 114.81 42.8103 114.91V120.12L41.3603 120.96L41.3203 108.11C42.0303 107.56 42.9503 106.91 44.1203 106.23C45.5703 105.39 46.6203 105.17 47.3003 105.48L47.3203 105.49ZM44.0303 112.98C45.7903 111.96 46.8703 110.36 46.8603 108.56C46.8503 106.76 45.7903 106.63 44.1803 107.56C43.5403 107.93 43.0503 108.27 42.8003 108.49V113.55C43.1303 113.46 43.5403 113.27 44.0203 112.99" fill="#3B7CF2"/>
<path d="M56.3913 99.2695V100.68L51.7413 103.36L51.7612 107.47L56.1513 104.93L56.1613 106.32L51.7612 108.86L51.7713 113.54L56.6813 110.71V112.12L50.3113 115.8L50.2812 102.8L56.3913 99.2695Z" fill="#3B7CF2"/>
<path d="M67.0408 93.1191L67.0808 106.119L65.6008 106.979L61.9908 102.459C61.1908 101.459 60.4408 100.419 59.8608 99.3391L59.8108 99.3891C59.9008 100.969 59.9408 102.519 59.9508 104.679L59.9708 110.229L58.5908 111.029L58.5508 98.0291L60.1508 97.1091L63.7908 101.589C64.6308 102.629 65.2908 103.629 65.8308 104.639L65.8608 104.609C65.7208 102.949 65.6808 101.379 65.6808 99.3591L65.6608 93.9191L67.0408 93.1191Z" fill="#3B7CF2"/>
<path d="M14.3686 144.299L18.2686 155.079L16.7086 155.979L15.4886 152.589L11.4786 154.909L10.3186 159.679L8.80859 160.549L12.6186 145.319L14.3786 144.299H14.3686ZM11.7686 153.409L15.1786 151.439L14.0586 148.339C13.8086 147.629 13.6386 146.959 13.4686 146.309L13.4386 146.329C13.2786 147.199 13.0886 148.099 12.8786 149.009L11.7786 153.409" fill="#3B7CF2"/>
<path d="M24.8805 138.019C26.2905 137.209 27.1905 137.039 27.5705 137.049L27.2205 138.619C26.6605 138.629 25.8805 138.849 24.9305 139.399C22.2805 140.929 20.5205 143.899 20.5305 147.309C20.5305 150.489 22.1405 151.619 24.8905 150.029C25.7805 149.519 26.6805 148.779 27.2705 148.109L27.5805 149.269C27.0405 149.889 25.9705 150.819 24.5905 151.609C21.4005 153.449 18.9905 152.519 18.9805 148.259C18.9705 143.999 21.3605 140.039 24.8705 138.019H24.8805Z" fill="#3B7CF2"/>
<path d="M34.1989 132.85L38.0989 143.63L36.5389 144.53L35.3189 141.13L31.2989 143.45L30.1389 148.22L28.6289 149.09L32.4389 133.86L34.1989 132.84V132.85ZM31.5989 141.96L35.0089 139.99L33.8889 136.89C33.6389 136.18 33.4589 135.51 33.2989 134.86L33.2689 134.88C33.0989 135.75 32.9189 136.65 32.6989 137.57L31.6089 141.96" fill="#3B7CF2"/>
<path d="M48.2183 124.76L48.2583 137.77L46.7883 138.62L43.1783 134.09C42.3783 133.1 41.6283 132.05 41.0483 130.98L41.0083 131.02C41.0983 132.62 41.1283 134.16 41.1383 136.32L41.1583 141.88L39.7783 142.68L39.7383 129.67L41.3383 128.75L44.9883 133.24C45.8383 134.28 46.4883 135.27 47.0283 136.29L47.0683 136.25C46.9283 134.59 46.8883 133.03 46.8783 131.01L46.8583 125.57L48.2383 124.77L48.2183 124.76Z" fill="#3B7CF2"/>
<path d="M56.0095 120.05C57.4195 119.24 58.3095 119.08 58.6995 119.08L58.3495 120.65C57.7895 120.66 56.9995 120.88 56.0595 121.43C53.4095 122.96 51.6495 125.93 51.6595 129.34C51.6595 132.52 53.2695 133.65 56.0295 132.06C56.9195 131.55 57.8195 130.81 58.4095 130.14L58.7095 131.3C58.1695 131.92 57.0995 132.85 55.7195 133.64C52.5295 135.48 50.1295 134.55 50.1095 130.28C50.0895 126.01 52.4895 122.06 55.9995 120.04L56.0095 120.05Z" fill="#3B7CF2"/>
<path d="M68.35 113.139L64.58 122.799L64.6 128.339L63.12 129.199L63.1 123.679L59.5 118.259L61.17 117.299L62.77 119.969C63.21 120.699 63.55 121.299 63.91 121.999C64.26 120.949 64.64 119.869 65.08 118.639L66.7 114.109L68.36 113.149L68.35 113.139Z" fill="#3B7CF2"/>
<path d="M74.9308 92.9102V172.55L39.3008 192.8V215.02" stroke="white" stroke-miterlimit="10"/>
<defs>
<linearGradient id="paint0_linear_1827_11829" x1="100.4" y1="237.902" x2="188.44" y2="237.902" gradientUnits="userSpaceOnUse">
<stop offset="0.16" stop-color="#443F54"/>
<stop offset="0.55" stop-color="#2A253A"/>
</linearGradient>
<linearGradient id="paint1_linear_1827_11829" x1="139.836" y1="215.331" x2="148.446" y2="215.331" gradientUnits="userSpaceOnUse">
<stop offset="0.05" stop-color="#E5E5E5"/>
<stop offset="0.55" stop-color="#CCCCCC"/>
</linearGradient>
<linearGradient id="paint2_linear_1827_11829" x1="137.836" y1="198.972" x2="150.446" y2="198.972" gradientUnits="userSpaceOnUse">
<stop offset="0.16" stop-color="#443F54"/>
<stop offset="0.55" stop-color="#2A253A"/>
</linearGradient>
</defs>
</svg>
