<svg width="361" height="277" viewBox="0 0 361 277" fill="none" xmlns="http://www.w3.org/2000/svg">
<path d="M234.452 208.435C247.312 215.855 247.382 227.895 234.602 235.315L174.642 270.165C161.872 277.585 141.092 277.585 128.232 270.165L67.8816 235.315C55.0216 227.895 54.9516 215.855 67.7316 208.435L127.692 173.585C140.462 166.165 161.242 166.165 174.102 173.585L234.452 208.435Z" stroke="white" stroke-miterlimit="10"/>
<path d="M255.832 186.896L180.612 230.606C164.582 239.916 138.522 239.916 122.392 230.606L46.6818 186.896C38.5618 182.206 34.5118 176.056 34.5318 169.916L34.5118 178.616C34.4918 184.756 38.5518 190.906 46.6618 195.596L122.372 239.306C138.502 248.616 164.562 248.616 180.592 239.306L255.812 195.596C263.772 190.966 267.762 184.916 267.772 178.856L267.792 170.156C267.772 176.216 263.792 182.276 255.832 186.896Z" fill="#A6D0F4"/>
<path d="M255.639 153.177C271.769 162.487 271.859 177.587 255.829 186.897L180.609 230.607C164.579 239.917 138.519 239.917 122.389 230.607L46.6788 186.897C30.5488 177.587 30.4688 162.487 46.4888 153.177L121.709 109.467C137.739 100.157 163.799 100.157 179.929 109.467L255.649 153.177H255.639Z" fill="white"/>
<path d="M28.6484 104.975V106.495C28.6484 107.395 29.6184 107.955 30.3984 107.505L61.1884 90.1753C61.5484 89.9653 61.7684 89.5853 61.7684 89.1653V87.6453C61.7684 86.7453 60.7984 86.1853 60.0184 86.6353L29.2284 103.965C28.8684 104.175 28.6484 104.555 28.6484 104.975Z" fill="#F2F9FF"/>
<path d="M5.89844 125.566V127.086C5.89844 127.986 6.86843 128.546 7.63843 128.096L61.1784 97.7456C61.5384 97.5356 61.7684 97.1556 61.7684 96.7356V95.2156C61.7684 94.3156 60.7984 93.7556 60.0284 94.2056L6.48843 124.556C6.12843 124.766 5.89844 125.146 5.89844 125.566Z" fill="#F2F9FF"/>
<g opacity="0.53">
<path d="M18.2383 133.636V135.156C18.2383 136.056 19.2083 136.616 19.9783 136.166L61.1783 112.886C61.5383 112.676 61.7683 112.296 61.7683 111.876V110.356C61.7683 109.456 60.7983 108.896 60.0283 109.346L18.8283 132.626C18.4683 132.836 18.2383 133.216 18.2383 133.636Z" fill="#F2F9FF"/>
</g>
<path d="M10.5391 130.476V131.996C10.5391 132.896 11.5091 133.456 12.2791 133.006L61.1791 105.316C61.5391 105.106 61.7691 104.726 61.7691 104.306V102.786C61.7691 101.886 60.7991 101.326 60.0291 101.776L11.1291 129.466C10.7691 129.676 10.5391 130.056 10.5391 130.476Z" fill="#F2F9FF"/>
<path d="M22.5994 88.0665C25.6894 86.2865 27.6994 87.8465 27.7094 91.7065C27.7194 96.1865 25.3594 99.9165 22.4694 101.586C19.5794 103.256 17.3694 101.856 17.3594 97.9265C17.3494 93.7965 19.5794 89.8065 22.5994 88.0665ZM22.5494 100.176C24.8694 98.8365 26.1694 95.6365 26.1594 92.6765C26.1594 90.0965 24.9694 88.0765 22.5394 89.4765C20.1094 90.8765 18.9194 94.1365 18.9294 96.9965C18.9394 99.8565 20.2494 101.506 22.5494 100.186" fill="#3B7CF2"/>
<path d="M22.5897 67.5059L22.6297 80.5059L21.1497 81.3559L21.1297 75.2559L15.6597 78.4259L15.6697 84.5159L14.2197 85.3659L14.1797 72.3559L15.6397 71.5159L15.6497 76.9559L21.1297 73.7959L21.1097 68.3559L22.5897 67.5059Z" fill="#3B7CF2"/>
<path d="M26.5911 65.1953L26.6211 78.1953L25.1611 79.0453L25.1211 66.0453L26.5911 65.1953Z" fill="#3B7CF2"/>
<path d="M35.6684 69.3962C36.0384 71.0062 36.3084 72.1062 36.5484 72.4662L35.0384 73.3362C34.8484 73.0762 34.5984 72.0962 34.2684 70.6762C33.9284 69.0662 33.3184 68.7462 31.9984 69.4562L30.6284 70.2462L30.6484 75.8762L29.1884 76.7162L29.1484 63.8862C29.8884 63.2862 30.9384 62.5762 31.9484 61.9962C33.5084 61.0962 34.5184 60.8462 35.2284 61.1662C35.7984 61.4162 36.1184 62.1162 36.1184 63.1262C36.1184 64.8462 35.1884 66.5262 33.9984 67.6762V67.7362C34.8784 67.5762 35.3984 68.2062 35.6684 69.3962ZM32.1184 68.1062C33.6784 67.2062 34.6584 65.6562 34.6584 64.1662C34.6584 62.4862 33.5984 62.3562 32.0484 63.2362C31.3384 63.6462 30.8384 64.0062 30.6084 64.2262V68.9662L32.1184 68.1062Z" fill="#3B7CF2"/>
<path d="M39.6419 57.666L39.6719 70.666L38.2119 71.506L38.1719 58.506L39.6419 57.666Z" fill="#3B7CF2"/>
<path d="M50.6814 51.2852L50.7214 64.2852L49.2414 65.1452L45.6314 60.6252C44.8314 59.6252 44.0814 58.5852 43.5014 57.5052L43.4614 57.5552C43.5514 59.1452 43.5814 60.6852 43.5914 62.8552L43.6114 68.4052L42.2314 69.2052L42.1914 56.2052L43.7914 55.2852L47.4414 59.7652C48.2914 60.8052 48.9414 61.8052 49.4814 62.8152L49.5214 62.7752C49.3814 61.1252 49.3414 59.5552 49.3314 57.5352L49.3114 52.0952L50.6914 51.2952L50.6814 51.2852Z" fill="#3B7CF2"/>
<path d="M58.6881 46.5261C59.9981 45.7661 61.0281 45.5061 61.5081 45.4961L61.1581 47.0661C60.5481 47.1061 59.7981 47.2961 58.6581 47.9561C55.9081 49.5461 54.1081 52.5461 54.1181 55.8161C54.1281 59.0861 55.8681 60.0661 58.4981 58.5361C59.4581 57.9861 60.1081 57.4461 60.4481 57.0661V53.1861L58.1381 54.5161V53.1661L61.8581 51.0161L61.8781 57.2661C61.2181 57.9161 59.9281 59.1061 58.3981 59.9861C56.6881 60.9761 55.2781 61.2861 54.1681 60.7061C53.1881 60.1961 52.5881 58.7961 52.5781 56.7761C52.5781 52.8961 54.8881 48.7161 58.6781 46.5261H58.6881Z" fill="#3B7CF2"/>
<path d="M5.98 98.8567C6.6 99.1167 6.97 99.8467 6.98 101.007C6.99 102.167 6.69 103.287 6.11 104.297C5.34 105.687 4.08 106.897 2.66 107.717C2.22 107.967 1.82 108.187 1.48 108.277V113.487L0.0400085 114.327L0 101.477C0.7 100.937 1.63 100.287 2.8 99.6067C4.24 98.7767 5.3 98.5467 5.98 98.8567ZM2.69 106.347C4.45 105.327 5.52 103.727 5.52 101.937C5.52 100.147 4.46 99.9967 2.84 100.927C2.2 101.297 1.72001 101.637 1.46001 101.867V106.927C1.79001 106.837 2.2 106.637 2.69 106.357" fill="#3B7CF2"/>
<path d="M15.4497 101.845C15.8297 103.445 16.0997 104.545 16.3297 104.905L14.8197 105.775C14.6297 105.515 14.3797 104.545 14.0497 103.115C13.7097 101.515 13.0997 101.195 11.7797 101.895L10.4097 102.685L10.4297 108.315L8.96968 109.155L8.92969 96.3354C9.65969 95.7354 10.7197 95.0254 11.7297 94.4454C13.2897 93.5454 14.2997 93.2954 15.0097 93.6154C15.5797 93.8554 15.8997 94.5654 15.8997 95.5654C15.8997 97.2854 14.9697 98.9654 13.7797 100.115V100.175C14.6597 100.025 15.1797 100.645 15.4497 101.845ZM11.8997 100.545C13.4597 99.6454 14.4397 98.0954 14.4397 96.6054C14.4397 94.9354 13.3797 94.8054 11.8297 95.6754C11.1197 96.0854 10.6197 96.4554 10.3897 96.6654V101.415L11.8997 100.555" fill="#3B7CF2"/>
<path d="M34.8197 81.0056C36.2297 80.1956 37.1197 80.0256 37.5097 80.0356L37.1597 81.6156C36.6097 81.6156 35.8197 81.8456 34.8797 82.3856C32.2197 83.9156 30.4697 86.8856 30.4797 90.2956C30.4797 93.4756 32.0897 94.6056 34.8397 93.0156C35.7297 92.4956 36.6397 91.7656 37.2297 91.0956L37.5297 92.2556C36.9897 92.8756 35.9197 93.8056 34.5397 94.5956C31.3497 96.4356 28.9397 95.5056 28.9297 91.2456C28.9197 86.9856 31.3097 83.0256 34.8197 81.0056Z" fill="#3B7CF2"/>
<path d="M45.4303 75.0859L45.4403 76.4959L40.7803 79.1859L40.8003 83.2959L45.1903 80.7559L45.2003 82.1459L40.8003 84.6859L40.8103 89.3759L45.7203 86.5459V87.9459L39.3603 91.6159L39.3203 78.6159L45.4303 75.0859Z" fill="#3B7CF2"/>
<path d="M50.9108 71.7157C52.0708 71.0457 52.9108 70.8657 53.4108 70.9057L53.0108 72.5057C52.6408 72.4857 51.8808 72.5357 50.8608 73.1357C49.3208 74.0257 48.7308 75.4257 48.7308 76.3157C48.7308 77.5357 49.4208 77.7257 50.9908 77.5257C52.9108 77.2757 53.8808 77.7657 53.8908 79.6857C53.9008 81.6057 52.6108 84.1757 49.9408 85.7157C48.8508 86.3457 47.6508 86.6657 47.0508 86.5557L47.4208 84.9357C48.0808 85.0157 49.0308 84.8457 50.0408 84.2657C51.5308 83.4057 52.4108 81.9957 52.4008 80.6857C52.4008 79.4657 51.7908 79.1257 50.2608 79.3357C48.4108 79.6457 47.2708 79.2057 47.2608 77.3657C47.2608 75.3457 48.7108 72.9957 50.9108 71.7257V71.7157Z" fill="#3B7CF2"/>
<path d="M59.1903 66.9364C60.3503 66.2664 61.1903 66.0864 61.6903 66.1264L61.2903 67.7264C60.9203 67.7064 60.1603 67.7664 59.1403 68.3564C57.5903 69.2464 57.0103 70.6464 57.0103 71.5364C57.0103 72.7564 57.7003 72.9464 59.2603 72.7464C61.1803 72.4964 62.1603 72.9864 62.1603 74.8964C62.1603 76.8064 60.8703 79.3864 58.2103 80.9264C57.1203 81.5564 55.9203 81.8764 55.3203 81.7664L55.6903 80.1464C56.3403 80.2364 57.3003 80.0564 58.3103 79.4764C59.8003 78.6164 60.6803 77.2064 60.6703 75.8964C60.6703 74.6764 60.0603 74.3364 58.5303 74.5464C56.6803 74.8564 55.5303 74.4164 55.5303 72.5864C55.5303 70.5664 56.9803 68.2164 59.1803 66.9464L59.1903 66.9364Z" fill="#3B7CF2"/>
<path d="M285.259 113.176L285.139 157.786L259.719 143.116L259.839 98.4961L285.259 113.176Z" fill="#CBDCEB"/>
<path d="M281.943 115.045L282.822 114.535L282.693 159.145L281.812 159.655L281.943 115.045Z" fill="#BDC5CB"/>
<path d="M256.52 100.365L257.4 99.8555L282.82 114.535L281.94 115.045L256.52 100.365Z" fill="white"/>
<path d="M281.941 115.045L281.811 159.655L256.391 144.985L256.521 100.365L281.941 115.045Z" fill="#EAF1F7"/>
<path d="M261.93 109.936V110.576L276.72 119.116V118.476L261.93 109.936Z" fill="#A6D0F4"/>
<path d="M268.328 116.195V116.825L276.718 121.675V121.035L268.328 116.195Z" fill="#A6D0F4"/>
<path d="M263.109 125.705V126.345L276.679 134.185V133.545L263.109 125.705Z" fill="#A6D0F4"/>
<path d="M268.301 125.875V126.515L276.691 131.355V130.715L268.301 125.875Z" fill="#A6D0F4"/>
<path d="M266.07 122.025V122.665L276.7 128.795V128.165L266.07 122.025Z" fill="#A6D0F4"/>
<path d="M272.859 121.635V122.275L276.709 124.505V123.865L272.859 121.635Z" fill="#A6D0F4"/>
<path d="M272.621 136.106C270.261 134.746 268.031 135.086 267.101 137.236C265.941 139.916 267.261 144.446 270.041 147.566L270.691 146.066C268.811 143.866 267.931 140.766 268.731 138.906C269.381 137.396 270.961 137.146 272.621 138.106C273.031 138.336 273.441 138.646 273.841 139.026L274.491 137.526C273.881 136.936 273.251 136.456 272.631 136.106H272.621Z" fill="#4385FF"/>
<path d="M274.48 137.525L273.84 139.025C273.94 139.115 274.04 139.215 274.14 139.325C276.28 141.535 277.33 144.915 276.48 146.895C276.45 146.965 276.42 147.035 276.38 147.105C276.37 147.125 276.35 147.155 276.34 147.175C275.72 148.265 274.53 148.535 273.22 148.005C273.01 147.925 272.81 147.825 272.59 147.695C272.53 147.665 272.48 147.625 272.42 147.595C272.32 147.535 272.24 147.475 272.16 147.425L272.12 147.395C271.95 147.275 271.78 147.145 271.61 147.005C271.59 146.985 271.57 146.965 271.55 146.945C271.49 146.895 271.43 146.835 271.36 146.775C271.34 146.755 271.31 146.735 271.29 146.715C271.21 146.635 271.13 146.555 271.05 146.475C270.92 146.345 270.8 146.205 270.67 146.065L270.02 147.565C270.14 147.705 270.27 147.835 270.4 147.975C270.51 148.095 270.63 148.205 270.75 148.315C270.78 148.345 270.81 148.375 270.85 148.405C270.94 148.485 271.03 148.565 271.12 148.645C271.15 148.675 271.18 148.695 271.21 148.725C271.45 148.925 271.69 149.115 271.93 149.285C271.95 149.295 271.97 149.315 271.99 149.325C272.1 149.405 272.21 149.475 272.32 149.545L272.36 149.565C272.43 149.615 272.51 149.655 272.58 149.695C272.76 149.795 272.93 149.885 273.11 149.975C273.24 150.035 273.37 150.095 273.49 150.145C275.5 150.945 277.29 150.435 278.1 148.565C279.31 145.765 277.82 140.955 274.79 137.825C274.69 137.725 274.59 137.625 274.49 137.525H274.48Z" fill="#94C3FF"/>
<path d="M260.582 137.915V138.235C260.582 138.425 260.372 138.545 260.212 138.455L258.682 137.575C258.602 137.535 258.562 137.445 258.562 137.365V137.045C258.562 136.855 258.772 136.735 258.932 136.825L260.462 137.705C260.542 137.745 260.582 137.835 260.582 137.915Z" fill="#94C3FF"/>
<path d="M265.432 142.305V142.625C265.432 142.815 265.222 142.935 265.062 142.845L258.682 139.185C258.602 139.145 258.562 139.055 258.562 138.965V138.645C258.562 138.455 258.772 138.335 258.932 138.425L265.312 142.085C265.392 142.125 265.432 142.215 265.432 142.305Z" fill="#94C3FF"/>
<g opacity="0.53">
<path d="M262.802 144.025V144.345C262.802 144.535 262.592 144.655 262.432 144.565L258.682 142.415C258.602 142.375 258.562 142.285 258.562 142.195V141.875C258.562 141.685 258.772 141.565 258.932 141.655L262.682 143.805C262.762 143.845 262.802 143.935 262.802 144.025Z" fill="#94C3FF"/>
</g>
<path d="M264.443 143.356V143.676C264.443 143.866 264.232 143.986 264.072 143.896L258.682 140.806C258.602 140.766 258.562 140.676 258.562 140.586V140.266C258.562 140.076 258.772 139.956 258.932 140.046L264.322 143.136C264.402 143.176 264.443 143.266 264.443 143.356Z" fill="#94C3FF"/>
<path d="M187.531 0.106082C187.771 0.246082 188.001 0.536083 188.091 0.896083L189.081 4.99608C189.291 5.88608 189.911 6.77608 190.631 7.18608L193.851 9.04608C194.421 9.37608 194.651 10.3461 194.191 10.4661L191.571 11.1361C191.001 11.2761 190.751 11.9861 190.981 12.8861L191.961 16.9861C192.091 17.5361 191.771 17.7561 191.401 17.5461C191.281 17.4761 191.171 17.3661 191.051 17.2161L188.451 13.5361C188.171 13.1361 187.831 12.8261 187.491 12.6261C187.151 12.4261 186.821 12.3561 186.531 12.4261L183.921 13.0961C183.811 13.1261 183.691 13.0961 183.571 13.0261C183.201 12.8161 182.881 12.2161 183.011 11.8161L184.021 8.86608C184.241 8.21608 184.011 7.23608 183.431 6.42608L180.831 2.73608C180.381 2.09608 180.611 1.38608 181.181 1.71608L184.401 3.57608C185.101 3.98608 185.741 3.82608 185.961 3.17608L186.971 0.226083C187.061 -0.0339175 187.291 -0.0539175 187.531 0.0860825V0.106082Z" fill="#F79964"/>
<path d="M204.133 9.36585C204.373 9.50585 204.603 9.79585 204.693 10.1558L205.683 14.2558C205.893 15.1458 206.513 16.0358 207.233 16.4458L210.453 18.3058C211.023 18.6358 211.253 19.6058 210.793 19.7258L208.173 20.3958C207.603 20.5358 207.353 21.2458 207.583 22.1458L208.563 26.2458C208.693 26.7958 208.373 27.0158 208.003 26.8058C207.883 26.7358 207.773 26.6258 207.653 26.4758L205.053 22.7958C204.773 22.3958 204.433 22.0858 204.093 21.8858C203.753 21.6858 203.423 21.6158 203.133 21.6858L200.523 22.3558C200.413 22.3858 200.293 22.3558 200.173 22.2858C199.803 22.0758 199.483 21.4758 199.613 21.0758L200.623 18.1258C200.843 17.4758 200.613 16.4958 200.033 15.6858L197.433 11.9958C196.983 11.3558 197.213 10.6458 197.783 10.9758L201.003 12.8358C201.703 13.2458 202.343 13.0858 202.563 12.4358L203.573 9.48585C203.663 9.22585 203.893 9.20585 204.133 9.34585V9.36585Z" fill="#F79964"/>
<path d="M220.723 18.6256C220.963 18.7656 221.193 19.0556 221.283 19.4156L222.273 23.5156C222.483 24.4056 223.103 25.2956 223.823 25.7056L227.043 27.5656C227.613 27.8956 227.843 28.8656 227.383 28.9856L224.763 29.6556C224.193 29.7956 223.943 30.5056 224.173 31.4056L225.153 35.5056C225.283 36.0556 224.963 36.2756 224.593 36.0656C224.473 35.9956 224.363 35.8856 224.243 35.7356L221.643 32.0556C221.363 31.6556 221.023 31.3456 220.683 31.1456C220.343 30.9456 220.013 30.8756 219.723 30.9456L217.113 31.6156C217.003 31.6456 216.883 31.6156 216.763 31.5456C216.393 31.3356 216.073 30.7356 216.203 30.3356L217.213 27.3856C217.433 26.7356 217.203 25.7556 216.623 24.9456L214.023 21.2556C213.573 20.6156 213.803 19.9056 214.373 20.2356L217.593 22.0956C218.293 22.5056 218.933 22.3456 219.153 21.6956L220.163 18.7456C220.253 18.4856 220.483 18.4656 220.723 18.6056V18.6256Z" fill="#F79964"/>
<path d="M237.313 27.8756C237.553 28.0156 237.783 28.3056 237.873 28.6656L238.863 32.7656C239.073 33.6556 239.692 34.5456 240.412 34.9556L243.632 36.8156C244.202 37.1456 244.433 38.1156 243.973 38.2356L241.352 38.9056C240.782 39.0456 240.532 39.7556 240.762 40.6556L241.743 44.7556C241.873 45.3056 241.553 45.5256 241.183 45.3156C241.063 45.2456 240.953 45.1356 240.833 44.9856L238.232 41.3056C237.952 40.9056 237.613 40.5956 237.273 40.3956C236.933 40.1956 236.603 40.1256 236.313 40.1956L233.703 40.8656C233.593 40.8956 233.472 40.8656 233.352 40.7956C232.982 40.5856 232.662 39.9856 232.792 39.5856L233.803 36.6356C234.023 35.9856 233.793 35.0056 233.213 34.1956L230.613 30.5056C230.163 29.8656 230.393 29.1556 230.963 29.4856L234.183 31.3456C234.883 31.7556 235.523 31.5956 235.743 30.9456L236.753 27.9956C236.843 27.7356 237.073 27.7156 237.313 27.8556V27.8756Z" fill="#F79964"/>
<path d="M253.902 37.1354C254.142 37.2754 254.372 37.5654 254.462 37.9254L255.452 42.0254C255.662 42.9154 256.282 43.8054 257.002 44.2154L260.222 46.0754C260.792 46.4054 261.022 47.3754 260.562 47.4954L257.942 48.1654C257.372 48.3054 257.122 49.0154 257.352 49.9154L258.332 54.0154C258.462 54.5654 258.142 54.7854 257.772 54.5754C257.652 54.5054 257.542 54.3954 257.422 54.2454L254.822 50.5654C254.542 50.1654 254.202 49.8554 253.862 49.6554C253.522 49.4554 253.192 49.3854 252.902 49.4554L250.292 50.1254C250.182 50.1554 250.062 50.1254 249.942 50.0554C249.572 49.8454 249.252 49.2454 249.382 48.8454L250.392 45.8954C250.612 45.2454 250.382 44.2654 249.802 43.4554L247.202 39.7654C246.752 39.1254 246.982 38.4154 247.552 38.7454L250.772 40.6054C251.472 41.0154 252.112 40.8554 252.332 40.2054L253.342 37.2554C253.432 36.9954 253.662 36.9754 253.902 37.1154V37.1354Z" fill="#F79964"/>
<path d="M189.681 147.536C166.451 134.126 128.911 134.126 105.841 147.536C82.7713 160.946 82.8912 182.696 106.111 196.106C129.331 209.506 166.881 209.506 189.951 196.106C213.031 182.696 212.891 160.956 189.681 147.546V147.536ZM175.051 186.806C160.151 195.466 135.911 195.466 120.921 186.806C105.921 178.146 105.841 164.106 120.741 155.446C135.641 146.786 159.881 146.796 174.871 155.446C189.861 164.096 189.951 178.136 175.051 186.796V186.806Z" fill="#DFDFDF"/>
<path d="M190.758 139.546L190.738 147.366C190.658 147.316 190.588 147.276 190.508 147.226L190.528 139.406C190.608 139.456 190.678 139.496 190.758 139.546Z" fill="#DFDFDF"/>
<path d="M104.581 140.035L104.561 147.855C104.501 147.895 104.451 147.925 104.391 147.965L104.411 140.145C104.471 140.105 104.521 140.075 104.581 140.035Z" fill="#DFDFDF"/>
<path d="M197.559 152.266C197.669 152.356 197.769 152.446 197.879 152.546C197.779 152.456 197.669 152.356 197.559 152.266Z" fill="#DFDFDF"/>
<path d="M192.87 140.875L192.85 148.695C192.76 148.635 192.67 148.575 192.57 148.515L192.59 140.695C192.68 140.755 192.77 140.815 192.87 140.875Z" fill="#DFDFDF"/>
<path d="M103.1 141.006L103.08 148.826C102.99 148.886 102.91 148.946 102.82 149.006L102.84 141.186C102.93 141.126 103.01 141.066 103.1 141.006Z" fill="#DFDFDF"/>
<path d="M100.488 150.706C100.488 148.096 100.498 145.496 100.508 142.886C100.598 142.816 100.688 142.746 100.788 142.676L100.768 150.496C100.678 150.566 100.588 150.636 100.488 150.706Z" fill="#DFDFDF"/>
<path d="M100.489 150.705C100.489 150.705 100.469 150.715 100.469 150.725L100.489 142.905C100.489 142.905 100.509 142.895 100.509 142.885C100.509 145.495 100.499 148.095 100.489 150.705Z" fill="#DFDFDF"/>
<path d="M95.1289 155.744C95.1989 155.654 95.2789 155.574 95.3589 155.484C95.2789 155.574 95.2089 155.654 95.1289 155.744Z" fill="#DFDFDF"/>
<path d="M197.649 152.345C197.649 152.345 197.589 152.295 197.559 152.265L197.579 144.445C197.579 144.445 197.639 144.495 197.669 144.525C197.669 147.135 197.659 149.735 197.649 152.345Z" fill="#DFDFDF"/>
<path d="M197.648 152.345C197.648 149.735 197.658 147.135 197.668 144.525C197.738 144.585 197.808 144.645 197.878 144.705C197.878 147.315 197.868 149.915 197.858 152.525C197.788 152.465 197.718 152.405 197.648 152.345Z" fill="#DFDFDF"/>
<path d="M197.859 152.525C197.859 149.915 197.869 147.315 197.879 144.705C197.879 144.705 197.879 144.705 197.889 144.715L197.869 152.535H197.859V152.525Z" fill="#DFDFDF"/>
<path d="M198.439 153.056C198.439 153.056 198.379 153.006 198.359 152.976L198.379 145.156C198.379 145.156 198.439 145.206 198.459 145.236C198.459 147.846 198.449 150.446 198.439 153.056Z" fill="#DFDFDF"/>
<path d="M198.441 153.054C198.441 150.444 198.451 147.844 198.461 145.234C198.541 145.314 198.631 145.384 198.711 145.464C198.711 148.074 198.701 150.674 198.691 153.284C198.611 153.204 198.531 153.134 198.441 153.054Z" fill="#DFDFDF"/>
<path d="M198.68 153.285C198.68 150.675 198.69 148.075 198.7 145.465L198.68 153.285Z" fill="#DFDFDF"/>
<path d="M97.5078 153.256C97.5078 150.646 97.5178 148.046 97.5278 145.436L97.5078 153.256Z" fill="#DFDFDF"/>
<path d="M97.1992 153.556C97.1992 150.946 97.2092 148.346 97.2192 145.736C97.3192 145.636 97.4292 145.536 97.5292 145.436C97.5292 148.046 97.5192 150.646 97.5092 153.256C97.3992 153.356 97.2992 153.456 97.1992 153.556Z" fill="#DFDFDF"/>
<path d="M97.1997 153.554C97.1997 153.554 97.1797 153.564 97.1797 153.574L97.1997 145.754C97.1997 145.754 97.2197 145.744 97.2197 145.734C97.2197 148.344 97.2097 150.944 97.1997 153.554Z" fill="#DFDFDF"/>
<path d="M96.8083 146.145L96.7883 153.965C96.6883 154.065 96.5883 154.165 96.4883 154.265L96.5083 146.445C96.6083 146.345 96.7083 146.245 96.8083 146.145Z" fill="#DFDFDF"/>
<path d="M96.3789 146.585C96.3789 146.585 96.4689 146.495 96.5089 146.445C96.4689 146.495 96.4189 146.535 96.3789 146.585Z" fill="#DFDFDF"/>
<path d="M96.5094 146.445L96.4894 154.265C96.4894 154.265 96.3994 154.355 96.3594 154.405L96.3794 146.585C96.3794 146.585 96.4694 146.495 96.5094 146.445Z" fill="#DFDFDF"/>
<path d="M96.3792 146.586L96.3592 154.406C96.3092 154.466 96.2492 154.516 96.1992 154.576L96.2192 146.756C96.2692 146.696 96.3292 146.646 96.3792 146.586Z" fill="#DFDFDF"/>
<path d="M96.2191 146.756L96.1991 154.576C96.1491 154.636 96.0891 154.686 96.0391 154.746L96.0591 146.926C96.1091 146.866 96.1691 146.816 96.2191 146.756Z" fill="#DFDFDF"/>
<path d="M96.058 146.926L96.038 154.746C96.038 154.746 95.958 154.836 95.918 154.876L95.938 147.056C95.938 147.056 96.018 146.966 96.058 146.926Z" fill="#DFDFDF"/>
<path d="M95.9309 147.055L95.9109 154.875C95.8409 154.945 95.7809 155.025 95.7109 155.095L95.7309 147.275C95.8009 147.205 95.8609 147.125 95.9309 147.055Z" fill="#DFDFDF"/>
<path d="M95.7289 147.275L95.7089 155.095C95.7089 155.095 95.6589 155.155 95.6289 155.175L95.6489 147.355C95.6489 147.355 95.6989 147.295 95.7289 147.275Z" fill="#DFDFDF"/>
<path d="M95.6484 147.365L95.6284 155.185C95.5484 155.265 95.4784 155.355 95.3984 155.435L95.4184 147.615C95.4884 147.535 95.5684 147.445 95.6484 147.365Z" fill="#DFDFDF"/>
<path d="M95.4294 147.615L95.4094 155.435C95.4094 155.435 95.3794 155.475 95.3594 155.485L95.3794 147.665C95.3794 147.665 95.4094 147.625 95.4294 147.615Z" fill="#DFDFDF"/>
<path d="M95.3789 147.676L95.3589 155.496C95.2789 155.586 95.2089 155.666 95.1289 155.756L95.1489 147.936C95.2189 147.846 95.2989 147.766 95.3789 147.676Z" fill="#DFDFDF"/>
<path d="M95.1616 147.926L95.1416 155.746C95.1416 155.746 95.1116 155.776 95.1016 155.796L95.1216 147.976C95.1216 147.976 95.1516 147.946 95.1616 147.926Z" fill="#DFDFDF"/>
<path d="M95.1116 147.975L95.0916 155.795C95.0116 155.885 94.9316 155.975 94.8516 156.075L94.8716 148.255C94.9516 148.165 95.0316 148.065 95.1116 147.975Z" fill="#DFDFDF"/>
<path d="M94.8798 148.256L94.8598 156.076C94.8598 156.076 94.8398 156.096 94.8398 156.106L94.8598 148.286C94.8598 148.286 94.8798 148.266 94.8798 148.256Z" fill="#DFDFDF"/>
<path d="M94.8516 148.285L94.8316 156.105C94.7516 156.195 94.6816 156.295 94.6016 156.385L94.6216 148.565C94.7016 148.475 94.7716 148.375 94.8516 148.285Z" fill="#DFDFDF"/>
<path d="M94.6203 148.564L94.6003 156.384C94.6003 156.384 94.5803 156.404 94.5703 156.414L94.5903 148.594C94.5903 148.594 94.6103 148.574 94.6203 148.564Z" fill="#DFDFDF"/>
<path d="M94.3594 148.886C94.4394 148.786 94.5194 148.696 94.5894 148.596C94.5094 148.696 94.4294 148.786 94.3594 148.886Z" fill="#DFDFDF"/>
<path d="M94.5898 148.596L94.5698 156.416C94.4898 156.516 94.4098 156.606 94.3398 156.706L94.3598 148.886C94.4398 148.786 94.5198 148.696 94.5898 148.596Z" fill="#DFDFDF"/>
<path d="M94.3603 148.885L94.3403 156.705C94.3403 156.705 94.3303 156.715 94.3203 156.725L94.3403 148.905C94.3403 148.905 94.3503 148.895 94.3603 148.885Z" fill="#DFDFDF"/>
<path d="M93.4297 157.916C93.4297 155.306 93.4397 152.706 93.4497 150.096C93.7397 149.696 94.0297 149.306 94.3497 148.906L94.3297 156.726C94.0197 157.116 93.7197 157.516 93.4297 157.916Z" fill="#DFDFDF"/>
<path d="M92 160.116C92 157.506 92.01 154.906 92.02 152.296C92.45 151.556 92.93 150.816 93.45 150.086C93.45 152.696 93.44 155.296 93.43 157.906C92.91 158.636 92.43 159.366 92 160.116Z" fill="#DFDFDF"/>
<path d="M114.738 152.796C114.858 152.666 114.988 152.536 115.118 152.406C114.988 152.536 114.868 152.666 114.738 152.796Z" fill="#DFDFDF"/>
<path d="M110.828 166.886C110.868 166.756 110.918 166.636 110.958 166.506C110.908 166.636 110.868 166.756 110.828 166.886Z" fill="#DFDFDF"/>
<path d="M90.5898 162.925C90.5898 160.315 90.5998 157.715 90.6098 155.105C91.0098 154.155 91.4698 153.225 92.0098 152.295C92.0098 154.905 91.9998 157.505 91.9898 160.115C91.4498 161.045 90.9798 161.975 90.5898 162.925Z" fill="#DFDFDF"/>
<path d="M112.508 155.636C112.568 155.536 112.638 155.436 112.708 155.336C112.638 155.436 112.578 155.536 112.508 155.636Z" fill="#DFDFDF"/>
<path d="M112.449 155.745C112.449 155.745 112.499 155.675 112.519 155.635C112.499 155.675 112.469 155.705 112.449 155.745Z" fill="#DFDFDF"/>
<path d="M112.258 156.056C112.318 155.956 112.388 155.846 112.448 155.746C112.388 155.846 112.318 155.946 112.258 156.056Z" fill="#DFDFDF"/>
<path d="M111.57 157.336C111.62 157.226 111.68 157.116 111.74 156.996C111.68 157.106 111.63 157.216 111.57 157.336Z" fill="#DFDFDF"/>
<path d="M89.7812 165.215C89.7812 162.605 89.8012 160.005 89.8012 157.395C90.0312 156.625 90.3012 155.865 90.6212 155.115C90.6212 157.725 90.6112 160.325 90.6012 162.935C90.2812 163.695 90.0113 164.455 89.7812 165.215Z" fill="#DFDFDF"/>
<path d="M111.18 158.196C111.23 158.076 111.28 157.956 111.33 157.846C111.28 157.966 111.23 158.086 111.18 158.196Z" fill="#DFDFDF"/>
<path d="M111.008 158.626C111.058 158.506 111.098 158.386 111.148 158.266C111.098 158.386 111.048 158.506 111.008 158.626Z" fill="#DFDFDF"/>
<path d="M110.711 159.515C110.751 159.385 110.791 159.245 110.841 159.115C110.801 159.245 110.751 159.385 110.711 159.515Z" fill="#DFDFDF"/>
<path d="M181.369 152.586C181.289 152.496 181.209 152.426 181.139 152.356C181.049 152.266 180.979 152.196 180.909 152.126C180.819 152.036 180.739 151.966 180.669 151.896C180.559 151.796 180.489 151.726 180.419 151.666C180.309 151.566 180.239 151.506 180.169 151.436C180.049 151.326 179.979 151.266 179.909 151.206C179.789 151.106 179.719 151.046 179.649 150.986C175.279 147.916 175.159 147.846 175.049 147.776C160.139 139.166 136.039 139.166 121.219 147.776C121.109 147.846 120.989 147.906 120.879 147.976C115.759 151.776 115.699 151.846 115.629 151.906C115.519 152.016 115.449 152.076 115.379 152.146C115.279 152.246 115.209 152.316 115.139 152.386C112.779 154.786 111.269 157.386 110.589 160.046C110.589 160.026 110.589 159.996 110.589 159.976C110.539 160.166 110.499 160.356 110.459 160.536C110.419 160.736 110.379 160.936 110.339 161.136C110.339 161.176 110.339 161.226 110.339 161.266C110.339 161.266 110.339 161.176 110.339 161.136C110.309 161.316 110.289 161.496 110.269 161.676C110.259 161.766 110.239 161.866 110.229 161.956C110.189 162.386 110.149 162.816 110.149 163.256L110.129 171.076C110.129 171.076 110.129 171.046 110.129 171.036V171.086C110.129 170.656 110.159 170.216 110.209 169.786C110.209 169.696 110.229 169.596 110.249 169.506C110.659 166.286 112.269 163.106 115.119 160.216C115.189 160.146 115.259 160.076 115.359 159.976C115.429 159.906 115.499 159.846 115.609 159.736C115.679 159.676 115.739 159.606 120.859 155.806C120.969 155.736 121.089 155.676 121.199 155.606C136.019 146.996 160.119 146.996 175.029 155.606C175.149 155.676 175.259 155.736 179.629 158.816C179.699 158.876 179.769 158.936 179.889 159.036C179.959 159.096 180.029 159.156 180.149 159.266C180.219 159.326 180.289 159.396 180.399 159.496C180.469 159.556 180.539 159.626 180.649 159.726C180.719 159.796 180.789 159.866 180.889 159.956C180.959 160.026 181.039 160.106 181.119 160.186C181.189 160.256 181.269 160.336 181.349 160.416C184.629 163.786 186.269 167.546 186.259 171.306L186.279 163.486C186.289 159.726 184.649 155.966 181.369 152.596V152.586Z" fill="#1196C3"/>
<path d="M207.46 171.346C207.48 165.506 204.94 159.656 199.84 154.416L199.86 146.596C204.96 151.836 207.5 157.686 207.48 163.526C207.48 165.876 207.46 168.996 207.46 171.346Z" fill="#DFDFDF"/>
<path d="M110.289 173.126C110.179 172.446 110.129 171.766 110.129 171.086L110.149 163.266C110.149 163.946 110.199 164.626 110.309 165.306C110.309 167.916 110.299 170.516 110.289 173.126Z" fill="#DFDFDF"/>
<path d="M110.291 173.125C110.271 172.885 110.291 172.555 110.291 172.305C110.291 172.175 110.291 172.005 110.291 171.875C110.291 171.745 110.291 171.565 110.291 171.435C110.291 170.835 110.291 170.225 110.291 169.625C110.291 168.465 110.291 167.295 110.301 166.135C110.301 165.855 110.301 165.585 110.301 165.305C110.361 165.715 110.451 166.115 110.551 166.515C110.551 169.125 110.541 171.725 110.531 174.335C110.431 173.935 110.341 173.525 110.281 173.115L110.291 173.125Z" fill="#DFDFDF"/>
<path d="M110.54 174.335C110.52 174.165 110.54 173.995 110.54 173.825C110.54 173.655 110.54 173.485 110.54 173.315C110.54 171.055 110.55 168.785 110.56 166.525C110.98 168.165 111.71 169.785 112.77 171.355C112.77 173.965 112.76 176.565 112.75 179.175C111.69 177.605 110.96 175.985 110.54 174.345V174.335Z" fill="#DFDFDF"/>
<path d="M112.749 179.166C112.699 179.006 112.749 178.776 112.749 178.606C112.749 177.996 112.749 177.386 112.749 176.776C112.749 175.976 112.749 175.186 112.749 174.386C112.749 173.376 112.749 172.356 112.749 171.346C113.109 171.876 113.499 172.396 113.919 172.906C113.919 175.516 113.909 178.116 113.899 180.726C113.469 180.216 113.079 179.696 112.729 179.166H112.749Z" fill="#DFDFDF"/>
<path d="M113.918 180.726C113.918 180.726 113.918 180.696 113.918 180.676C113.918 180.556 113.918 180.436 113.918 180.316C113.918 180.176 113.918 180.046 113.918 179.906C113.918 177.576 113.928 175.246 113.938 172.906C115.498 174.786 117.548 176.556 120.078 178.166L120.058 185.986C117.528 184.376 115.478 182.596 113.918 180.726Z" fill="#DFDFDF"/>
<path d="M105.13 186.855C104.72 186.605 104.33 186.335 103.93 186.075C103.56 185.835 103.19 185.585 102.83 185.345C102.39 185.045 101.96 184.735 101.54 184.425C101.17 184.145 100.81 183.865 100.46 183.585C99.8497 183.105 99.2597 182.615 98.6897 182.115C98.3697 181.835 98.0597 181.555 97.7597 181.275C97.4197 180.955 97.0897 180.635 96.7697 180.305C96.4497 179.985 96.1497 179.655 95.8497 179.325C95.4097 178.845 94.9997 178.365 94.6097 177.885C94.3497 177.555 94.0797 177.235 93.8397 176.905C93.5997 176.585 93.3697 176.265 93.1497 175.945C92.8797 175.555 92.6297 175.155 92.3897 174.765C92.1297 174.335 91.8797 173.905 91.6497 173.465C91.4397 173.075 91.2397 172.695 91.0597 172.305C90.9197 171.995 90.7797 171.695 90.6497 171.385C90.4497 170.915 90.2797 170.445 90.1097 169.965C89.8897 169.315 89.6897 168.665 89.5297 168.015C89.5297 167.975 89.5097 167.945 89.4997 167.905C89.4297 167.625 89.3897 167.355 89.3397 167.075C89.4697 166.445 89.6097 165.825 89.7897 165.205C89.7897 162.595 89.8097 159.995 89.8097 157.385C89.5197 158.345 89.3097 159.315 89.1697 160.285C89.0597 161.055 88.9897 161.825 88.9597 162.595C88.9597 162.795 88.9597 162.985 88.9497 163.185V163.385C88.9497 163.325 88.9497 163.255 88.9497 163.195L88.9297 171.015C88.9297 172.065 89.0197 173.125 89.1797 174.175C89.1797 174.195 89.1797 174.215 89.1797 174.225C89.2597 174.725 89.3597 175.225 89.4797 175.725C89.4797 175.755 89.4997 175.795 89.5097 175.825C89.5697 176.075 89.6197 176.325 89.6897 176.585C89.6897 176.555 89.6897 176.525 89.6897 176.495C89.6897 176.495 89.6897 176.555 89.6897 176.585C89.7597 176.815 89.8197 177.055 89.8997 177.285C89.9497 177.455 90.0297 177.615 90.0897 177.775C90.2497 178.245 90.4297 178.725 90.6297 179.195C90.7597 179.505 90.8997 179.805 91.0397 180.115C91.2197 180.505 91.4197 180.895 91.6297 181.275C91.8597 181.705 92.1097 182.145 92.3697 182.575C92.6097 182.975 92.8597 183.365 93.1297 183.755C93.3497 184.075 93.5797 184.395 93.8197 184.715C94.0697 185.045 94.3297 185.375 94.5897 185.695C94.9797 186.185 95.3997 186.665 95.8297 187.135C96.1297 187.465 96.4297 187.795 96.7497 188.115C97.0697 188.435 97.3997 188.765 97.7397 189.085C98.0397 189.365 98.3497 189.645 98.6697 189.925C99.2297 190.425 99.8197 190.915 100.44 191.395C100.8 191.675 101.15 191.955 101.52 192.235C101.94 192.545 102.37 192.845 102.81 193.155C103.17 193.405 103.54 193.645 103.91 193.885C104.26 194.115 104.59 194.355 104.95 194.575C104.95 194.575 104.95 194.565 104.95 194.555C105 194.585 105.05 194.625 105.11 194.655L105.13 186.835V186.855Z" fill="#1196C3"/>
<path d="M120.079 178.166L120.059 185.986L105.109 194.676L105.129 186.856L120.079 178.166Z" fill="#1196C3"/>
<path d="M191.09 194.965C191.09 192.355 191.1 189.755 191.11 187.145C191.11 189.755 191.1 192.355 191.09 194.965Z" fill="#DFDFDF"/>
<path d="M207.361 173.215C207.411 172.695 207.441 172.165 207.451 171.635C207.451 171.535 207.471 171.445 207.471 171.345L207.491 163.525C207.491 163.525 207.491 163.565 207.491 163.595V163.525C207.491 163.625 207.481 163.715 207.481 163.815C207.481 164.345 207.441 164.865 207.391 165.395C207.371 165.645 207.331 165.885 207.301 166.135C207.251 166.535 207.181 166.935 207.111 167.325C207.041 167.665 206.981 168.015 206.901 168.355C206.901 168.375 206.901 168.385 206.891 168.405C206.771 168.895 206.631 169.375 206.471 169.865C206.441 169.955 206.411 170.035 206.381 170.125C206.241 170.555 206.081 170.975 205.901 171.405C205.871 171.495 205.831 171.575 205.801 171.665C205.601 172.145 205.381 172.625 205.141 173.105C205.141 173.115 205.141 173.125 205.121 173.135C204.601 174.155 204.001 175.165 203.321 176.155C203.281 176.205 203.251 176.255 203.211 176.315C202.911 176.755 202.591 177.185 202.251 177.615C202.201 177.685 202.141 177.755 202.091 177.825C201.741 178.265 201.371 178.705 200.991 179.135C200.951 179.185 200.901 179.235 200.861 179.285C199.581 180.715 198.111 182.105 196.451 183.435C196.411 183.465 196.381 183.495 196.341 183.525C195.811 183.955 195.251 184.375 194.681 184.795C194.661 184.815 194.631 184.825 194.611 184.845C193.401 185.725 192.101 186.575 190.711 187.405L190.691 195.225C190.831 195.145 190.961 195.055 191.101 194.965C191.101 194.965 191.101 194.975 191.101 194.985C192.331 194.235 193.491 193.465 194.591 192.675C194.621 192.655 194.641 192.635 194.661 192.615C195.231 192.205 195.781 191.785 196.311 191.355C196.351 191.325 196.391 191.295 196.431 191.265C198.081 189.935 199.551 188.545 200.841 187.115C200.881 187.065 200.931 187.015 200.971 186.965C201.121 186.795 201.281 186.625 201.431 186.455C201.521 186.345 201.611 186.235 201.701 186.135C201.831 185.975 201.951 185.815 202.071 185.665C202.121 185.595 202.181 185.525 202.231 185.455C202.571 185.025 202.881 184.595 203.191 184.155C203.231 184.105 203.261 184.055 203.301 183.995C203.981 183.005 204.581 181.995 205.101 180.975C205.101 180.965 205.101 180.955 205.121 180.945C205.361 180.465 205.581 179.985 205.781 179.505C205.821 179.415 205.851 179.335 205.891 179.245C206.061 178.825 206.221 178.395 206.371 177.975C206.401 177.885 206.431 177.795 206.461 177.705C206.621 177.225 206.761 176.735 206.881 176.255C206.881 176.235 206.881 176.225 206.891 176.205C206.901 176.145 206.921 176.095 206.941 176.035C206.951 175.985 206.961 175.935 206.971 175.885C206.991 175.805 207.001 175.735 207.021 175.655C207.021 175.655 207.021 175.645 207.021 175.635C207.021 175.605 207.021 175.575 207.021 175.535C207.021 175.535 207.021 175.595 207.021 175.635C207.051 175.485 207.071 175.325 207.101 175.175C207.181 174.775 207.241 174.375 207.291 173.985C207.321 173.735 207.361 173.495 207.381 173.245L207.361 173.215Z" fill="#1196C3"/>
<path d="M190.731 187.375C190.731 189.985 190.721 192.585 190.711 195.195C190.841 195.115 190.961 195.045 191.091 194.965C191.091 192.355 191.101 189.755 191.111 187.145C190.991 187.225 190.861 187.295 190.731 187.375Z" fill="#EA5E7A"/>
<path d="M189.991 139.085C190.171 139.185 190.351 139.295 190.531 139.395C190.861 139.595 190.961 139.655 191.061 139.715C191.341 139.885 191.461 139.965 191.591 140.035C191.801 140.165 191.951 140.265 192.101 140.355C192.41 140.555 192.511 140.615 192.601 140.675C192.69 140.735 192.791 140.795 192.881 140.855C193.421 141.215 193.511 141.275 193.591 141.335C193.681 141.395 193.771 141.455 193.851 141.515C194.16 141.735 194.261 141.805 194.361 141.875C194.641 142.075 194.741 142.145 194.841 142.225C195.101 142.415 195.201 142.495 195.291 142.565C195.561 142.765 195.661 142.845 195.761 142.925C196.001 143.115 196.111 143.205 196.211 143.285C196.441 143.465 196.55 143.555 196.66 143.645C196.87 143.825 196.991 143.915 197.101 144.005C197.3 144.175 197.411 144.265 197.521 144.365C197.701 144.525 197.8 144.615 197.91 144.705C198.11 144.885 198.221 144.985 198.331 145.085C198.511 145.245 198.621 145.355 198.731 145.455C198.891 145.605 199.011 145.715 199.121 145.825C199.271 145.975 199.391 146.085 199.501 146.205C199.641 146.345 199.76 146.465 199.881 146.585C212.501 159.565 209.451 176.245 190.711 187.365L175.671 178.685C187.571 171.535 189.471 160.865 181.381 152.575C181.3 152.485 181.221 152.415 181.151 152.345C181.061 152.255 180.991 152.185 180.91 152.115C180.821 152.025 180.741 151.955 180.671 151.885C180.561 151.785 180.491 151.715 180.421 151.655C180.311 151.555 180.241 151.495 180.171 151.425C180.051 151.315 179.98 151.255 179.91 151.195C179.79 151.095 179.721 151.025 179.651 150.975C175.281 147.905 175.161 147.835 175.051 147.765C160.141 139.155 136.041 139.155 121.221 147.765C121.111 147.835 120.991 147.895 120.881 147.965C115.761 151.765 115.701 151.835 115.631 151.895C115.521 152.005 115.451 152.065 115.381 152.135C115.281 152.235 115.211 152.305 115.141 152.375C107.121 160.515 108.791 170.965 120.091 178.155L105.141 186.845C86.8305 175.595 84.0305 158.965 96.8205 146.135C96.9505 146.005 97.0605 145.895 97.1805 145.775C97.3205 145.645 97.4305 145.535 97.5405 145.425C97.6905 145.275 97.8005 145.175 97.9105 145.075C98.0805 144.925 98.1805 144.825 98.2905 144.725C98.4705 144.565 98.5805 144.465 98.6905 144.375C98.8805 144.215 98.9805 144.125 99.0905 144.025C99.3005 143.845 99.4005 143.765 99.5005 143.675C99.7205 143.495 99.8205 143.415 99.9205 143.335C100.151 143.155 100.251 143.075 100.351 142.995C100.591 142.805 100.691 142.735 100.791 142.655C101.041 142.465 101.141 142.395 101.231 142.315C101.491 142.125 101.591 142.055 101.681 141.985C101.951 141.785 102.051 141.715 102.141 141.655C102.431 141.455 102.521 141.385 102.611 141.325C102.921 141.115 103.011 141.055 103.091 140.995C103.401 140.785 103.491 140.725 103.581 140.665C103.661 140.605 103.751 140.555 103.831 140.495C104.181 140.265 104.291 140.195 104.401 140.125C104.681 139.945 104.791 139.875 104.911 139.805C105.211 139.625 105.331 139.555 105.441 139.485C105.791 139.275 105.971 139.175 106.141 139.065C129.221 125.655 166.751 125.655 189.971 139.065L189.991 139.085Z" fill="#86E563"/>
<path d="M190.699 187.385L190.669 195.205L175.629 186.515L175.649 178.695L190.699 187.385Z" fill="#1196C3"/>
<path d="M236.02 49.8066L257.55 62.2566C259.41 63.3266 260.91 65.9266 260.9 68.0566L260.86 80.7366" stroke="#F9FBFC" stroke-width="0.78" stroke-miterlimit="10"/>
<path d="M257.428 103.257L179.768 58.3568C177.908 57.2868 176.418 54.6868 176.418 52.5468L176.508 19.2668C176.508 17.1368 178.018 16.2768 179.878 17.3468L204.358 31.4968" stroke="#F9FBFC" stroke-width="0.78" stroke-miterlimit="10"/>
<path d="M107.211 84.4572V85.9772C107.211 86.8772 108.181 87.4372 108.961 86.9872L116.151 82.8472C116.511 82.6372 116.731 82.2572 116.731 81.8372V80.3172C116.731 79.4172 115.761 78.8572 114.981 79.3072L107.791 83.4472C107.431 83.6572 107.211 84.0372 107.211 84.4572Z" fill="#F2F9FF"/>
<path d="M84.4492 105.047V106.567C84.4492 107.467 85.4192 108.028 86.1892 107.578L116.129 90.4175C116.489 90.2075 116.719 89.8275 116.719 89.4075V87.8875C116.719 86.9875 115.749 86.4275 114.979 86.8775L85.0392 104.038C84.6792 104.247 84.4492 104.627 84.4492 105.047Z" fill="#F2F9FF"/>
<g opacity="0.53">
<path d="M96.7891 113.106V114.626C96.7891 115.526 97.7591 116.086 98.5291 115.636L116.129 105.546C116.489 105.336 116.719 104.956 116.719 104.536V103.016C116.719 102.116 115.749 101.556 114.979 102.006L97.3791 112.096C97.0191 112.306 96.7891 112.686 96.7891 113.106Z" fill="#F2F9FF"/>
</g>
<path d="M89.0898 109.958V111.478C89.0898 112.378 90.0598 112.938 90.8298 112.488L116.13 97.9878C116.49 97.7778 116.72 97.3978 116.72 96.9778V95.4578C116.72 94.5578 115.75 93.9978 114.98 94.4478L89.6798 108.948C89.3198 109.158 89.0898 109.538 89.0898 109.958Z" fill="#F2F9FF"/>
<path d="M250.439 64.9873C252.299 66.0573 253.799 68.6573 253.789 70.7873L253.699 104.067C253.699 106.197 252.179 107.067 250.319 105.987L172.659 61.0873C170.799 60.0173 169.309 57.4173 169.309 55.2773L169.399 21.9973C169.399 19.8673 170.909 19.0073 172.769 20.0773L250.429 64.9773L250.439 64.9873Z" fill="#86E563"/>
<path d="M184.88 39.0772V40.3472C184.88 41.0972 184.07 41.5672 183.42 41.1872L177.42 37.7272C177.12 37.5572 176.93 37.2372 176.93 36.8872V35.6172C176.93 34.8672 177.74 34.3972 178.39 34.7772L184.39 38.2372C184.69 38.4072 184.88 38.7272 184.88 39.0772Z" fill="#F9FBFC"/>
<path d="M203.87 56.2675V57.5375C203.87 58.2875 203.06 58.7575 202.41 58.3775L177.42 44.0475C177.12 43.8775 176.93 43.5575 176.93 43.2075V41.9375C176.93 41.1875 177.74 40.7175 178.39 41.0975L203.38 55.4275C203.68 55.5975 203.87 55.9175 203.87 56.2675Z" fill="#F9FBFC"/>
<g opacity="0.53">
<path d="M193.57 62.9981V64.2681C193.57 65.0181 192.76 65.4881 192.11 65.1081L177.42 56.6881C177.12 56.5181 176.93 56.1881 176.93 55.8481V54.5781C176.93 53.8281 177.74 53.3581 178.39 53.7381L193.08 62.1581C193.38 62.3281 193.57 62.6481 193.57 62.9981Z" fill="#F9FBFC"/>
</g>
<path d="M200.001 60.3676V61.6376C200.001 62.3876 199.191 62.8576 198.541 62.4776L177.431 50.3776C177.131 50.2076 176.941 49.8876 176.941 49.5376V48.2676C176.941 47.5176 177.751 47.0476 178.401 47.4276L199.511 59.5276C199.811 59.6976 200.001 60.0176 200.001 60.3676Z" fill="#F9FBFC"/>
<path d="M232.028 71.7865C232.108 71.8265 232.188 71.8965 232.288 71.9765C232.318 72.0065 232.358 72.0465 232.378 72.0765C232.958 72.8365 232.288 74.6165 231.568 74.1965C231.538 74.1865 231.518 74.1665 231.488 74.1465C231.458 74.1265 231.438 74.0965 231.418 74.0765C231.398 74.0465 231.368 74.0265 231.348 73.9965C231.188 73.7865 231.118 73.5265 231.108 73.2665C231.078 72.6565 231.318 72.0665 231.328 72.0365C231.328 72.0065 231.478 71.4665 232.018 71.7865H232.028Z" fill="#E6F4FF"/>
<path d="M231.36 74.0059C231.36 74.0059 231.4 74.0559 231.43 74.0859C231.62 75.3459 231.84 76.7859 232.03 77.9859C232.02 77.9859 230.97 79.3059 229.61 79.0759C229.37 79.0259 229.14 79.4659 229.13 79.4859L228.65 78.3859C228.6 78.3259 227.62 77.1959 227.47 76.0659V75.7459L227.43 75.0359C229.12 75.3059 231.02 75.0159 231.32 74.1259C231.33 74.0859 231.35 74.0459 231.36 74.0059Z" fill="#E6F4FF"/>
<path d="M232.017 77.9764L232.577 78.3964C232.607 78.5164 232.847 79.3864 232.687 80.0264C232.567 80.7264 231.097 82.0564 230.777 81.8764C230.777 81.8764 230.767 81.8764 230.757 81.8664C230.477 81.6064 229.947 80.2564 229.917 80.1864C229.737 80.1664 229.527 80.0764 229.317 79.9564C228.837 79.6864 228.417 79.2864 228.387 79.2664L227.227 79.4664C227.067 78.8264 227.107 77.4464 227.117 77.3764L227.277 75.9064L227.437 75.8164C227.437 75.9064 227.437 75.9864 227.457 76.0764C227.607 77.2064 228.587 78.3364 228.637 78.3964L229.117 79.4964C229.117 79.4964 229.357 79.0364 229.597 79.0864C230.957 79.3164 231.957 78.0564 232.007 77.9864L232.017 77.9764Z" fill="#AEC4E1"/>
<path d="M240.857 80.2162C240.837 86.9062 236.507 89.9562 230.907 87.6262C234.727 89.2062 237.957 88.2862 239.627 85.4162C238.197 82.8762 234.877 80.1262 232.587 78.4062L232.037 77.9862C231.847 76.7862 231.627 75.3362 231.437 74.0862C231.457 74.1062 231.487 74.1362 231.507 74.1562C231.537 74.1762 231.557 74.1962 231.587 74.2062C232.307 74.6262 232.977 72.8462 232.397 72.0762C232.837 71.2662 233.207 70.1362 232.857 69.2562C232.317 67.9062 231.467 67.2262 231.417 67.1862C231.417 67.1762 231.297 66.9062 230.157 64.8662C229.537 63.7462 228.567 62.7562 227.587 62.1962C226.787 61.7362 225.977 61.5562 225.357 61.8162C223.977 62.4062 224.997 65.2262 225.057 65.3662C224.997 65.6662 223.847 71.3062 224.837 73.6662C224.997 73.9662 225.287 74.2262 225.647 74.4362C226.137 74.7162 226.777 74.9162 227.447 75.0262L227.477 75.7362C225.657 75.1262 223.367 74.4462 222.117 74.3562C220.657 74.7362 220.617 75.6762 220.557 77.0962C222.467 80.7862 225.217 84.0962 228.327 86.1862C222.407 82.1962 217.777 73.8062 217.797 66.8562C217.817 59.5262 223.007 56.5662 229.387 60.2562C235.767 63.9462 240.917 72.8662 240.897 80.1962L240.857 80.2162Z" fill="#C7D8F2"/>
<path d="M227.567 62.1968C228.547 62.7568 229.517 63.7468 230.137 64.8668C231.277 66.9068 231.387 67.1668 231.397 67.1868C231.437 67.2268 232.297 67.9168 232.837 69.2568C233.187 70.1368 232.827 71.2668 232.377 72.0768C232.347 72.0368 232.317 72.0068 232.287 71.9768C232.197 71.8968 232.107 71.8268 232.027 71.7868C231.477 71.4668 231.337 72.0068 231.337 72.0368C231.327 72.0668 231.087 72.6568 231.117 73.2668L230.967 73.0168C230.947 72.9068 230.617 70.8068 230.677 69.6668C230.617 69.0168 229.777 67.6268 228.637 66.7668C228.547 66.6968 228.457 66.6368 228.377 66.5968C227.967 66.3668 227.687 66.3868 227.317 66.3668C226.947 66.3368 226.487 66.2668 225.717 65.8168C225.517 65.6968 225.287 65.5568 225.037 65.3768C224.987 65.2268 223.957 62.4068 225.337 61.8268C225.957 61.5668 226.767 61.7468 227.567 62.2068V62.1968Z" fill="#4B5CC0"/>
<path d="M229.349 58.5062C222.119 54.3362 216.239 57.6862 216.219 65.9862C216.199 74.2862 222.039 84.4062 229.269 88.5862C236.499 92.7562 242.379 89.4062 242.399 81.1062C242.419 72.7962 236.579 62.6762 229.359 58.5062H229.349ZM231.099 87.7062C231.099 87.7062 231.079 87.7062 231.069 87.6962C231.009 87.6762 230.959 87.6562 230.899 87.6262C230.899 87.6262 230.909 87.6262 230.919 87.6262C230.789 87.5762 230.649 87.5162 230.519 87.4562C230.389 87.3962 230.249 87.3362 230.089 87.2562C230.029 87.2262 229.979 87.1962 229.889 87.1562C229.829 87.1262 229.759 87.0862 229.659 87.0362C229.609 87.0062 229.559 86.9762 229.449 86.9262C229.389 86.8862 229.319 86.8562 229.259 86.8162C229.209 86.7862 229.149 86.7562 229.059 86.6962C229.019 86.6762 228.979 86.6462 228.889 86.5962C228.849 86.5762 228.819 86.5562 228.739 86.4962C228.699 86.4762 228.659 86.4462 228.589 86.3962C228.549 86.3662 228.509 86.3462 228.439 86.2962C228.389 86.2662 228.339 86.2262 228.289 86.1962C228.209 86.1362 228.119 86.0862 228.039 86.0262C228.029 86.0262 228.009 86.0062 227.999 85.9962C227.929 85.9462 227.859 85.8962 227.789 85.8462C227.759 85.8262 227.729 85.8062 227.699 85.7862C227.639 85.7462 227.589 85.7062 227.529 85.6662C227.459 85.6162 227.389 85.5562 227.319 85.5062C227.309 85.4962 227.289 85.4862 227.279 85.4762C221.849 81.2562 217.739 73.4362 217.759 66.8862C217.779 59.5562 222.969 56.5962 229.349 60.2862C235.729 63.9762 240.879 72.8962 240.859 80.2262C240.859 80.2762 240.859 80.3362 240.859 80.3862C240.859 80.3962 240.859 80.4162 240.859 80.4262C240.859 80.4662 240.859 80.5062 240.859 80.5362C240.859 80.5562 240.859 80.5862 240.859 80.6062C240.859 80.6362 240.859 80.6662 240.859 80.6962C240.859 80.7162 240.859 80.7362 240.859 80.7662C240.859 80.7962 240.859 80.8262 240.859 80.8562C240.859 80.8762 240.859 80.8962 240.859 80.9162C240.859 80.9462 240.859 80.9762 240.859 81.0062C240.859 81.0262 240.859 81.0462 240.859 81.0662C240.859 81.0962 240.859 81.1262 240.859 81.1562C240.859 81.1762 240.859 81.1962 240.859 81.2162C240.859 81.2462 240.859 81.2762 240.859 81.3062C240.859 81.3262 240.859 81.3562 240.859 81.3762C240.859 81.4062 240.859 81.4262 240.859 81.4562C240.859 81.4762 240.859 81.5062 240.859 81.5262C240.859 81.5462 240.859 81.5762 240.859 81.5962C240.859 81.6162 240.859 81.6462 240.859 81.6662C240.859 81.6962 240.859 81.7162 240.859 81.7462C240.859 81.7662 240.859 81.7862 240.859 81.8162C240.859 81.8462 240.859 81.8662 240.859 81.8962C240.859 81.9162 240.859 81.9362 240.859 81.9562C240.859 81.9862 240.859 82.0062 240.849 82.0362C240.849 82.0562 240.849 82.0762 240.849 82.0962C240.849 82.1262 240.849 82.1462 240.839 82.1762C240.839 82.1962 240.839 82.2162 240.839 82.2362C240.839 82.2662 240.839 82.2862 240.829 82.3162C240.829 82.3362 240.829 82.3562 240.819 82.3762C240.819 82.4062 240.819 82.4262 240.809 82.4462C240.809 82.4662 240.809 82.4862 240.799 82.5062C240.799 82.5262 240.799 82.5562 240.789 82.5762C240.789 82.5962 240.789 82.6162 240.779 82.6362C240.779 82.6562 240.779 82.6862 240.769 82.7062C240.769 82.7262 240.769 82.7462 240.759 82.7662C240.759 82.7962 240.749 82.8162 240.739 82.8462C240.739 82.8662 240.739 82.8862 240.729 82.9062C240.729 82.9362 240.719 82.9562 240.709 82.9862C240.709 83.0062 240.709 83.0262 240.699 83.0462C240.699 83.0662 240.689 83.0962 240.679 83.1162C240.679 83.1362 240.679 83.1562 240.669 83.1762C240.669 83.1962 240.659 83.2262 240.649 83.2462C240.649 83.2662 240.649 83.2862 240.639 83.2962C240.639 83.3262 240.629 83.3462 240.619 83.3762C240.619 83.3962 240.619 83.4062 240.609 83.4262C240.609 83.4562 240.599 83.4762 240.589 83.5062C240.589 83.5262 240.589 83.5362 240.579 83.5562C240.579 83.5862 240.559 83.6062 240.559 83.6362C240.559 83.6562 240.559 83.6662 240.549 83.6862C240.549 83.7162 240.529 83.7362 240.529 83.7662C240.529 83.7862 240.529 83.7962 240.519 83.8162C240.519 83.8462 240.499 83.8662 240.489 83.8962C240.489 83.9062 240.489 83.9262 240.479 83.9362C240.479 83.9662 240.459 83.9862 240.449 84.0162C240.449 84.0262 240.449 84.0462 240.439 84.0562C240.439 84.0862 240.419 84.1062 240.409 84.1362C240.409 84.1462 240.409 84.1562 240.399 84.1762C240.389 84.2062 240.379 84.2362 240.369 84.2562C240.369 84.2662 240.369 84.2762 240.359 84.2862C240.349 84.3162 240.339 84.3462 240.329 84.3762V84.4062C240.329 84.4062 240.299 84.4662 240.279 84.4962C240.279 84.4962 240.279 84.5062 240.279 84.5162C240.269 84.5462 240.249 84.5762 240.239 84.6062C240.239 84.6062 240.239 84.6162 240.239 84.6262C240.229 84.6562 240.209 84.6962 240.199 84.7262C240.199 84.7262 240.199 84.7262 240.199 84.7362C240.179 84.7662 240.169 84.8062 240.149 84.8362C240.129 84.8762 240.119 84.9062 240.099 84.9462C238.549 88.1562 235.249 89.2762 231.299 87.7162M231.569 87.8162C231.669 87.8562 231.779 87.8862 231.879 87.9262C231.779 87.8962 231.669 87.8562 231.569 87.8162ZM231.949 87.9462C231.949 87.9462 231.999 87.9662 232.029 87.9762C231.999 87.9762 231.979 87.9562 231.949 87.9462ZM231.419 87.7562C231.419 87.7562 231.479 87.7762 231.509 87.7962C231.479 87.7862 231.449 87.7762 231.419 87.7562ZM232.179 88.0162C232.179 88.0162 232.139 88.0062 232.119 87.9962C232.139 87.9962 232.159 88.0062 232.179 88.0162ZM232.329 88.0562C232.329 88.0562 232.349 88.0562 232.359 88.0562C232.349 88.0562 232.339 88.0562 232.329 88.0562ZM232.489 88.1062C232.489 88.1062 232.509 88.1062 232.519 88.1062C232.509 88.1062 232.499 88.1062 232.489 88.1062ZM231.209 87.6762C231.209 87.6762 231.249 87.6962 231.269 87.6962C231.269 87.6962 231.289 87.6962 231.299 87.7062C231.319 87.7062 231.339 87.7162 231.359 87.7262C231.309 87.7062 231.269 87.6862 231.219 87.6662L231.209 87.6762Z" fill="#E6F4FF"/>
<path d="M230.709 87.537C230.649 87.507 230.589 87.487 230.539 87.457C230.599 87.487 230.659 87.507 230.709 87.537Z" fill="#94C3FF"/>
<path d="M228.378 66.5972C228.458 66.6472 228.548 66.6972 228.638 66.7672C229.778 67.6272 230.618 69.0172 230.678 69.6672C230.618 70.8072 230.948 72.9072 230.968 73.0172L231.118 73.2672C231.128 73.5272 231.198 73.7872 231.358 73.9972C231.348 74.0372 231.328 74.0772 231.318 74.1172C231.018 75.0072 229.118 75.2972 227.428 75.0272C226.758 74.9172 226.118 74.7172 225.628 74.4372C225.268 74.2272 224.978 73.9672 224.818 73.6672C223.828 71.3072 224.978 65.6672 225.038 65.3672C225.288 65.5472 225.518 65.6872 225.718 65.8072C226.488 66.2472 226.948 66.3272 227.318 66.3572C227.688 66.3772 227.968 66.3572 228.378 66.5872V66.5972Z" fill="#E6F4FF"/>
<path d="M232.58 78.4067C234.88 80.1267 238.19 82.8767 239.62 85.4167C237.89 88.3767 234.52 89.2667 230.53 87.4667C230.39 87.4067 230.26 87.3367 230.12 87.2767C230.03 87.2367 229.98 87.2067 229.92 87.1767C229.82 87.1267 229.76 87.0967 229.7 87.0567C229.61 87.0067 229.56 86.9767 229.51 86.9567C229.49 86.9567 229.48 86.9367 229.46 86.9267C229.4 86.8867 229.33 86.8567 229.27 86.8167C229.22 86.7867 229.16 86.7567 229.11 86.7267C229.03 86.6767 228.99 86.6567 228.95 86.6367C228.93 86.6267 228.92 86.6167 228.9 86.6067C228.86 86.5867 228.83 86.5667 228.79 86.5367C228.77 86.5367 228.76 86.5167 228.74 86.5067C228.7 86.4867 228.66 86.4567 228.63 86.4367C228.55 86.3867 228.51 86.3567 228.46 86.3267C228.39 86.2767 228.34 86.2467 228.29 86.2167C225.18 84.1167 222.43 80.8067 220.52 77.1367C220.58 75.7067 220.62 74.7567 222.08 74.3867C223.33 74.4667 225.62 75.1567 227.44 75.7667V76.0867C227.44 75.9967 227.44 75.9067 227.44 75.8267L227.28 75.9167L227.12 77.3867C227.12 77.4567 227.08 78.8367 227.23 79.4767L228.39 79.2767C228.39 79.2767 228.84 79.6967 229.32 79.9667C229.53 80.0867 229.73 80.1767 229.92 80.1967C229.95 80.2667 230.48 81.6267 230.76 81.8767C231.1 82.0767 232.57 80.7367 232.69 80.0367C232.85 79.3867 232.61 78.5167 232.58 78.4167V78.4067Z" fill="#4B5CC0"/>
<path d="M179.72 114.268L179.76 128.238L160.36 139.438L160.32 125.468L179.72 114.268Z" fill="#CBDCEB"/>
<path d="M162.898 53.7474L164.428 52.5774L166.408 48.4374C166.408 48.4374 167.488 47.9874 167.758 47.8974C168.028 47.8074 170.098 48.2574 170.098 48.2574C170.098 48.2574 171.088 47.0874 171.358 46.9074C171.628 46.7274 172.708 45.5574 173.158 45.8274C173.608 46.0974 173.518 46.5474 173.248 46.9074C172.978 47.2674 172.078 48.1674 172.078 48.1674L171.088 50.5974L171.178 51.4974C171.178 51.4974 171.718 51.4974 171.898 52.0374C172.078 52.5774 172.078 53.1174 171.448 53.2974C170.818 53.4774 170.278 53.7474 170.278 53.7474C170.278 53.7474 169.018 54.6474 168.298 54.9174C167.578 55.1874 166.768 55.3674 166.768 55.3674L166.318 56.4474L162.898 53.7474Z" fill="#FF9554"/>
<path d="M171.898 52.0383C171.898 52.0383 171.878 52.0083 171.868 51.9883C171.498 51.9883 171.058 52.0283 170.798 52.1383C170.288 52.3583 169.568 53.3683 169.278 53.5783C168.988 53.7983 167.258 54.5883 166.468 53.8683C165.888 53.3383 164.608 53.0383 163.968 52.9183L162.898 53.7383L166.318 56.4383L166.768 55.3583C166.768 55.3583 167.578 55.1783 168.298 54.9083C169.018 54.6383 170.278 53.7383 170.278 53.7383C170.278 53.7383 170.818 53.4683 171.448 53.2883C172.078 53.1083 172.078 52.5683 171.898 52.0283V52.0383Z" fill="#FF8161"/>
<path d="M161.211 54.447L163.121 52.877C163.121 52.877 166.341 53.577 166.691 56.267L165.121 57.917L161.211 54.437V54.447Z" fill="#F9FBFC"/>
<path d="M150.84 62.9569L161.28 53.2969C161.28 53.2969 165.98 53.5569 166.5 57.4769L156.06 69.4769C156.06 69.4769 150.84 68.4369 150.84 62.9569Z" fill="#575973"/>
<path d="M171.327 116.938L171.997 119.728C171.997 119.728 172.867 123.388 172.767 123.868C172.667 124.348 172.287 124.248 172.287 124.248C172.287 124.248 170.937 125.208 170.267 125.208C169.597 125.208 167.957 125.398 167.477 125.018C166.997 124.638 166.807 123.478 166.707 122.898C166.607 122.318 167.187 122.028 167.187 122.028C167.187 122.028 167.087 121.358 167.287 120.388C167.477 119.428 167.667 118.948 167.667 118.948L167.567 117.988L171.317 116.928L171.327 116.938Z" fill="#FF9554"/>
<path d="M172.676 124.097C172.506 124.147 172.306 124.097 172.126 124.057C171.866 124.007 171.066 124.657 170.566 124.637C170.056 124.617 169.336 124.997 168.926 124.687C168.516 124.377 168.326 124.057 168.546 123.627C168.766 123.197 168.526 122.857 168.376 122.597C168.236 122.337 168.276 121.347 168.446 120.957C168.616 120.577 169.096 119.777 169.966 119.347C170.566 119.047 171.196 118.217 171.526 117.727L171.336 116.947L167.586 118.007L167.686 118.967C167.686 118.967 167.496 119.447 167.306 120.407C167.116 121.367 167.206 122.047 167.206 122.047C167.206 122.047 166.626 122.337 166.726 122.917C166.826 123.497 167.016 124.647 167.496 125.037C167.976 125.417 169.616 125.227 170.286 125.227C170.956 125.227 172.306 124.267 172.306 124.267C172.306 124.267 172.536 124.317 172.686 124.117L172.676 124.097Z" fill="#FF8161"/>
<path d="M165.897 116.578L166.687 118.598C166.687 118.598 167.917 119.178 169.357 118.818C170.797 118.458 171.807 117.088 171.807 117.088L171.227 115.498L165.887 116.578H165.897Z" fill="#F9FBFC"/>
<path d="M131.117 165.037L130.797 169.397C130.747 170.097 131.137 170.747 131.787 171.027C132.387 171.277 133.247 171.467 134.387 171.287C136.887 170.907 138.047 169.557 138.427 168.787C138.807 168.017 143.817 164.557 143.237 162.827C142.277 161.097 140.547 162.827 138.807 162.827C137.067 162.827 133.417 161.957 131.107 165.037H131.117Z" fill="#171E26"/>
<path d="M132.279 98.1784C132.279 98.1784 131.128 127.618 131.698 136.848C131.698 136.848 129.389 159.938 130.549 165.418C130.549 165.418 134.589 168.308 138.049 165.998C138.918 165.708 138.918 164.558 138.918 164.558C138.918 164.558 141.229 142.918 141.809 136.278C142.389 129.638 146.998 109.728 146.138 105.398C145.268 101.068 139.788 95.0084 132.288 98.1884L132.279 98.1784Z" fill="#171E26"/>
<path d="M150.889 171.198C150.889 171.198 149.299 176.108 150.459 177.258C151.609 178.408 153.059 178.698 154.119 178.368C155.179 178.028 156.189 177.548 156.189 177.548L156.529 176.538L156.909 177.208C156.909 177.208 157.489 177.108 158.259 176.678C159.029 176.248 161.239 175.378 162.159 174.798C163.069 174.218 164.709 173.208 164.849 171.958C164.949 170.708 160.469 171.138 159.269 171.188C158.069 171.238 157.299 170.758 156.859 170.758C156.419 170.758 151.759 171.338 151.759 171.338" fill="#171E26"/>
<path d="M158.198 97.6379C158.198 97.6379 159.408 102.038 159.408 110.888C159.408 119.738 158.638 142.058 158.638 142.058C158.638 142.058 158.258 164.758 157.868 170.528C157.868 170.528 155.178 173.988 150.558 171.298C148.248 168.608 149.018 166.678 149.018 166.678C149.018 166.678 145.938 152.828 147.098 140.128C147.098 140.128 142.868 114.348 142.098 111.268C141.328 108.188 127.908 106.858 133.148 91.8379L158.198 97.6379Z" fill="#1F2F3F"/>
<path d="M160.879 69.2774C160.959 67.3574 160.049 65.5474 158.449 64.4774C154.929 62.1274 150.129 59.1474 147.029 57.5074C143.179 55.4774 139.189 53.3274 137.049 53.1374C131.109 52.5874 127.529 58.1074 128.089 65.3774C128.429 69.7874 129.609 74.7074 131.209 79.7574C131.889 81.9074 132.349 85.7174 132.529 89.2274C132.499 90.9174 132.349 92.8374 131.879 93.9474C130.919 96.2574 129.959 105.487 129.959 105.487C129.959 105.487 136.499 112.217 144.969 112.797C153.439 113.377 156.709 111.647 156.709 111.647L157.289 107.797L158.439 111.257C158.439 111.257 159.979 110.677 160.169 109.137C160.339 107.747 158.799 95.8774 158.489 93.5674C158.979 88.7674 159.939 81.7174 160.239 78.5074C160.519 75.5574 160.749 72.1774 160.869 69.2774H160.879Z" fill="#63687A"/>
<path d="M154.648 51.2767C155.248 49.4167 155.448 41.8967 154.698 39.2767C153.738 35.9167 150.478 32.9867 145.578 33.2267C140.878 33.4567 137.418 35.5267 136.268 39.0367C135.588 41.1167 135.738 44.7467 136.998 47.3767C137.848 49.1567 139.778 50.7367 141.888 51.8467C143.368 52.6967 147.548 54.6267 149.608 55.2267C152.018 55.9267 153.788 53.9567 154.658 51.2667L154.648 51.2767Z" fill="#FF9554"/>
<path d="M140.806 49.9764C143.166 49.0364 148.566 50.0564 150.446 51.5964C150.446 51.5964 148.586 59.0864 148.566 59.0864C145.126 59.2664 140.236 57.5564 139.066 56.1464L140.806 49.9664V49.9764Z" fill="#FF9554"/>
<path d="M150.446 46.4669C149.466 45.1369 147.496 45.6069 147.496 47.7369C147.496 50.2069 149.176 51.6069 150.446 51.6069C150.446 50.0169 150.506 48.3669 150.446 46.4669Z" fill="#FF9554"/>
<path d="M139.779 53.8281C139.779 53.8281 142.569 56.2281 149.209 57.1981L150.459 59.4081C150.459 59.4081 147.669 60.2781 144.399 59.8881C141.129 59.5081 138.439 56.9081 138.149 56.3281L137.859 55.7481L139.779 53.8281Z" fill="#F9FBFC"/>
<path d="M158.447 64.4785C158.447 64.4785 158.657 64.6085 158.997 64.8585C159.977 65.5885 162.007 67.3685 162.867 70.0885C164.017 73.7485 166.327 91.2485 166.327 91.2485L172.097 115.299C172.097 115.299 171.137 117.989 167.287 117.799C165.247 117.799 164.597 116.069 164.597 116.069C164.597 116.069 159.597 97.7885 158.827 94.5185C158.057 91.2485 155.937 79.8985 154.977 75.8585C154.017 71.8185 154.217 65.6085 158.447 64.4785Z" fill="#63687A"/>
<path d="M134.59 40.7476C134.59 40.7476 133.96 34.9276 139.3 32.4776C144.64 30.0276 151.61 31.6576 154.36 35.4076C156.24 38.5776 153.64 41.1776 153.06 42.3376C152.48 43.4876 153.06 45.7976 152.48 46.6676C151.9 47.5376 152.62 48.8276 152.62 48.8276L151.61 49.6976C151.61 49.6976 150.6 47.8176 150.02 47.3876C149.44 46.9576 147.66 48.5376 148.05 50.0776C148.43 51.6176 149.88 52.4776 149.88 52.4776C149.88 52.4776 149.3 52.8576 148.73 53.2476C148.15 53.6276 147 53.9176 145.17 53.9176C143.34 53.9176 140.84 53.0476 139.88 52.4776C138.92 51.8976 136.03 49.7876 134.88 47.2876C133.73 44.7876 133.44 42.3776 134.59 40.7476Z" fill="#673E29"/>
<g opacity="0.41">
<path d="M236.638 104.486C238.078 105.316 239.238 107.326 239.228 108.976L239.158 134.716C239.158 136.366 237.988 137.036 236.548 136.206L176.488 101.476C175.048 100.646 173.898 98.6362 173.898 96.9862L173.968 71.2462C173.968 69.5962 175.138 68.9362 176.578 69.7562L236.638 104.486Z" fill="#C7D8F2"/>
</g>
<path d="M185.939 84.4556V85.4356C185.939 86.0156 185.309 86.3756 184.809 86.0856L180.169 83.4156C179.939 83.2856 179.789 83.0356 179.789 82.7656V81.7856C179.789 81.2056 180.419 80.8456 180.919 81.1356L185.559 83.8056C185.789 83.9356 185.939 84.1856 185.939 84.4556Z" fill="#F9FBFC"/>
<path d="M200.629 97.7465V98.7265C200.629 99.3065 200.009 99.6665 199.499 99.3765L180.169 88.2965C179.939 88.1665 179.789 87.9165 179.789 87.6465V86.6665C179.789 86.0865 180.409 85.7265 180.919 86.0165L200.249 97.0965C200.479 97.2265 200.629 97.4765 200.629 97.7465Z" fill="#F9FBFC"/>
<g opacity="0.53">
<path d="M192.659 102.956V103.936C192.659 104.516 192.039 104.876 191.529 104.586L180.169 98.0758C179.939 97.9458 179.789 97.6958 179.789 97.4258V96.4458C179.789 95.8658 180.409 95.5058 180.919 95.7958L192.279 102.306C192.509 102.436 192.659 102.686 192.659 102.956Z" fill="#F9FBFC"/>
</g>
<path d="M197.629 100.915V101.895C197.629 102.475 197.009 102.835 196.499 102.545L180.169 93.1852C179.939 93.0552 179.789 92.8052 179.789 92.5352V91.5552C179.789 90.9752 180.409 90.6152 180.919 90.9052L197.249 100.265C197.479 100.395 197.629 100.645 197.629 100.915Z" fill="#F9FBFC"/>
<path d="M218.377 100.996C220.577 102.266 222.347 105.336 222.347 107.866C222.347 107.986 222.347 108.116 222.337 108.226C222.347 108.226 222.247 108.916 222.097 109.786C222.227 109.676 222.397 109.606 222.577 109.706C222.657 109.756 222.747 109.836 222.827 109.976C223.297 110.756 222.377 112.386 222.017 112.196C221.877 112.116 221.757 111.986 221.657 111.836C221.527 112.346 221.377 112.806 221.237 113.106C221.147 113.236 220.967 113.336 220.737 113.406C220.827 114.296 221.037 115.406 221.537 116.236C222.237 117.376 223.907 118.936 225.137 120.306C225.117 120.326 225.097 120.336 225.067 120.346C225.017 120.376 224.967 120.406 224.917 120.436C224.857 120.466 224.807 120.496 224.757 120.526C224.697 120.556 224.647 120.576 224.597 120.606C224.537 120.636 224.487 120.656 224.437 120.676C224.377 120.706 224.327 120.726 224.277 120.736C224.207 120.766 224.157 120.776 224.107 120.796C224.047 120.816 223.987 120.836 223.937 120.846C223.697 120.916 223.467 120.956 223.227 120.986C223.177 120.986 223.147 120.986 223.107 120.996C223.077 120.996 223.057 120.996 223.027 120.996C222.997 120.996 222.967 120.996 222.937 120.996C222.897 120.996 222.867 120.996 222.827 120.996C222.797 120.996 222.777 120.996 222.747 120.996C222.707 120.996 222.667 120.996 222.627 120.996C222.597 120.996 222.577 120.996 222.547 120.996C222.507 120.996 222.467 120.996 222.417 120.996C222.397 120.996 222.367 120.996 222.347 120.996C222.307 120.996 222.257 120.996 222.217 120.996C222.197 120.996 222.167 120.996 222.147 120.996C222.097 120.996 222.057 120.996 222.007 120.986C221.987 120.986 221.967 120.986 221.937 120.986C221.887 120.986 221.847 120.976 221.797 120.966C221.777 120.966 221.747 120.966 221.727 120.956C221.677 120.956 221.637 120.946 221.587 120.936C221.567 120.936 221.537 120.936 221.517 120.926C221.467 120.926 221.427 120.906 221.377 120.896C221.347 120.896 221.327 120.886 221.297 120.876C221.247 120.876 221.197 120.856 221.157 120.846C221.137 120.846 221.107 120.836 221.087 120.826C221.037 120.816 220.987 120.806 220.947 120.786C220.917 120.786 220.897 120.776 220.867 120.766C220.817 120.756 220.767 120.736 220.727 120.726C220.697 120.726 220.677 120.706 220.647 120.706C220.597 120.696 220.547 120.676 220.507 120.666C220.477 120.666 220.457 120.646 220.427 120.636C220.377 120.616 220.327 120.606 220.277 120.586C220.247 120.586 220.227 120.566 220.197 120.556C220.147 120.536 220.097 120.516 220.047 120.496C220.017 120.486 219.997 120.476 219.967 120.466C219.917 120.446 219.867 120.426 219.817 120.406C219.787 120.396 219.767 120.386 219.737 120.376C219.687 120.356 219.637 120.336 219.597 120.316C219.567 120.306 219.537 120.286 219.507 120.276C219.457 120.256 219.407 120.226 219.357 120.206C219.327 120.196 219.297 120.176 219.277 120.166C219.227 120.146 219.177 120.116 219.127 120.086C219.097 120.076 219.067 120.056 219.047 120.046C218.997 120.016 218.937 119.986 218.887 119.956C218.857 119.946 218.837 119.926 218.807 119.916C218.727 119.876 218.647 119.826 218.567 119.786C218.487 119.736 218.407 119.696 218.327 119.646C218.297 119.626 218.267 119.616 218.247 119.596C218.197 119.566 218.147 119.536 218.097 119.496C218.067 119.476 218.037 119.456 218.007 119.436C217.957 119.406 217.907 119.376 217.867 119.346C217.837 119.326 217.807 119.306 217.777 119.286C217.727 119.256 217.677 119.226 217.637 119.186C217.607 119.166 217.577 119.146 217.547 119.116C217.497 119.086 217.457 119.046 217.407 119.016C217.377 118.996 217.347 118.966 217.317 118.946C217.267 118.916 217.227 118.876 217.177 118.846C217.147 118.826 217.117 118.796 217.087 118.776C217.037 118.736 216.997 118.706 216.947 118.666C216.917 118.646 216.887 118.616 216.857 118.596C216.817 118.556 216.767 118.526 216.727 118.486C216.697 118.456 216.667 118.436 216.627 118.406C216.587 118.366 216.537 118.336 216.497 118.296C216.467 118.266 216.437 118.236 216.397 118.216C216.357 118.176 216.317 118.146 216.277 118.106C216.247 118.076 216.207 118.046 216.177 118.016C216.137 117.976 216.097 117.946 216.057 117.906C216.027 117.876 215.987 117.846 215.957 117.806C215.927 117.776 215.887 117.736 215.857 117.706C215.817 117.666 215.777 117.636 215.737 117.596C215.707 117.566 215.687 117.546 215.657 117.516C215.607 117.476 215.567 117.426 215.517 117.386C215.507 117.376 215.487 117.356 215.477 117.346C214.117 115.976 212.907 114.336 211.957 112.566C213.167 112.656 214.687 112.966 215.357 112.646C215.837 112.416 216.057 111.626 216.157 110.876C215.847 110.456 215.607 110.066 215.487 109.766C215.337 109.296 215.207 108.676 215.077 108.016C214.977 108.046 214.857 108.046 214.727 107.966C214.367 107.746 213.467 105.056 213.927 104.816C214.007 104.776 214.097 104.786 214.177 104.836C214.357 104.936 214.527 105.216 214.657 105.476C214.497 104.416 214.407 103.666 214.407 103.626C214.407 103.506 214.407 103.376 214.407 103.256C214.407 100.726 216.197 99.7059 218.397 100.976L218.377 100.996Z" fill="#9B97F8"/>
<path d="M218.629 99.2256C223.569 102.076 227.569 108.996 227.549 114.676C227.549 117.386 226.619 119.326 225.129 120.296C223.899 118.926 222.219 117.366 221.529 116.226C221.019 115.396 220.819 114.286 220.729 113.396C220.959 113.326 221.139 113.236 221.229 113.096C221.379 112.796 221.529 112.346 221.649 111.826C221.749 111.966 221.869 112.106 222.009 112.186C222.369 112.376 223.289 110.746 222.819 109.966C222.739 109.826 222.649 109.746 222.569 109.696C222.389 109.596 222.219 109.666 222.089 109.776C222.249 108.906 222.339 108.256 222.349 108.216C222.349 108.096 222.349 107.966 222.349 107.846C222.349 105.316 220.579 102.246 218.379 100.976C216.179 99.7056 214.389 100.726 214.389 103.256C214.389 103.376 214.389 103.506 214.399 103.636C214.389 103.636 214.479 104.426 214.639 105.476C214.509 105.216 214.339 104.946 214.159 104.836C214.079 104.786 213.989 104.776 213.909 104.816C213.449 105.056 214.359 107.746 214.709 107.966C214.839 108.046 214.959 108.046 215.059 108.016C215.189 108.676 215.329 109.296 215.469 109.766C215.589 110.066 215.829 110.456 216.139 110.876C216.039 111.626 215.809 112.416 215.339 112.646C214.669 112.956 213.149 112.646 211.939 112.566C210.509 109.916 209.639 106.986 209.649 104.336C209.669 98.6556 213.689 96.3656 218.629 99.2156V99.2256Z" fill="#DEDFFF"/>
<path d="M111.118 34.497C107.918 32.637 103.488 32.897 98.5983 35.7269C88.8883 41.337 81.0383 54.917 81.0783 66.077C81.0983 71.627 83.0483 75.527 86.2083 77.357L90.0583 79.597C86.8983 77.757 84.9383 73.857 84.9283 68.317C84.8983 57.157 92.7383 43.5669 102.448 37.9669C107.338 35.1469 111.768 34.8769 114.968 36.7369L111.118 34.497Z" fill="#86E563"/>
<path d="M102.458 37.9574C92.7476 43.5674 84.8977 57.1474 84.9377 68.3074C84.9677 79.4674 92.8676 83.9774 102.578 78.3674C112.288 72.7574 120.138 59.1674 120.108 47.9974C120.078 36.8374 112.178 32.3374 102.458 37.9474V37.9574Z" fill="#2AB774"/>
<path d="M111.01 46.4668L113.91 48.1168L101.04 70.4068L94.9102 66.9068L97.7902 61.9268L101.02 63.7668L111.01 46.4668Z" fill="white"/>
<path d="M210.39 229.259L218.74 233.829C223.28 236.469 230.66 236.469 235.23 233.829L256.68 221.449C258.98 220.119 260.13 218.379 260.12 216.639V219.099C260.13 220.839 258.98 222.579 256.68 223.909L235.23 236.289C230.66 238.929 223.28 238.929 218.74 236.289L210.39 231.719C208.13 230.409 207.01 228.689 207 226.979V224.519C207 226.239 208.13 227.949 210.38 229.259H210.39Z" fill="#A7CFEE"/>
<path d="M210.441 219.71C205.871 222.35 205.851 226.62 210.391 229.26L218.741 233.83C223.281 236.47 230.661 236.47 235.231 233.83L256.681 221.45C261.251 218.81 261.271 214.54 256.731 211.9L248.381 207.33C243.841 204.69 236.461 204.69 231.891 207.33L210.441 219.71Z" fill="white"/>
<path d="M258.581 219.62L266.931 224.19C271.471 226.83 278.851 226.83 283.421 224.19L304.871 211.81C307.171 210.48 308.321 208.74 308.311 207V209.46C308.321 211.2 307.171 212.94 304.871 214.27L283.421 226.65C278.851 229.29 271.471 229.29 266.931 226.65L258.581 222.08C256.321 220.77 255.201 219.05 255.191 217.34V214.88C255.191 216.6 256.321 218.31 258.571 219.62H258.581Z" fill="#A7CFEE"/>
<path d="M258.633 210.071C254.063 212.711 254.043 216.981 258.583 219.621L266.933 224.191C271.473 226.831 278.853 226.831 283.423 224.191L304.873 211.811C309.443 209.171 309.463 204.901 304.923 202.261L296.573 197.691C292.033 195.051 284.653 195.051 280.083 197.691L258.633 210.071Z" fill="white"/>
<path d="M311.05 208.909L319.4 213.479C323.94 216.119 331.32 216.119 335.89 213.479L357.34 201.099C359.64 199.769 360.79 198.029 360.78 196.289V198.749C360.79 200.489 359.64 202.229 357.34 203.559L335.89 215.939C331.32 218.579 323.94 218.579 319.4 215.939L311.05 211.369C308.79 210.059 307.67 208.339 307.66 206.629V204.169C307.66 205.889 308.79 207.599 311.04 208.909H311.05Z" fill="#A7CFEE"/>
<path d="M311.101 199.36C306.531 202 306.511 206.27 311.051 208.91L319.401 213.48C323.941 216.12 331.321 216.12 335.891 213.48L357.341 201.1C361.911 198.46 361.931 194.19 357.391 191.55L349.041 186.98C344.501 184.34 337.121 184.34 332.551 186.98L311.101 199.36Z" fill="white"/>
</svg>
