<svg width="154" height="8" viewBox="0 0 154 8" fill="none" xmlns="http://www.w3.org/2000/svg">
<path d="M141.791 0.984158C138.449 0.800672 135.05 0.613838 131.655 0.430352C130.56 0.370302 129.408 0.370303 128.313 0.306917C125.896 0.246867 123.475 0.183485 121.058 0.123435C119.732 0.0633846 118.35 0.0633862 117.025 0C116.621 0 116.22 0 115.873 0C115.008 0 114.147 0 113.225 0C109.252 0 105.276 0 101.303 0C100.381 0 99.403 -2.44583e-06 98.4815 0.0600476C96.121 0.120098 93.8173 0.120096 91.4537 0.183482C88.806 0.243532 86.1551 0.243531 83.5075 0.306917C79.244 0.430353 74.927 0.553805 70.6636 0.677241C68.1895 0.737291 65.7122 0.800674 63.2349 0.860724C58.9747 1.04421 54.7112 1.23102 50.451 1.41451C48.0873 1.53795 45.7836 1.59799 43.4231 1.72143C38.9893 2.02835 34.5555 2.27523 30.1216 2.5221C27.7611 2.64554 25.4006 2.76897 23.037 2.95245C18.66 3.32276 14.2261 3.75312 9.8491 4.18348C8.92763 4.24353 7.94934 4.36699 6.97106 4.43037C5.1281 4.61386 3.22834 4.92411 1.32858 5.17098C1.21182 5.17098 1.0982 5.23103 0.981434 5.23103C0.751064 5.23103 0.577512 5.35446 0.403945 5.53794C0.116772 5.84487 0 6.21518 0 6.58549C0 6.9558 0.113616 7.32278 0.403945 7.56965C0.634315 7.81652 1.03825 8 1.32542 8C3.62912 7.75313 5.876 7.44622 8.1797 7.19934C10.3098 7.01586 12.4431 6.82902 14.5733 6.64554C16.877 6.46205 19.1807 6.21519 21.5412 6.02836C22.4626 5.96831 23.3841 5.84488 24.3624 5.7815C27.9915 5.59801 31.5607 5.35112 35.1898 5.1643C37.4367 5.04086 39.6804 4.91743 41.9273 4.794C42.8488 4.73395 43.7703 4.67057 44.6917 4.61051C48.2609 4.42703 51.8332 4.3036 55.4024 4.11678C57.5925 4.05673 59.7226 3.93327 61.9095 3.86989C62.6606 3.86989 63.3517 3.80984 64.0996 3.80984C67.9591 3.6864 71.8154 3.62636 75.6749 3.50292C77.805 3.44287 79.9951 3.37949 82.1253 3.31944C82.8732 3.31944 83.6811 3.25939 84.429 3.25939C88.4021 3.19934 92.3751 3.19934 96.4082 3.13596C98.8854 3.13596 101.36 3.07589 103.837 3.07589C108.04 3.07589 112.304 3.07591 116.507 3.13596C117.312 3.13596 118.177 3.196 118.984 3.196C121.345 3.25605 123.649 3.31944 126.009 3.44287C127.738 3.50292 129.521 3.56631 131.251 3.62636C132.516 3.68641 133.728 3.74979 134.994 3.80984C138.623 3.99333 142.309 4.24021 145.938 4.48708C146.859 4.54713 147.781 4.61051 148.702 4.67056C149.68 4.73061 150.715 4.794 151.694 4.91743C151.867 4.91743 151.984 4.97748 152.155 5.04087C152.558 5.10092 152.906 5.10092 153.25 4.85738C153.597 4.6739 153.827 4.30358 153.941 3.93327C154.171 3.13261 153.71 2.2719 152.906 2.02502C152.214 1.84154 151.523 1.77816 150.889 1.65472C150.428 1.59467 149.968 1.53129 149.507 1.53129C148.585 1.40785 147.664 1.40783 146.799 1.2844C145.187 1.23102 143.46 1.10759 141.791 0.984158Z" fill="#FCEC8F"/>
</svg>
