<svg width="10" height="10" viewBox="0 0 10 10" fill="none" xmlns="http://www.w3.org/2000/svg">
<path d="M5.28553 0.342376C5.23773 0.240059 5.16174 0.1535 5.06647 0.0928558C4.9712 0.032212 4.86061 0 4.74768 0C4.63475 0 4.52416 0.032212 4.42889 0.0928558C4.33362 0.1535 4.25763 0.240059 4.20982 0.342376L3.06169 2.79062L0.504213 3.18243C0.396367 3.19887 0.295135 3.24471 0.211632 3.31491C0.128129 3.38511 0.065585 3.47696 0.0308665 3.58038C-0.00385209 3.6838 -0.0094024 3.79479 0.014825 3.90116C0.0390524 4.00752 0.0921204 4.10516 0.168203 4.18334L2.03704 6.09848L1.59417 8.81031C1.57615 8.92037 1.5895 9.03328 1.63268 9.1361C1.67587 9.23893 1.74715 9.32751 1.83835 9.3917C1.92955 9.45588 2.03699 9.49308 2.14835 9.49903C2.25972 9.50498 2.37051 9.47944 2.46803 9.42534L4.74768 8.16322L7.02851 9.42534C7.12613 9.47955 7.23705 9.50513 7.34855 9.49915C7.46005 9.49316 7.5676 9.45585 7.65885 9.39151C7.7501 9.32716 7.82136 9.23838 7.86444 9.13536C7.90751 9.03235 7.92066 8.91927 7.90238 8.80912L7.45951 6.09848L9.32834 4.18334C9.40476 4.10519 9.45812 4.00747 9.48254 3.90093C9.50697 3.79439 9.5015 3.68318 9.46675 3.57955C9.43201 3.47592 9.36932 3.38389 9.28561 3.31361C9.2019 3.24333 9.10041 3.19753 8.99233 3.18125L6.43485 2.79062L5.28553 0.342376Z" fill="#E25D37"/>
</svg>
