<svg width="34" height="29" viewBox="0 0 34 29" fill="none" xmlns="http://www.w3.org/2000/svg">
<path d="M22.0863 1.47115C22.0325 1.43009 21.5341 1.05936 20.6464 0.702613C19.5027 0.242968 18.1904 0 16.8514 0C15.5124 0 14.2002 0.242968 13.0564 0.702613C12.1687 1.05936 11.6703 1.43009 11.6165 1.47121C11.3462 1.67734 11.1875 1.99782 11.1875 2.33773V4.04738L12.2772 4.63019L13.3669 4.04738V2.9548C13.9649 2.6496 15.1609 2.17933 16.8513 2.17933C18.5419 2.17933 19.7378 2.6496 20.3358 2.9548V4.04731L21.4255 4.63013L22.5152 4.04731V2.33773C22.5153 1.99775 22.3567 1.67727 22.0863 1.47115Z" fill="#E8834D"/>
<path d="M11.1875 4.04688V5.25006L12.2772 5.83287L13.367 5.25006V4.04688H11.1875Z" fill="#D66E41"/>
<path d="M22.5153 4.04688H20.3359V5.25006L21.4257 5.83287L22.5153 5.25006V4.04688Z" fill="#D66E41"/>
<path d="M1.14062 17.2344V26.915C1.14062 28.0643 2.07228 28.9959 3.22153 28.9959H30.4996C31.6489 28.9959 32.5805 28.0643 32.5805 26.915V17.2344H1.14062Z" fill="#365E7D"/>
<path d="M1.14062 16.0313V17.2346C2.86938 18.6072 7.43837 21.2717 16.8606 21.2717C26.2828 21.2717 30.8518 18.6072 32.5805 17.2345V16.0312H1.14062V16.0313Z" fill="#2B4D66"/>
<path d="M1.04875 15.3415C2.70556 16.6904 7.26821 19.4512 16.859 19.4512C26.4499 19.4512 31.0125 16.6904 32.6693 15.3415C33.155 14.9461 33.4368 13.7707 33.4368 13.1445V7.3309C33.4368 6.18166 32.5052 5.25 31.3559 5.25H2.36215C1.21291 5.25 0.28125 6.18166 0.28125 7.3309V13.1445C0.28125 13.7707 0.563073 14.9461 1.04875 15.3415Z" fill="#407093"/>
<path d="M32.6693 14.7548C31.0125 16.1037 26.4499 18.8646 16.859 18.8646C7.26821 18.8646 2.70562 16.1036 1.04875 14.7548C0.563073 14.3594 0.28125 13.7669 0.28125 13.1406V14.3439C0.28125 14.9701 0.563073 15.5627 1.04875 15.9581C2.70556 17.307 7.26821 20.0678 16.859 20.0678C26.4499 20.0678 31.0125 17.307 32.6693 15.9581C33.155 15.5627 33.4368 14.9701 33.4368 14.3439V13.1406C33.4368 13.7669 33.155 14.3594 32.6693 14.7548Z" fill="#365E7D"/>
<path d="M16.8632 22.0715C17.9398 22.0715 18.8124 21.2721 18.8124 19.5395V18.3577C18.8124 17.9746 18.5019 17.6641 18.1188 17.6641H15.6077C15.2246 17.6641 14.9141 17.9746 14.9141 18.3577V19.5397C14.914 21.2721 15.7867 22.0715 16.8632 22.0715Z" fill="#FFE27A"/>
<path d="M16.8632 21.4961C15.7867 21.4961 14.9141 20.6234 14.9141 19.5469V20.7501C14.9141 21.8266 15.7867 22.6993 16.8632 22.6993C17.9398 22.6993 18.8124 21.8266 18.8124 20.7501V19.5469C18.8124 20.6233 17.9398 21.4961 16.8632 21.4961Z" fill="#F9CF58"/>
</svg>
