<svg width="33" height="33" viewBox="0 0 33 33" fill="none" xmlns="http://www.w3.org/2000/svg">
<path d="M27.2273 0H11.7727C11.3458 0 11 0.328167 11 0.733333V33H28V0.733333C28 0.328167 27.6542 0 27.2273 0Z" fill="#EF6662"/>
<path d="M11 10V33H0.709677C0.317581 33 0 32.6784 0 32.2812V10.7188C0 10.3216 0.317581 10 0.709677 10H11Z" fill="#F2BE07"/>
<path d="M1.82812 11.3672H4.76146V14.3005H1.82812V11.3672Z" fill="#EFEFEF"/>
<path d="M6.59375 11.3672H9.52708V14.3005H6.59375V11.3672Z" fill="#EFEFEF"/>
<path d="M1.82812 16.1328H4.76146V19.0661H1.82812V16.1328Z" fill="#EFEFEF"/>
<path d="M6.59375 16.1328H9.52708V19.0661H6.59375V16.1328Z" fill="#EFEFEF"/>
<path d="M1.82812 20.9062H4.76146V23.8396H1.82812V20.9062Z" fill="#EFEFEF"/>
<path d="M6.59375 20.9062H9.52708V23.8396H6.59375V20.9062Z" fill="#EFEFEF"/>
<path d="M13.1875 1.83594H16.1208V4.76927H13.1875V1.83594Z" fill="#EFEFEF"/>
<path d="M17.9609 1.83594H20.8943V4.76927H17.9609V1.83594Z" fill="#EFEFEF"/>
<path d="M22.7344 1.83594H25.6677V4.76927H22.7344V1.83594Z" fill="#EFEFEF"/>
<path d="M13.1875 6.60156H16.1208V9.5349H13.1875V6.60156Z" fill="#EFEFEF"/>
<path d="M17.9609 6.60156H20.8943V9.5349H17.9609V6.60156Z" fill="#EFEFEF"/>
<path d="M22.7344 6.60156H25.6677V9.5349H22.7344V6.60156Z" fill="#EFEFEF"/>
<path d="M13.1875 11.3672H16.1208V14.3005H13.1875V11.3672Z" fill="#EFEFEF"/>
<path d="M17.9609 11.3672H20.8943V14.3005H17.9609V11.3672Z" fill="#EFEFEF"/>
<path d="M22.7344 11.3672H25.6677V14.3005H22.7344V11.3672Z" fill="#EFEFEF"/>
<path d="M13.1875 16.1328H16.1208V19.0661H13.1875V16.1328Z" fill="#EFEFEF"/>
<path d="M17.9609 16.1328H20.8943V19.0661H17.9609V16.1328Z" fill="#EFEFEF"/>
<path d="M22.7344 16.1328H25.6677V19.0661H22.7344V16.1328Z" fill="#EFEFEF"/>
<path d="M28.625 25C28.418 25 28.25 24.8009 28.25 24.5556V23.2222C28.25 22.4871 27.7453 21.8889 27.125 21.8889H24.875C24.2548 21.8889 23.75 22.4871 23.75 23.2222V24.5556C23.75 24.8009 23.582 25 23.375 25C23.168 25 23 24.8009 23 24.5556V23.2222C23 21.9969 23.8411 21 24.875 21H27.125C28.1589 21 29 21.9969 29 23.2222V24.5556C29 24.8009 28.832 25 28.625 25Z" fill="#316596"/>
<path d="M32.2778 33H20.7222C20.3232 33 20 32.6644 20 32.25V24.75C20 24.3356 20.3232 24 20.7222 24H32.2778C32.6768 24 33 24.3356 33 24.75V32.25C33 32.6644 32.6768 33 32.2778 33Z" fill="#316596"/>
<path d="M32.2778 33H20.7222C20.3232 33 20 32.6804 20 32.2857V28H33V32.2857C33 32.6804 32.6768 33 32.2778 33Z" fill="#6EBAED"/>
<path d="M22 28H24V29H22V28Z" fill="#316596"/>
<path d="M29 28H31V29H29V28Z" fill="#316596"/>
<path d="M22 33C22 31.8947 21.1053 31 20 31V32.3333C20 32.7017 20.2983 33 20.6667 33H22Z" fill="#F2BE07"/>
<path d="M31 33C31 31.8947 31.8947 31 33 31V32.3333C33 32.7017 32.7017 33 32.3333 33H31Z" fill="#F2BE07"/>
<path d="M5.63362 2.09845C5.80596 1.95483 6.09224 1.9706 6.24203 2.131C7.34529 3.31549 7.24423 5.02714 5.93843 6.11533C4.63263 7.20353 2.57911 7.28775 1.15735 6.36834C0.964887 6.24385 0.94556 6.00527 1.1183 5.86132L5.63362 2.09845Z" fill="#3BA1E3"/>
<path d="M14 33V25.7273C14 25.3255 14.2983 25 14.6667 25H17.3333C17.7017 25 18 25.3255 18 25.7273V33H15.3333H14Z" fill="#316596"/>
<path d="M23.6667 27H22.3333C22.1493 27 22 27.1792 22 27.4V29.4C22 29.6208 22.1493 29.8 22.3333 29.8H22.6667V30.6C22.6667 30.8208 22.816 31 23 31C23.184 31 23.3333 30.8208 23.3333 30.6V29.8H23.6667C23.8507 29.8 24 29.6208 24 29.4V27.4C24 27.1792 23.8507 27 23.6667 27ZM23.3333 29H22.6667V27.8H23.3333V29Z" fill="#F2BE07"/>
<path d="M30.5 27H28.5C28.224 27 28 27.1792 28 27.4V29.4C28 29.6208 28.224 29.8 28.5 29.8H29V30.6C29 30.8208 29.224 31 29.5 31C29.776 31 30 30.8208 30 30.6V29.8H30.5C30.776 29.8 31 29.6208 31 29.4V27.4C31 27.1792 30.776 27 30.5 27ZM30 29H29V27.8H30V29Z" fill="#F2BE07"/>
<path d="M14.5 24C14.7761 24 15 23.7761 15 23.5C15 23.2239 14.7761 23 14.5 23C14.2239 23 14 23.2239 14 23.5C14 23.7761 14.2239 24 14.5 24Z" fill="#E05551"/>
</svg>
