<svg width="12" height="12" viewBox="0 0 12 12" fill="none" xmlns="http://www.w3.org/2000/svg">
<path d="M2.4547 1.53537V2.19339H2.04558C1.50306 2.19339 0.982758 2.42448 0.599137 2.83582C0.215516 3.24716 0 3.80506 0 4.38678V7.67686C0 8.08407 0.150861 8.4746 0.419396 8.76253C0.68793 9.05047 1.05214 9.21223 1.43191 9.21223H2.04558V9.87025C2.04558 10.2775 2.19644 10.668 2.46498 10.9559C2.73351 11.2439 3.09772 11.4056 3.47749 11.4056H7.97777C8.35753 11.4056 8.72174 11.2439 8.99028 10.9559C9.25881 10.668 9.40967 10.2775 9.40967 9.87025V9.21223H10.0233C10.4031 9.21223 10.7673 9.05047 11.0359 8.76253C11.3044 8.4746 11.4553 8.08407 11.4553 7.67686V4.38678C11.4553 3.80506 11.2397 3.24716 10.8561 2.83582C10.4725 2.42448 9.95219 2.19339 9.40967 2.19339H9.00056V1.53537C9.00056 1.12817 8.8497 0.737638 8.58116 0.4497C8.31263 0.161762 7.94841 0 7.56865 0H3.8866C3.50684 0 3.14263 0.161762 2.87409 0.4497C2.60556 0.737638 2.4547 1.12817 2.4547 1.53537ZM3.8866 0.877356H7.56865C7.73141 0.877356 7.8875 0.946682 8.00258 1.07008C8.11767 1.19349 8.18232 1.36086 8.18232 1.53537V2.19339H3.27293V1.53537C3.27293 1.36086 3.33758 1.19349 3.45267 1.07008C3.56776 0.946682 3.72385 0.877356 3.8866 0.877356ZM2.86381 7.23818C2.86381 7.06367 2.92847 6.8963 3.04355 6.7729C3.15864 6.64949 3.31473 6.58017 3.47749 6.58017H7.97777C8.14052 6.58017 8.29661 6.64949 8.4117 6.7729C8.52679 6.8963 8.59144 7.06367 8.59144 7.23818V9.87025C8.59144 10.0448 8.52679 10.2121 8.4117 10.3355C8.29661 10.4589 8.14052 10.5283 7.97777 10.5283H3.47749C3.31473 10.5283 3.15864 10.4589 3.04355 10.3355C2.92847 10.2121 2.86381 10.0448 2.86381 9.87025V7.23818Z" fill="white"/>
</svg>
