<svg width="297" height="304" viewBox="0 0 297 304" fill="none" xmlns="http://www.w3.org/2000/svg">
<path d="M258.318 225.93C273.098 234.46 273.178 248.3 258.488 256.83L189.548 296.89C174.858 305.42 150.978 305.42 136.198 296.89L66.8083 256.83C52.0283 248.3 51.9483 234.46 66.6383 225.93L135.578 185.87C150.268 177.34 174.148 177.34 188.928 185.87L258.318 225.93Z" stroke="white" stroke-miterlimit="10"/>
<path d="M282.909 201.18L196.429 251.44C178.009 262.15 148.039 262.15 129.499 251.44L42.4493 201.18C33.1193 195.79 28.4593 188.72 28.4793 181.66L28.4493 191.66C28.4293 198.72 33.0893 205.79 42.4193 211.18L129.469 261.44C148.009 272.15 177.979 272.15 196.399 261.44L282.879 211.18C292.029 205.86 296.609 198.9 296.629 191.93L296.659 181.93C296.639 188.9 292.059 195.86 282.909 201.18Z" fill="#A7CFEE"/>
<path d="M282.691 162.41C301.231 173.12 301.331 190.47 282.911 201.18L196.431 251.44C178.011 262.15 148.041 262.15 129.501 251.44L42.4507 201.18C23.9107 190.47 23.8107 173.12 42.2307 162.41L128.711 112.15C147.131 101.44 177.101 101.44 195.641 112.15L282.691 162.41Z" fill="white"/>
<path d="M237.869 154.99C245.569 159.43 245.609 166.64 237.959 171.09L202.059 191.96C194.409 196.4 181.97 196.41 174.27 191.96L138.129 171.1C130.429 166.65 130.389 159.45 138.039 155L173.939 134.14C181.589 129.69 194.029 129.69 201.729 134.14L237.869 155V154.99Z" fill="#CBDCEB"/>
<path d="M191.402 181.941C191.402 184.101 189.652 185.851 187.492 185.851C185.332 185.851 183.582 184.101 183.582 181.941C183.582 179.781 185.332 178.031 187.492 178.031C189.652 178.031 191.402 179.781 191.402 181.941Z" fill="#333333"/>
<path d="M155.711 160.32C155.711 162.48 153.961 164.23 151.801 164.23C149.641 164.23 147.891 162.48 147.891 160.32C147.891 158.16 149.641 156.41 151.801 156.41C153.961 156.41 155.711 158.16 155.711 160.32Z" fill="#333333"/>
<path d="M227.089 160.32C227.089 162.48 225.34 164.23 223.18 164.23C221.02 164.23 219.27 162.48 219.27 160.32C219.27 158.16 221.02 156.41 223.18 156.41C225.34 156.41 227.089 158.16 227.089 160.32Z" fill="#333333"/>
<path d="M193.52 159.751C193.33 159.901 193.11 160.041 192.89 160.171C192.63 160.331 192.35 160.471 192.05 160.611L190.17 178.741H185.04L182.96 160.611C182.68 160.491 182.42 160.351 182.17 160.211C181.92 160.071 181.69 159.911 181.48 159.751L150.18 158.601L150.16 155.631V157.561L150.17 160.531L181.47 161.681C181.68 161.841 181.91 161.991 182.16 162.141C182.41 162.281 182.67 162.421 182.95 162.541L185.03 180.671H190.16L192.04 162.541C192.34 162.411 192.62 162.261 192.88 162.101C192.9 162.101 192.92 162.081 192.93 162.071C193.13 161.951 193.33 161.811 193.51 161.681L224.79 160.541V158.611L193.51 159.751H193.52Z" fill="url(#paint0_linear_1812_12745)"/>
<path d="M224.79 155.63V158.6L193.52 159.74C193.1 160.06 192.6 160.35 192.05 160.6L190.17 178.73H185.04L182.96 160.6C182.68 160.48 182.42 160.34 182.17 160.2C181.92 160.06 181.69 159.9 181.48 159.74L150.18 158.59L150.16 155.62L181.45 154.47C181.87 154.15 182.37 153.86 182.92 153.61L184.79 135.49H189.92L192 153.62C192.28 153.74 192.55 153.87 192.8 154.02C193.05 154.16 193.28 154.32 193.48 154.48L224.79 155.62V155.63Z" fill="#625E6D"/>
<path d="M190.408 139.901C190.248 139.741 190.048 139.581 189.808 139.451C188.378 138.631 186.068 138.631 184.648 139.451C184.408 139.591 184.208 139.741 184.048 139.901H183.578V157.081C183.578 157.621 183.938 158.161 184.648 158.571C186.078 159.391 188.388 159.391 189.808 158.571C190.518 158.161 190.878 157.621 190.878 157.081V139.901H190.408Z" fill="url(#paint1_linear_1812_12745)"/>
<path d="M189.818 138.41C191.248 139.23 191.248 140.57 189.818 141.39C188.388 142.21 186.078 142.21 184.658 141.39C183.228 140.57 183.228 139.23 184.658 138.41C186.088 137.59 188.398 137.59 189.818 138.41Z" fill="#4E4E4E"/>
<path d="M191.889 127.841C191.369 127.311 190.559 126.841 189.419 126.541C187.989 126.151 186.469 126.151 185.039 126.541C183.909 126.851 183.099 127.311 182.569 127.841H181.879V140.901C181.879 141.991 182.879 143.091 184.889 143.691C186.409 144.141 188.049 144.141 189.569 143.691C191.579 143.091 192.579 142.001 192.579 140.901V127.841H191.889Z" fill="url(#paint2_linear_1812_12745)"/>
<path d="M189.578 125.05C193.588 126.24 193.588 129.43 189.578 130.62C188.058 131.07 186.418 131.07 184.898 130.62C180.888 129.43 180.888 126.24 184.898 125.05C186.418 124.6 188.058 124.6 189.578 125.05Z" fill="#4E4E4E"/>
<path d="M177.451 147.341L135.701 123.071L135.691 119.621L177.441 143.891L177.451 147.341Z" fill="#545786"/>
<path d="M177.441 143.89L135.691 119.62L138.201 113.26L179.941 137.52L177.441 143.89Z" fill="#6A70A4"/>
<path d="M179.943 137.521L138.203 113.261L176.503 91.1406L218.253 115.411L179.943 137.521Z" fill="#7B82B4"/>
<path d="M223.75 49.6806L182 25.4206L189.85 20.8906L231.59 45.1506L223.75 49.6806Z" fill="#7B82B4"/>
<path d="M218.25 115.41L176.5 91.1399L182 25.4199L223.75 49.6799L218.25 115.41Z" fill="#6A70A4"/>
<path d="M223.751 49.6804L231.591 45.1504L227.041 118.71L217.511 124.22L177.451 147.34L177.441 143.89L179.941 137.52L218.251 115.41L223.751 49.6804Z" fill="#545786"/>
<path d="M160.358 54.3509L154.488 56.2809C154.688 56.2209 154.898 56.1809 155.118 56.1709C155.338 56.1709 155.548 56.1309 155.738 56.0609L161.608 54.1309C161.408 54.1909 161.208 54.2309 160.988 54.2409C160.768 54.2409 160.548 54.2809 160.358 54.3509Z" fill="#F78D1E"/>
<path d="M175.538 114.121C175.318 114.301 175.078 114.431 174.828 114.511L180.698 112.581C180.948 112.501 181.178 112.371 181.408 112.191C181.628 112.011 181.868 111.881 182.108 111.801L176.238 113.731C175.988 113.811 175.758 113.941 175.538 114.121Z" fill="#F78D1E"/>
<path d="M166.268 45.3009C165.708 45.0909 165.178 45.0809 164.718 45.2409L158.848 47.1709C159.308 47.0209 159.838 47.0309 160.398 47.2309C160.948 47.4409 161.478 47.4409 161.938 47.2909L167.808 45.3609C167.338 45.5109 166.818 45.5109 166.268 45.3009Z" fill="#F78D1E"/>
<path d="M185.148 117.509C184.818 118.099 184.358 118.469 183.848 118.629L189.718 116.699C190.228 116.529 190.688 116.159 191.018 115.569C191.348 114.989 191.808 114.619 192.328 114.449L186.458 116.379C185.938 116.549 185.478 116.919 185.148 117.499V117.509Z" fill="#F78D1E"/>
<path d="M174.487 39.8593C174.247 39.7493 174.017 39.6093 173.787 39.4193C173.547 39.2293 173.307 39.0793 173.067 38.9693C172.467 38.6893 171.867 38.6593 171.347 38.8393L165.477 40.7693C166.007 40.5993 166.597 40.6293 167.197 40.8993C167.437 41.0093 167.677 41.1593 167.917 41.3493C168.147 41.5393 168.387 41.6793 168.617 41.7893C169.217 42.0693 169.827 42.0993 170.357 41.9293L176.227 39.9993C175.687 40.1793 175.087 40.1393 174.487 39.8593Z" fill="#F78D1E"/>
<path d="M196.26 114.959C195.46 115.219 194.82 115.959 194.58 117.079C194.34 118.209 193.7 118.929 192.91 119.189L198.78 117.259C199.57 116.999 200.21 116.289 200.45 115.149C200.68 114.029 201.33 113.299 202.13 113.029L196.26 114.959Z" fill="#F78D1E"/>
<path d="M219.999 81.2901C218.429 79.6901 218.139 76.9001 219.399 75.4701C220.919 73.7301 220.119 70.1801 217.929 68.9801C216.129 68.0001 215.179 65.3101 215.949 63.3601C216.779 61.2801 215.629 58.4801 213.789 57.6401C213.549 57.5301 213.299 57.4501 213.039 57.4201C212.789 57.3801 212.539 57.3101 212.299 57.2001C210.799 56.5101 209.699 54.5001 209.879 52.5501C210.069 50.5201 208.909 48.5501 207.449 47.8901C206.929 47.6501 206.359 47.5801 205.809 47.7301C205.269 47.8801 204.699 47.8101 204.169 47.5601C203.019 47.0301 202.029 45.7001 201.779 44.0801C201.519 42.4101 200.519 41.1101 199.389 40.5901C198.819 40.3301 198.229 40.2701 197.669 40.4501L195.139 41.2801C194.929 41.2401 194.719 41.1801 194.519 41.0901C193.689 40.7101 192.919 39.9001 192.459 38.7801C191.999 37.6401 191.229 36.8501 190.419 36.4701C189.829 36.2001 189.209 36.1401 188.659 36.3301L183.589 37.9901C183.319 37.7701 183.049 37.5001 182.819 37.1701C182.379 36.5601 181.869 36.1401 181.349 35.9001C180.749 35.6301 180.139 35.5901 179.589 35.7601L173.719 37.6901C174.269 37.5101 174.879 37.5501 175.479 37.8301C175.999 38.0701 176.509 38.4901 176.949 39.1001C177.379 39.7001 177.889 40.1201 178.419 40.3601C179.009 40.6301 179.629 40.6801 180.179 40.5001L185.239 38.8401C185.779 39.2701 186.259 39.8901 186.589 40.7001C187.049 41.8201 187.819 42.6301 188.649 43.0101C189.229 43.2801 189.839 43.3401 190.399 43.1501L192.919 42.3201C193.119 42.3601 193.329 42.4201 193.529 42.5101C194.659 43.0301 195.659 44.3301 195.919 46.0001C196.179 47.6201 197.159 48.9501 198.309 49.4801C198.839 49.7201 199.399 49.7901 199.949 49.6501C200.499 49.5001 201.059 49.5701 201.589 49.8101C203.049 50.4801 204.209 52.4501 204.019 54.4701C203.829 56.4301 204.939 58.4401 206.439 59.1201C206.679 59.2301 206.919 59.3001 207.179 59.3401C207.439 59.3801 207.689 59.4501 207.929 59.5601C209.769 60.4001 210.919 63.2001 210.089 65.2801C209.319 67.2301 210.269 69.9201 212.069 70.9001C214.259 72.1001 215.059 75.6501 213.539 77.3901C212.279 78.8201 212.569 81.6101 214.139 83.2101C216.049 85.1601 215.989 88.6601 214.019 89.6001C212.399 90.3701 212.009 92.9901 213.199 95.0501C214.299 96.9401 214.019 99.1701 212.859 100.16L210.879 100.81C209.449 101.28 208.719 103.21 209.329 105.26C209.639 106.3 209.599 107.28 209.319 108.06L204.679 109.58C203.579 109.94 202.829 111.19 202.909 112.83C202.999 114.53 202.219 115.74 201.139 116.1L207.009 114.17C208.089 113.82 208.869 112.61 208.779 110.9C208.749 110.3 208.829 109.76 208.999 109.29L213.639 107.77C215.029 107.31 215.829 105.43 215.199 103.32C214.709 101.66 215.099 100.1 216.019 99.3101L217.999 98.6601C219.739 98.0901 220.359 95.3501 219.059 93.1101C217.869 91.0401 218.259 88.4301 219.879 87.6601C221.849 86.7201 221.909 83.2201 219.999 81.2701V81.2901ZM184.279 38.4301C184.129 38.3601 183.989 38.2801 183.849 38.1901C184.079 38.2301 184.309 38.2901 184.539 38.4001C184.679 38.4601 184.809 38.5501 184.939 38.6401C184.719 38.6001 184.499 38.5401 184.279 38.4401V38.4301Z" fill="#F78D1E"/>
<path d="M193.519 42.5103C194.649 43.0303 195.649 44.3303 195.909 46.0003C196.169 47.6203 197.149 48.9503 198.299 49.4803C198.829 49.7203 199.389 49.7903 199.939 49.6503C200.489 49.5003 201.049 49.5703 201.579 49.8103C203.039 50.4803 204.199 52.4503 204.009 54.4703C203.819 56.4303 204.929 58.4403 206.429 59.1203C206.669 59.2303 206.909 59.3003 207.169 59.3403C207.429 59.3803 207.679 59.4503 207.919 59.5603C209.759 60.4003 210.909 63.2003 210.079 65.2803C209.309 67.2303 210.259 69.9203 212.059 70.9003C214.249 72.1003 215.049 75.6503 213.529 77.3903C212.269 78.8203 212.559 81.6103 214.129 83.2103C216.039 85.1603 215.979 88.6603 214.009 89.6003C212.389 90.3703 211.999 92.9903 213.189 95.0503C214.639 97.5503 213.709 100.65 211.499 100.71C209.679 100.76 208.639 102.94 209.329 105.27C210.169 108.08 208.469 110.49 206.219 109.65C204.379 108.97 202.789 110.5 202.909 112.85C203.049 115.38 201.249 116.83 199.409 115.98C199.169 115.87 198.929 115.72 198.699 115.54C198.469 115.35 198.229 115.21 197.989 115.1C196.499 114.41 194.969 115.22 194.579 117.08C194.169 119 192.609 119.72 191.149 119.05C190.629 118.81 190.119 118.39 189.679 117.79C189.249 117.19 188.729 116.77 188.199 116.53C187.049 116 185.819 116.32 185.139 117.51C184.439 118.74 183.209 119.01 182.079 118.49C181.259 118.11 180.499 117.33 180.029 116.19C179.569 115.07 178.799 114.26 177.969 113.88C177.139 113.5 176.239 113.54 175.519 114.13C174.799 114.72 173.909 114.76 173.089 114.38C171.959 113.86 170.959 112.57 170.699 110.9C170.439 109.28 169.459 107.95 168.309 107.42C167.779 107.18 167.209 107.1 166.669 107.25C166.119 107.4 165.559 107.33 165.039 107.09C163.579 106.42 162.419 104.45 162.609 102.43C162.799 100.48 161.689 98.4603 160.199 97.7803C159.959 97.6703 159.709 97.5903 159.459 97.5603C159.199 97.5203 158.949 97.4503 158.719 97.3403C156.879 96.5003 155.729 93.7003 156.559 91.6103C157.329 89.6703 156.379 86.9703 154.579 85.9903C152.389 84.7903 151.589 81.2403 153.109 79.5103C154.369 78.0803 154.079 75.2903 152.509 73.6803C150.599 71.7303 150.659 68.2303 152.629 67.3003C154.249 66.5203 154.639 63.9003 153.449 61.8503C151.999 59.3403 152.929 56.2403 155.149 56.1903C156.969 56.1503 158.009 53.9603 157.309 51.6403C156.469 48.8203 158.179 46.4203 160.419 47.2503C162.259 47.9403 163.849 46.4103 163.729 44.0503C163.589 41.5303 165.379 40.0803 167.219 40.9203C167.459 41.0303 167.699 41.1803 167.939 41.3703C168.169 41.5603 168.409 41.7003 168.639 41.8103C170.139 42.5003 171.669 41.7003 172.059 39.8303C172.469 37.9003 174.029 37.1803 175.489 37.8503C176.009 38.0903 176.519 38.5103 176.959 39.1203C177.389 39.7203 177.899 40.1403 178.429 40.3803C179.579 40.9103 180.809 40.5903 181.489 39.4003C182.189 38.1703 183.419 37.9003 184.559 38.4203C185.379 38.8003 186.139 39.5803 186.599 40.7303C187.059 41.8503 187.829 42.6603 188.659 43.0403C189.489 43.4203 190.389 43.3803 191.109 42.8003C191.829 42.2003 192.719 42.1703 193.539 42.5503L193.519 42.5103Z" fill="#FFC758"/>
<path d="M207.91 59.5703C207.67 59.4603 207.42 59.3803 207.16 59.3503C206.91 59.3103 206.66 59.2403 206.42 59.1303C206.13 59.0003 205.85 58.8003 205.6 58.5703L158.57 97.2303C158.57 97.2303 158.66 97.3003 158.72 97.3203C158.96 97.4303 159.21 97.5103 159.46 97.5403C159.72 97.5803 159.96 97.6503 160.2 97.7603C161.4 98.3103 162.34 99.7303 162.57 101.28L210.07 62.2303C209.68 61.0503 208.9 60.0203 207.91 59.5703Z" fill="#FFE1A8"/>
<path d="M173.519 70.5207L171.739 82.4507L170.439 81.8707L171.269 76.2807L166.439 74.1307L165.599 79.7207L164.309 79.1407L166.089 67.2207L167.379 67.7907L166.639 72.7807L171.469 74.9307L172.219 69.9407L173.519 70.5207Z" fill="#F04A46"/>
<path d="M177.05 72.0915L175.271 84.0215L173.98 83.4515L175.76 71.5215L177.05 72.0915Z" fill="#F04A46"/>
<path d="M192.68 79.0504L192.49 80.3504L188.38 78.5204L187.82 82.2904L191.7 84.0104L191.51 85.2904L187.63 83.5604L186.99 87.8604L191.32 89.7904L191.12 91.0804L185.5 88.5804L187.28 76.6504L192.68 79.0504Z" fill="#F04A46"/>
<path d="M183.747 84.3015C183.827 86.1215 183.897 87.3715 184.027 87.9215L182.697 87.3315C182.577 86.9215 182.517 85.8015 182.457 84.1815C182.407 82.4015 181.957 81.5515 180.807 80.9715L179.587 80.4315L178.817 85.6015L177.527 85.0315L179.287 73.2715C179.967 73.4015 180.907 73.7315 181.797 74.1315C183.177 74.7415 184.017 75.4415 184.547 76.3915C184.967 77.1415 185.127 78.0815 184.987 79.0015C184.757 80.5715 183.767 81.2515 182.647 81.2115V81.2615C183.367 81.9215 183.697 82.9815 183.747 84.3215V84.3015ZM181.077 79.8615C182.457 80.4715 183.457 79.9615 183.667 78.5915C183.897 77.0515 183.067 75.9715 181.707 75.3515C181.087 75.0715 180.627 74.9415 180.407 74.9215L179.757 79.2715L181.077 79.8615Z" fill="#F04A46"/>
<path d="M201.159 84.3203C201.899 85.6903 202.219 87.3003 201.929 89.2303C201.639 91.1603 200.899 92.5403 199.799 93.2303C198.699 93.9303 197.079 93.8403 195.129 92.9803C194.209 92.5703 193.449 92.1803 192.809 91.8003L194.559 80.0703C195.369 80.2703 196.319 80.5903 197.339 81.0403C199.189 81.8703 200.439 82.9603 201.169 84.3203H201.159ZM195.559 91.8503C198.319 93.0803 200.089 91.9003 200.569 88.6803C201.009 85.8703 199.939 83.4903 197.209 82.2803C196.549 81.9903 196.029 81.8303 195.679 81.7603L194.269 91.1803C194.579 91.3903 195.059 91.6303 195.559 91.8503Z" fill="#F04A46"/>
<path d="M122.45 37.1311L122.41 34.0811C122.41 34.0811 121.82 28.1211 122.44 27.3911C123.06 26.6511 124.76 26.7311 124.76 26.7311C124.76 26.7311 126.16 23.8211 127.92 24.1511C129.68 24.4811 130.39 27.9011 130.79 30.2911C131.19 32.6811 128.95 35.5511 128.95 35.5511L127.63 38.7111L122.44 37.1311H122.45Z" fill="#F79456"/>
<path d="M100.311 76.3916C100.311 76.3916 111.961 64.3416 114.361 59.5216C116.341 55.5716 119.281 44.4916 120.991 37.1816C121.461 35.1716 123.551 33.9916 125.501 34.6316C126.191 34.8616 126.911 35.2316 127.601 35.8316C129.611 38.6416 128.801 40.2516 128.801 40.2516C128.801 40.2516 128.001 59.1216 125.991 63.9416C123.981 68.7616 109.931 89.2416 105.511 89.2416C101.091 89.2416 96.2707 85.2216 100.291 76.3916H100.311Z" fill="#E1E7F1"/>
<path d="M118.391 222.77C139.527 222.77 156.661 211.886 156.661 198.46C156.661 185.034 139.527 174.15 118.391 174.15C97.2551 174.15 80.1211 185.034 80.1211 198.46C80.1211 211.886 97.2551 222.77 118.391 222.77Z" fill="#CBDCEB"/>
<path d="M101.633 193.591L101.293 198.291C101.243 199.041 101.663 199.751 102.353 200.041C102.993 200.311 103.923 200.511 105.153 200.321C107.843 199.911 109.083 198.461 109.503 197.631C109.913 196.801 115.303 193.071 114.683 191.211C113.643 189.351 111.783 191.211 109.923 191.211C108.063 191.211 104.123 190.281 101.643 193.591H101.633Z" fill="#171E26"/>
<path d="M102.871 121.631C102.871 121.631 101.631 153.311 102.251 163.251C102.251 163.251 99.7612 188.101 101.011 194.001C101.011 194.001 105.361 197.111 109.091 194.621C110.021 194.311 110.021 193.071 110.021 193.071C110.021 193.071 112.501 169.771 113.131 162.631C113.751 155.491 118.721 134.051 117.791 129.391C116.861 124.731 110.961 118.211 102.881 121.621L102.871 121.631Z" fill="#171E26"/>
<path d="M122.909 200.22C122.909 200.22 121.199 205.5 122.439 206.74C123.679 207.98 125.239 208.29 126.369 207.93C127.509 207.57 128.599 207.05 128.599 207.05L128.959 205.96L129.369 206.68C129.369 206.68 129.989 206.58 130.819 206.11C131.649 205.64 134.029 204.71 135.009 204.09C135.989 203.47 137.749 202.38 137.909 201.04C138.009 199.69 133.199 200.16 131.899 200.21C130.609 200.26 129.779 199.74 129.309 199.74C128.839 199.74 123.819 200.36 123.819 200.36" fill="#171E26"/>
<path d="M130.773 121.041C130.773 121.041 132.073 125.771 132.073 135.301C132.073 144.831 131.243 168.851 131.243 168.851C131.243 168.851 130.833 193.281 130.413 199.501C130.413 199.501 127.513 203.231 122.543 200.331C120.063 197.431 120.883 195.361 120.883 195.361C120.883 195.361 117.573 180.451 118.813 166.781C118.813 166.781 114.253 139.031 113.433 135.721C112.603 132.411 98.1529 130.971 103.803 114.811L130.773 121.051V121.041Z" fill="#1F2F3F"/>
<path d="M102.46 117.081C102.86 115.841 103.12 113.821 103.15 112.001C102.96 108.231 102.47 104.131 101.73 101.811C100.01 96.3808 98.74 91.0808 98.37 86.3308C97.77 78.5108 101.61 72.5608 108.01 73.1608C110.3 73.3708 114.6 75.6808 118.75 77.8708C122.09 79.6308 127.25 82.8408 131.04 85.3708C132.76 86.5208 133.75 88.4708 133.66 90.5408C133.52 93.6608 133.28 97.2908 132.98 100.471C132.65 103.931 131.62 111.521 131.09 116.681C131.09 116.681 132.84 121.371 132.84 124.981C132.84 128.591 125.61 130.201 123.6 130.601C121.59 131.001 113.96 131.001 107.94 128.591C101.92 126.181 100.58 122.831 102.45 117.081H102.46Z" fill="#F9FCFD"/>
<path d="M126.941 71.1499C127.581 69.1499 127.801 61.0499 126.991 58.2399C125.961 54.6199 122.441 51.4699 117.181 51.7299C112.121 51.9799 108.401 54.2099 107.161 57.9799C106.431 60.2099 106.591 64.1299 107.941 66.9599C108.861 68.8799 110.941 70.5799 113.201 71.7699C114.791 72.6799 119.291 74.7699 121.511 75.4099C124.101 76.1699 126.011 74.0399 126.941 71.1499Z" fill="#F79456"/>
<path d="M112.061 69.7607C114.601 68.7407 120.411 69.8507 122.441 71.5107C122.441 71.5107 120.441 79.5707 120.411 79.5807C116.711 79.7707 111.451 77.9307 110.191 76.4207L112.061 69.7707V69.7607Z" fill="#F79456"/>
<path d="M122.442 65.9706C121.382 64.5406 119.262 65.0506 119.262 67.3406C119.262 70.0006 121.072 71.5106 122.442 71.5106C122.442 69.8006 122.512 68.0306 122.442 65.9806V65.9706Z" fill="#F79456"/>
<path d="M110.951 73.9004C110.951 73.9004 113.951 76.4904 121.101 77.5204L122.451 79.9004C122.451 79.9004 119.451 80.8304 115.931 80.4204C112.411 80.0104 109.511 77.2104 109.201 76.5904L108.891 75.9704L110.961 73.9004H110.951Z" fill="#F9FCFD"/>
<path d="M105.361 59.8205C105.361 59.8205 104.691 53.5605 110.431 50.9205C116.181 48.2805 123.681 50.0405 126.631 54.0805C128.651 57.5005 125.851 60.2905 125.231 61.5305C124.611 62.7705 125.231 65.2605 124.611 66.1905C123.991 67.1205 124.771 68.5205 124.771 68.5205L123.681 69.4505C123.681 69.4505 122.591 67.4305 121.971 66.9705C121.351 66.5005 119.431 68.2105 119.851 69.8705C120.261 71.5305 121.821 72.4605 121.821 72.4605C121.821 72.4605 121.201 72.8705 120.581 73.2905C119.961 73.7005 118.721 74.0105 116.751 74.0105C114.781 74.0105 112.091 73.0805 111.061 72.4605C110.021 71.8405 106.921 69.5605 105.681 66.8705C104.441 64.1805 104.131 61.5905 105.371 59.8305L105.361 59.8205Z" fill="#673F2A"/>
<path d="M148.301 39.0418L148.701 35.4318C148.701 35.4318 148.701 31.6218 149.101 30.4118C149.501 29.2018 151.111 29.2118 151.111 29.2118C151.111 29.2118 153.721 26.4018 154.521 26.2018C155.321 26.0018 156.931 29.4118 157.131 30.6218C157.331 31.8318 157.531 36.0418 156.931 36.8418C156.331 37.6418 153.921 39.0518 153.921 39.0518L153.121 41.2618L148.301 39.0518V39.0418Z" fill="#F79456"/>
<path d="M123.611 88.8402C123.611 88.8402 135.261 76.7902 137.661 71.9702C139.641 68.0202 144.591 47.3002 146.301 39.9902C146.771 37.9802 148.861 36.8002 150.811 37.4402C151.501 37.6702 152.221 38.0402 152.911 38.6402C154.921 41.4502 154.111 43.0602 154.111 43.0602C154.111 43.0602 151.301 71.5702 149.291 76.3902C147.281 81.2102 133.231 101.69 128.811 101.69C124.391 101.69 119.571 97.6702 123.591 88.8402H123.611Z" fill="#F9FCFD"/>
<path d="M193.589 296.018C194.289 296.428 195.159 296.428 195.869 296.018L199.309 294.039C200.819 293.169 200.829 290.979 199.309 290.099C198.609 289.689 197.739 289.689 197.029 290.099L193.589 292.078C192.079 292.948 192.069 295.138 193.589 296.018Z" fill="white"/>
<path d="M204.418 289.759C205.118 290.169 205.988 290.169 206.698 289.759L251.157 264.089C252.667 263.219 252.677 261.029 251.157 260.149C250.457 259.739 249.588 259.739 248.878 260.149L204.418 285.819C202.908 286.689 202.898 288.879 204.418 289.759Z" fill="white"/>
<path d="M38.8633 109.929V111.679C38.8633 112.709 39.9733 113.359 40.8733 112.839L76.2733 92.9192C76.6933 92.6792 76.9433 92.2392 76.9433 91.7592V90.0092C76.9433 88.9792 75.8333 88.3292 74.9333 88.8492L39.5333 108.769C39.1233 109.009 38.8633 109.449 38.8633 109.929Z" fill="#F2F9FE"/>
<path d="M12.7014 133.61V135.36C12.7014 136.39 13.8114 137.03 14.7014 136.52L76.2614 101.63C76.6814 101.39 76.9314 100.95 76.9314 100.47V98.7199C76.9314 97.6899 75.8214 97.0498 74.9214 97.5598L13.3614 132.46C12.9414 132.7 12.6914 133.14 12.6914 133.62L12.7014 133.61Z" fill="#F2F9FE"/>
<g opacity="0.53">
<path d="M26.8811 142.878V144.628C26.8811 145.658 27.9911 146.298 28.8811 145.788L76.2511 119.028C76.6711 118.788 76.9211 118.348 76.9211 117.868V116.118C76.9211 115.088 75.8111 114.448 74.9111 114.958L27.5411 141.718C27.1211 141.958 26.8711 142.398 26.8711 142.878H26.8811Z" fill="#F2F9FE"/>
</g>
<path d="M18.0312 139.249V140.999C18.0312 142.029 19.1413 142.669 20.0312 142.159L76.2513 110.319C76.6712 110.079 76.9212 109.639 76.9212 109.159V107.409C76.9212 106.379 75.8112 105.739 74.9212 106.249L18.7012 138.089C18.2812 138.329 18.0312 138.769 18.0312 139.249Z" fill="#F2F9FE"/>
<path d="M41.9603 80.9492L38.3203 98.0292L36.5603 99.0392L34.9003 92.1992C34.4903 90.5292 34.2103 89.2192 34.0403 87.8092C33.7803 89.4492 33.4903 91.0792 33.0103 93.2892L31.1703 102.149L29.4103 103.159L26.0703 90.1092L27.8403 89.0892L29.4103 95.7592C29.8003 97.3992 30.1503 99.0592 30.3903 100.379C30.6403 98.7392 31.0403 96.7392 31.4803 94.5492L33.2003 86.0092L34.9603 84.9992L36.5603 91.6692C36.9303 93.2392 37.2903 94.8092 37.4803 96.2692C37.7803 94.4492 38.1503 92.5692 38.5403 90.4692L40.2403 81.9392L41.9603 80.9492Z" fill="#1F222A"/>
<path d="M26.6211 76.7896C27.0511 78.6296 27.3611 79.8896 27.6311 80.3096L25.8911 81.3096C25.6811 81.0096 25.3811 79.8896 25.0111 78.2396C24.6111 76.3996 23.9211 76.0196 22.4011 76.8396L20.8211 77.7496L20.8411 84.2296L19.1611 85.1996L19.1211 70.4496C19.9711 69.7596 21.1811 68.9396 22.3411 68.2696C24.1311 67.2296 25.2911 66.9496 26.1011 67.3196C26.7611 67.5996 27.1311 68.4096 27.1411 69.5696C27.1411 71.5396 26.0611 73.4796 24.7011 74.7996V74.8696C25.7011 74.6896 26.3011 75.4096 26.6211 76.7796V76.7896ZM22.5411 75.2996C24.3311 74.2596 25.4711 72.4796 25.4611 70.7696C25.4611 68.8396 24.2411 68.6996 22.4611 69.6996C21.6511 70.1696 21.0711 70.5896 20.8011 70.8296L20.8211 76.2896L22.5411 75.2996Z" fill="#1F222A"/>
<path d="M36.5317 60.209L36.5417 61.819L31.1917 64.899L31.2017 69.629L36.2617 66.709L36.2717 68.309L31.2117 71.229L31.2217 76.609L36.8617 73.359V74.979L29.5517 79.209L29.5117 64.259L36.5317 60.209Z" fill="#1F222A"/>
<path d="M48.8599 76.7298C52.4099 74.6798 54.7199 76.4798 54.7299 80.9198C54.7399 86.0598 52.0299 90.3598 48.7099 92.2798C45.3899 94.1998 42.8499 92.5998 42.8399 88.0698C42.8299 83.5398 45.3799 78.7398 48.8599 76.7298ZM48.7999 90.6398C51.4599 89.0998 52.9599 85.4198 52.9499 82.0298C52.9499 79.0598 51.5799 76.7398 48.7799 78.3498C45.9799 79.9598 44.6199 83.7098 44.6299 86.9898C44.6399 90.2698 46.1499 92.1698 48.7999 90.6498" fill="#1F222A"/>
<path d="M44.4686 55.6194L48.9486 67.9994L47.1586 69.0394L45.7486 65.1394L41.1386 67.7994L39.7986 73.2794L38.0586 74.2794L42.4386 56.7794L44.4686 55.6094V55.6194ZM41.4786 66.0994L45.3986 63.8394L44.1086 60.2694C43.8186 59.4594 43.6286 58.6794 43.4286 57.9294L43.3886 57.9494C43.1986 58.9494 42.9886 59.9794 42.7486 61.0294L41.4886 66.0994" fill="#1F222A"/>
<path d="M59.6603 48.6005C60.8203 49.1605 61.5003 50.4905 61.5103 52.9105C61.5203 55.3305 60.8603 57.7305 59.6603 59.8005C58.4503 61.8905 56.4403 63.8105 53.9103 65.2705C52.7203 65.9605 51.7103 66.4705 50.8603 66.8605L50.8203 52.1605C51.8503 51.3905 53.0603 50.5505 54.3903 49.7805C56.8003 48.3905 58.5203 48.0405 59.6603 48.6005ZM54.2303 63.5305C57.8203 61.4605 59.7603 58.0205 59.7503 53.9905C59.7503 50.4505 58.0203 49.2105 54.4703 51.2605C53.6003 51.7605 52.9403 52.2305 52.5003 52.6005L52.5303 64.4005C52.9603 64.2505 53.5803 63.9105 54.2403 63.5305" fill="#1F222A"/>
<path d="M72.0901 39.6797L67.7502 50.7697L67.7701 57.1397L66.0701 58.1197L66.0501 51.7697L61.9102 45.5497L63.8201 44.4497L65.6602 47.5197C66.1702 48.3597 66.5501 49.0497 66.9601 49.8497L67.0002 49.8297C67.3702 48.6397 67.8102 47.4097 68.3102 45.9897L70.1701 40.7897L72.0801 39.6897L72.0901 39.6797Z" fill="#1F222A"/>
<path d="M9.63 99.6191V101.259L5.66 103.559L5.69 116.869L4 117.849L3.95999 104.539L0.00997925 106.819L0 105.179L9.63 99.6191Z" fill="#1F222A"/>
<path d="M15.8304 95.8001C19.3804 93.7501 21.6903 95.5501 21.7003 99.9901C21.7103 105.13 19.0004 109.44 15.6804 111.35C12.3604 113.26 9.83034 111.66 9.82034 107.14C9.81034 102.62 12.3604 97.8101 15.8404 95.8001H15.8304ZM15.7704 109.71C18.4304 108.17 19.9303 104.49 19.9203 101.1C19.9203 98.1301 18.5504 95.8101 15.7504 97.4201C12.9504 99.0301 11.5903 102.78 11.6003 106.06C11.6103 109.34 13.1204 111.25 15.7704 109.72" fill="#1F222A"/>
<path d="M64.3906 78.8697C64.8206 80.7097 65.1306 81.9697 65.4006 82.3897L63.6606 83.3897C63.4406 83.0897 63.1506 81.9697 62.7806 80.3197C62.3806 78.4797 61.6906 78.1097 60.1706 78.9197L58.5906 79.8297L58.6106 86.3097L56.9306 87.2797L56.8906 72.5297C57.7406 71.8297 58.9506 71.0197 60.1106 70.3497C61.9006 69.3097 63.0606 69.0297 63.8706 69.3997C64.5306 69.6797 64.9006 70.4897 64.9006 71.6397C64.9006 73.6097 63.8306 75.5497 62.4606 76.8697V76.9397C63.4606 76.7597 64.0706 77.4797 64.3806 78.8597L64.3906 78.8697ZM60.3106 77.3797C62.1006 76.3397 63.2406 74.5497 63.2306 72.8497C63.2306 70.9197 62.0106 70.7797 60.2306 71.7797C59.4206 72.2497 58.8406 72.6697 58.5706 72.9097L58.5906 78.3697L60.3106 77.3797Z" fill="#1F222A"/>
<path d="M76.0912 61.25L71.4012 70.32L76.5013 76L74.5112 77.15L70.2112 72.28L68.9812 74.64L69.0013 80.34L67.3212 81.31L67.2812 66.36L68.9612 65.39L68.9812 72.6L69.0412 72.57C69.3912 71.79 69.7312 71.06 70.0612 70.38L74.0212 62.47L76.1112 61.26L76.0912 61.25Z" fill="#1F222A"/>
<path d="M105.249 25.6992L106.789 29.8492L110.939 31.3892L106.789 32.9292L105.249 37.0792L103.709 32.9292L99.5586 31.3892L103.709 29.8492L105.249 25.6992Z" fill="#F79964"/>
<path d="M152.639 0L154.169 4.15L158.329 5.69L154.169 7.23L152.639 11.38L151.099 7.23L146.949 5.69L151.099 4.15L152.639 0Z" fill="#F79964"/>
<path d="M238.569 61.8398L240.109 65.9998L244.259 67.5298L240.109 69.0698L238.569 73.2198L237.029 69.0698L232.879 67.5298L237.029 65.9998L238.569 61.8398Z" fill="white"/>
<defs>
<linearGradient id="paint0_linear_1812_12745" x1="150.14" y1="168.151" x2="224.8" y2="168.151" gradientUnits="userSpaceOnUse">
<stop offset="0.16" stop-color="#454055"/>
<stop offset="0.55" stop-color="#2A253A"/>
</linearGradient>
<linearGradient id="paint1_linear_1812_12745" x1="183.588" y1="149.011" x2="190.888" y2="149.011" gradientUnits="userSpaceOnUse">
<stop offset="0.05" stop-color="#E5E5E5"/>
<stop offset="0.55" stop-color="#CCCCCC"/>
</linearGradient>
<linearGradient id="paint2_linear_1812_12745" x1="181.889" y1="135.131" x2="192.589" y2="135.131" gradientUnits="userSpaceOnUse">
<stop offset="0.16" stop-color="#454055"/>
<stop offset="0.55" stop-color="#2A253A"/>
</linearGradient>
</defs>
</svg>
