<svg width="316" height="269" viewBox="0 0 316 269" fill="none" xmlns="http://www.w3.org/2000/svg">
<path d="M65.8508 230.709L68.6408 236.699L58.3008 235.089L65.8508 230.709Z" fill="white"/>
<path d="M271.96 110.919L266.76 113.759C263.93 115.399 259.34 115.399 256.49 113.759L243.14 106.049C241.71 105.219 240.99 104.139 241 103.059V104.589C241 105.669 241.71 106.759 243.14 107.579L256.49 115.289C259.33 116.929 263.93 116.929 266.76 115.289L271.96 112.449C273.36 111.629 274.07 110.569 274.07 109.499V107.969C274.07 109.039 273.37 110.109 271.96 110.919Z" fill="#A7CFEE"/>
<path d="M271.931 104.969C274.771 106.609 274.791 109.269 271.961 110.919L266.761 113.759C263.931 115.399 259.341 115.399 256.491 113.759L243.141 106.049C240.301 104.409 240.281 101.749 243.111 100.099L248.311 97.2593C251.141 95.6193 255.731 95.6193 258.581 97.2593L271.931 104.969Z" fill="white"/>
<path d="M291.96 92.2487L286.76 95.0887C283.93 96.7287 279.34 96.7287 276.49 95.0887L263.14 87.3787C261.71 86.5487 260.99 85.4687 261 84.3887V85.9187C261 86.9987 261.71 88.0887 263.14 88.9087L276.49 96.6187C279.33 98.2587 283.93 98.2587 286.76 96.6187L291.96 93.7787C293.36 92.9587 294.07 91.8987 294.07 90.8287V89.2987C294.07 90.3687 293.37 91.4387 291.96 92.2487Z" fill="#A7CFEE"/>
<path d="M291.931 86.2994C294.771 87.9394 294.791 90.5994 291.961 92.2494L286.761 95.0894C283.931 96.7294 279.341 96.7294 276.491 95.0894L263.141 87.3794C260.301 85.7394 260.281 83.0794 263.111 81.4294L268.311 78.5894C271.141 76.9494 275.731 76.9494 278.581 78.5894L291.931 86.2994Z" fill="white"/>
<path d="M313.788 71.9186L308.588 74.7586C305.758 76.3986 301.168 76.3986 298.318 74.7586L284.968 67.0486C283.538 66.2186 282.818 65.1386 282.828 64.0586V65.5886C282.828 66.6686 283.538 67.7586 284.968 68.5786L298.318 76.2886C301.158 77.9286 305.758 77.9286 308.588 76.2886L313.788 73.4486C315.188 72.6286 315.898 71.5686 315.898 70.4986V68.9686C315.898 70.0386 315.198 71.1086 313.788 71.9186Z" fill="#A7CFEE"/>
<path d="M313.759 65.9693C316.599 67.6093 316.619 70.2693 313.789 71.9193L308.589 74.7593C305.759 76.3993 301.169 76.3993 298.319 74.7593L284.969 67.0493C282.129 65.4093 282.109 62.7493 284.939 61.0993L290.139 58.2593C292.969 56.6193 297.559 56.6193 300.409 58.2593L313.759 65.9693Z" fill="white"/>
<path d="M229.871 190.809C244.651 199.339 244.731 213.179 230.041 221.709L161.101 261.769C146.411 270.299 122.531 270.299 108.751 260.359L39.3609 220.299C23.5709 213.169 23.5009 199.339 38.1809 190.799L107.121 150.739C121.811 142.209 145.691 142.209 160.471 150.739L229.861 190.799L229.871 190.809Z" stroke="white" stroke-miterlimit="10"/>
<path d="M254.46 166.049L167.98 216.309C149.56 227.019 119.59 227.019 101.05 216.309L14.0001 166.049C4.67006 160.659 0.0100629 153.589 0.0300629 146.529L6.41027e-05 156.529C-0.0199359 163.589 4.64006 170.659 13.9701 176.049L101.02 226.309C119.56 237.019 149.53 237.019 167.95 226.309L254.43 176.049C263.58 170.729 268.16 163.769 268.18 156.799L268.21 146.799C268.19 153.769 263.61 160.729 254.46 166.049Z" fill="#A7CFEE"/>
<path d="M254.242 127.279C272.782 137.989 272.882 155.339 254.462 166.049L167.982 216.309C149.562 227.019 119.592 227.019 101.052 216.309L14.0015 166.049C-4.5385 155.339 -4.63848 137.989 13.7815 127.279L100.262 77.0188C118.682 66.3088 148.652 66.3088 167.192 77.0188L254.242 127.279Z" fill="white"/>
<path d="M175.057 45.3301C175.057 45.3301 171.737 45.5101 169.887 50.3101C168.037 55.1101 163.237 65.2601 163.237 65.2601L147.547 62.8601C147.547 62.8601 144.967 65.2601 146.627 67.6601C147.737 68.5801 163.977 72.0901 165.827 71.7201C167.677 71.3501 174.877 60.0901 174.877 60.0901C174.877 60.0901 180.047 49.9401 179.307 47.9101C178.567 45.8801 175.057 45.3301 175.057 45.3301Z" fill="#21386E"/>
<path d="M188.589 130.378C189.821 130.378 190.819 129.38 190.819 128.148C190.819 126.916 189.821 125.918 188.589 125.918C187.358 125.918 186.359 126.916 186.359 128.148C186.359 129.38 187.358 130.378 188.589 130.378Z" fill="#333333"/>
<path d="M170.468 115.818C170.468 117.048 169.468 118.048 168.238 118.048C167.008 118.048 166.008 117.048 166.008 115.818C166.008 114.588 167.008 113.588 168.238 113.588C169.468 113.588 170.468 114.588 170.468 115.818Z" fill="#333333"/>
<path d="M211.167 115.818C211.167 117.048 210.167 118.048 208.937 118.048C207.707 118.048 206.707 117.048 206.707 115.818C206.707 114.588 207.707 113.588 208.937 113.588C210.167 113.588 211.167 114.588 211.167 115.818Z" fill="#333333"/>
<path d="M192.029 115.49C191.919 115.57 191.799 115.65 191.669 115.73C191.519 115.82 191.359 115.9 191.189 115.98L190.119 126.32H187.199L186.009 115.98C185.849 115.91 185.699 115.83 185.559 115.75C185.419 115.67 185.289 115.58 185.169 115.49L167.319 114.84V113.15L167.309 114.25V115.94L185.169 116.59C185.289 116.68 185.419 116.77 185.559 116.85C185.699 116.93 185.849 117.01 186.009 117.08L187.199 127.42H190.119L191.189 117.08C191.359 117 191.519 116.92 191.669 116.83C191.669 116.83 191.689 116.82 191.699 116.81C191.819 116.74 191.929 116.66 192.029 116.59L209.869 115.94V114.84L192.039 115.49H192.029Z" fill="url(#paint0_linear_1827_12429)"/>
<path d="M209.86 113.149V114.849L192.03 115.499C191.79 115.679 191.51 115.849 191.19 115.989L190.12 126.329H187.2L186.01 115.989C185.85 115.919 185.7 115.839 185.56 115.759C185.42 115.679 185.29 115.589 185.17 115.499L167.32 114.849V113.159L185.15 112.509C185.39 112.329 185.67 112.159 185.99 112.019L187.06 101.689H189.99L191.17 112.029C191.33 112.099 191.48 112.169 191.62 112.259C191.76 112.339 191.89 112.429 192.01 112.519L209.86 113.169V113.149Z" fill="#625E6D"/>
<path d="M190.257 104.179C190.167 104.089 190.057 103.999 189.917 103.919C189.107 103.449 187.787 103.449 186.977 103.919C186.837 103.999 186.727 104.089 186.637 104.179H186.367V113.979C186.367 114.289 186.567 114.589 186.977 114.829C187.787 115.299 189.107 115.299 189.917 114.829C190.327 114.599 190.527 114.289 190.527 113.979V104.179H190.257Z" fill="url(#paint1_linear_1827_12429)"/>
<path d="M189.919 103.329C190.729 103.799 190.729 104.559 189.919 105.029C189.109 105.499 187.789 105.499 186.979 105.029C186.169 104.559 186.169 103.799 186.979 103.329C187.789 102.859 189.109 102.859 189.919 103.329Z" fill="#4E4E4E"/>
<path d="M191.097 97.2996C190.797 96.9996 190.337 96.7295 189.687 96.5595C188.867 96.3395 188.007 96.3395 187.187 96.5595C186.537 96.7395 186.077 96.9996 185.777 97.2996H185.387V104.75C185.387 105.37 185.957 106 187.107 106.34C187.977 106.6 188.907 106.6 189.777 106.34C190.917 106 191.497 105.38 191.497 104.75V97.2996H191.107H191.097Z" fill="url(#paint2_linear_1827_12429)"/>
<path d="M189.778 95.7087C192.068 96.3887 192.068 98.2087 189.778 98.8887C188.908 99.1487 187.978 99.1487 187.108 98.8887C184.818 98.2087 184.818 96.3887 187.108 95.7087C187.978 95.4487 188.908 95.4487 189.778 95.7087Z" fill="#4E4E4E"/>
<path d="M182.869 108.419L159.069 94.5792L159.059 92.6191L182.859 106.449L182.869 108.419Z" fill="#545786"/>
<path d="M182.859 106.448L159.059 92.6183L160.489 88.9883L184.289 102.818L182.859 106.448Z" fill="#6A70A4"/>
<path d="M184.288 102.819L160.488 88.9889L182.328 76.3789L206.128 90.2089L184.288 102.819Z" fill="#7B82B4"/>
<path d="M209.267 52.7384L185.457 38.8984L189.937 36.3184L213.737 50.1484L209.267 52.7384Z" fill="#7B82B4"/>
<path d="M206.128 90.2084L182.328 76.3784L185.458 38.8984L209.268 52.7384L206.128 90.2084Z" fill="#6A70A4"/>
<path d="M209.269 52.7384L213.739 50.1484L211.139 92.0984L205.709 95.2384L182.869 108.418L182.859 106.448L184.289 102.818L206.129 90.2084L209.269 52.7384Z" fill="#545786"/>
<path d="M179.977 85.4496C179.977 85.4496 170.127 98.2496 168.657 102.19C167.177 106.13 162.257 138.13 162.257 138.13C162.257 138.13 157.337 144.53 157.827 146.5C158.317 148.47 168.657 144.04 169.647 141.08V136.65L171.617 135.67L179.987 104.16C179.987 104.16 191.807 96.2796 192.297 91.8496C192.787 87.4196 187.377 81.9996 179.987 85.4496H179.977Z" fill="#1F2F3F"/>
<path d="M174.528 79.3694C174.528 79.3694 160.779 88.4094 157.829 91.8494C154.879 95.2994 146.009 126.309 146.009 126.309C146.009 126.309 140.589 131.729 142.069 132.709C143.549 133.689 150.929 131.229 151.919 129.259C152.909 127.289 150.438 130.239 152.898 127.289C155.358 124.339 166.189 98.2394 166.189 98.2394L180.469 89.3794L174.519 79.3594L174.528 79.3694Z" fill="#1F2F3F"/>
<path d="M172.648 73.8288C172.648 75.6988 171.508 83.4788 171.508 84.6188C172.268 87.0488 176.208 93.7188 181.418 94.7788C182.888 94.9288 185.618 95.1788 188.038 94.7288C190.108 94.3388 192.888 90.2088 194.098 88.3888C193.968 84.5688 193.198 81.6488 192.268 79.5288C189.588 77.4988 186.528 76.3088 183.838 75.0188C180.958 73.6388 174.518 70.8988 172.648 73.8288Z" fill="#1F2F3F"/>
<path d="M172.647 73.8282C173.527 77.6882 181.237 81.2082 185.377 81.4582C188.717 81.6582 191.257 80.9881 192.267 79.5281C194.627 74.0681 199.387 60.1082 198.257 56.4181C195.677 52.9081 191.937 49.4181 189.307 47.7881C185.657 45.5181 177.727 44.8281 174.497 45.8781C171.087 46.9881 171.717 54.0981 171.817 58.5381C171.907 62.5081 172.327 69.2882 172.657 73.8282H172.647Z" fill="#C7BFCE"/>
<path d="M190.31 47.9397C190.31 47.9397 190.71 51.8497 188.29 54.0097C188.29 54.0097 186.67 59.1397 185.05 62.0997C183.43 65.0697 181.27 78.8297 181.27 78.8297C181.27 78.8297 183.97 95.5597 184.51 96.6397C185.05 97.7197 192.33 95.5597 194.76 91.5097C196.11 88.5397 195.84 87.1897 195.84 87.1897L194.49 78.8297C194.49 78.8297 199.35 61.0197 199.35 58.5897C199.35 56.1597 198.81 54.2697 198 53.7297C197.19 53.1897 190.31 47.9297 190.31 47.9297V47.9397Z" fill="#203E79"/>
<path d="M181.539 46.0492C181.539 46.0492 178.299 50.4992 178.169 53.3292C178.039 56.1592 177.229 61.2892 177.229 61.2892L174.529 79.3692L169.129 85.8492L170.479 74.2492C170.479 74.2492 169.939 52.3992 171.019 49.6992C172.099 46.9992 173.389 46.4092 174.499 45.6292C175.609 44.8492 181.549 46.0592 181.549 46.0592L181.539 46.0492Z" fill="#203E79"/>
<path d="M179.377 52.3887L180.057 56.0287L179.247 57.7787L179.647 59.2687L176.277 75.3187L176.687 77.8787L179.377 75.8587L181.537 59.5387L182.757 57.5087L182.617 56.2987L185.447 54.5487L179.377 52.3887Z" fill="#203E79"/>
<path d="M188.202 46.0898C188.202 46.0898 189.502 46.3599 190.452 47.7099L191.262 49.4199C191.262 49.4199 190.592 52.3899 188.292 54.1399C186.002 55.8899 184.512 57.3799 184.512 57.3799L183.572 54.9499L180.872 55.7599L180.062 52.6599L178.172 53.3299C178.172 53.3299 178.982 50.7699 179.522 49.8199C180.062 48.8799 188.202 46.0898 188.202 46.0898Z" fill="white"/>
<path d="M180.152 45.3493C180.152 44.3793 183.502 43.2793 185.182 43.2793C186.862 43.2793 188.502 44.0393 188.552 44.9793C188.552 44.9793 188.882 47.7593 189.142 49.2293C189.332 51.8193 185.002 54.3493 182.632 53.4293C181.442 52.9693 181.212 52.2993 181.062 51.7393L180.152 45.3493Z" fill="#F37345"/>
<path d="M176.372 44.8394C176.132 44.0194 176.362 41.7195 176.362 41.7195C176.362 41.7195 176.112 40.7194 176.082 40.1194C175.862 36.1994 178.662 32.4995 183.192 31.7895C187.412 31.1295 190.302 33.3895 191.212 36.1595C191.752 37.7995 191.902 40.6295 190.912 42.7095C190.242 44.1195 188.982 45.3895 187.742 46.0195C187.742 46.5895 187.562 47.4895 187.182 47.8295C185.592 49.2195 182.112 51.7994 180.252 51.1194C179.472 50.8294 178.592 50.3895 178.232 49.7695C177.222 48.0395 176.862 46.4994 176.372 44.8394Z" fill="#F79456"/>
<path d="M180.28 30.7991C180.28 30.7991 175.24 33.4991 175.6 37.4591C176.14 40.1591 178.84 40.6991 181 40.6991C183.16 40.6991 184.24 42.4991 184.96 42.6791C185.68 42.8591 186.4 42.8591 186.4 42.8591L187.3 44.6591L187.84 41.7791L188.74 45.5591C188.74 45.5591 191.62 43.5791 192.16 40.5191C192.7 37.4591 192.7 34.3991 190.9 32.4291C189.1 30.4491 184.24 28.6491 180.29 30.8091L180.28 30.7991Z" fill="#171E26"/>
<path d="M187.742 41.9591C188.522 40.9091 190.072 41.2791 190.072 42.9591C190.072 44.9191 188.742 46.0191 187.742 46.0191V41.9591Z" fill="#F79456"/>
<path d="M80.7881 137.778L77.1781 135.678L77.0781 94.4082L80.6981 96.5082L80.7881 137.778Z" fill="#CC6B50"/>
<path d="M80.6981 96.5088L77.0781 94.4088L126.198 66.0488L129.818 68.1488L80.6981 96.5088Z" fill="#DCDBDB"/>
<path d="M129.819 68.1484L129.919 109.418L80.7892 137.778L80.6992 96.5084L129.819 68.1484Z" fill="#F48789"/>
<path d="M84.2072 88.6582L84.1172 129.928L168.117 178.368L168.217 137.098L84.2072 88.6582Z" fill="#F5A588"/>
<path d="M84.1562 111.748L168.166 160.178L168.216 137.098L84.2063 88.6582L84.1562 111.748Z" fill="#CF7968"/>
<path d="M165.077 182.378L161.467 180.278L161.367 139.008L164.977 141.108L165.077 182.378Z" fill="#CC6B50"/>
<path d="M164.977 141.108L161.367 139.008L210.487 110.648L214.097 112.748L164.977 141.108Z" fill="#DCDBDB"/>
<path d="M214.097 112.748L214.197 154.018L165.077 182.378L164.977 141.108L214.097 112.748Z" fill="#F4B99C"/>
<path d="M220.839 111.678L220.829 115.558L165.129 147.928L165.139 144.048L220.839 111.678Z" fill="#E28B6F"/>
<path d="M165.137 144.048L165.127 147.928L68.8672 91.9777L68.8772 88.0977L165.137 144.048Z" fill="#D68C63"/>
<path d="M220.839 111.679L165.139 144.049L68.8789 88.0985L124.579 55.7285L220.839 111.679Z" fill="#FBC5A9"/>
<path d="M182.566 93.6992L181.336 95.1792C181.336 95.1792 179.486 96.5292 178.996 97.2692C178.506 98.0092 177.276 101.579 177.766 101.699C178.256 101.819 178.506 102.069 179.486 102.069C180.466 102.069 183.546 100.219 184.166 99.3592C184.786 98.4992 185.146 96.1892 185.146 96.1892L185.766 95.0492L182.566 93.6992Z" fill="#F79456"/>
<path d="M182.747 92.0391L181.637 93.9791C181.637 93.9791 183.017 95.6391 185.147 96.1991L185.797 96.4791L186.717 94.4491L182.747 92.0491V92.0391Z" fill="white"/>
<path d="M195.976 54.0684C197.106 53.8384 198.156 54.0384 198.906 54.9184C199.616 55.7484 200.326 57.0985 200.426 59.1785C200.616 63.4285 199.436 76.5284 199.066 78.1884C198.686 79.8484 187.006 94.9884 187.006 94.9884C187.006 94.9884 184.306 95.9084 181.836 92.2184L191.556 75.2385C191.556 75.2385 192.666 61.2684 192.666 58.8684C192.666 56.9484 194.396 54.3984 195.986 54.0684H195.976Z" fill="#21386E"/>
<path d="M147.598 63.2386L145.938 63.0586C145.938 63.0586 144.828 64.8586 145.428 66.7486C145.568 67.0286 145.638 67.1886 145.638 67.1886L147.068 67.4686C147.068 67.4686 148.268 65.8786 147.598 63.2486V63.2386Z" fill="white"/>
<path d="M145.826 63.6083L144.286 63.1783L141.266 61.6383C141.266 61.6383 139.846 60.7783 139.846 61.2083C139.846 61.6383 140.096 62.4383 140.646 62.6883C141.196 62.9383 141.266 63.2383 141.266 63.2383L139.296 62.8683C139.296 62.8683 136.586 62.7483 136.646 63.0483C136.706 63.3583 136.956 63.9083 137.446 64.2183C137.936 64.5283 140.526 66.7983 141.266 66.9283C142.006 67.0483 144.466 66.7483 144.466 66.7483L145.146 66.5683L145.946 66.6883C145.946 66.6883 146.806 65.7683 145.826 63.6083Z" fill="#F79456"/>
<path d="M142.318 84.5982C144.668 85.9582 144.678 88.1482 142.348 89.4982L127.308 98.2382C124.978 99.5882 121.198 99.5982 118.838 98.2382L103.708 89.4982C101.368 88.1482 101.348 85.9482 103.678 84.5982L118.718 75.8582C121.048 74.5082 124.838 74.5082 127.188 75.8582L142.318 84.5982Z" fill="#E28B6F"/>
<path d="M128.919 86.8798C128.919 86.8798 128.919 86.8798 128.919 86.8898C128.909 86.9298 128.879 86.9698 128.859 87.0098C128.859 87.0098 128.859 87.0198 128.849 87.0298C128.819 87.0698 128.789 87.0998 128.749 87.1398C128.729 87.1598 128.699 87.1798 128.669 87.1998C128.639 87.2198 128.609 87.2498 128.569 87.2698L122.339 90.7298L115.609 86.8398V87.3098L122.339 91.1898L128.569 87.7298C128.569 87.7298 128.589 87.7198 128.609 87.7098C128.629 87.6998 128.649 87.6798 128.669 87.6598C128.699 87.6398 128.719 87.6198 128.749 87.5998C128.749 87.5998 128.759 87.5998 128.769 87.5898C128.799 87.5598 128.819 87.5398 128.839 87.5098C128.839 87.5098 128.839 87.5098 128.839 87.4998C128.839 87.4998 128.839 87.4898 128.849 87.4798C128.849 87.4698 128.869 87.4498 128.879 87.4398C128.889 87.4198 128.899 87.3898 128.909 87.3698C128.909 87.3698 128.909 87.3698 128.909 87.3598C128.909 87.3398 128.919 87.3298 128.919 87.3098C128.919 87.2898 128.919 87.2598 128.919 87.2398V86.7598C128.919 86.7998 128.919 86.8498 128.899 86.8898L128.919 86.8798Z" fill="#BBC0D2"/>
<path d="M128.578 86.2498C129.058 86.5298 129.048 86.9798 128.558 87.2498L122.328 90.7099L115.598 86.8198L120.858 82.8098C121.318 82.5198 122.118 82.5098 122.598 82.7898L128.578 86.2399V86.2498Z" fill="white"/>
<path d="M137.797 71.549C138.327 71.849 138.817 72.559 138.907 73.129L142.127 94.809C142.207 95.379 141.857 95.589 141.327 95.289L108.437 76.269C107.907 75.969 107.417 75.259 107.337 74.689L104.117 53.009C104.037 52.439 104.387 52.229 104.917 52.529L137.807 71.549H137.797Z" fill="#C7C9D7"/>
<path d="M142.666 94.5989C142.666 94.5989 142.666 94.5989 142.666 94.5889C142.666 94.5789 142.666 94.5589 142.666 94.5489C142.666 94.5389 142.666 94.5189 142.666 94.5089C142.666 94.4989 142.666 94.4789 142.666 94.4689C142.666 94.4589 142.666 94.4389 142.666 94.4289L139.446 72.7489C139.446 72.7289 139.446 72.7189 139.446 72.7089C139.446 72.6989 139.446 72.6789 139.446 72.6689C139.446 72.6589 139.446 72.6389 139.436 72.6289C139.426 72.6189 139.436 72.5989 139.426 72.5889C139.426 72.5789 139.426 72.5589 139.416 72.5489C139.416 72.5389 139.416 72.5189 139.406 72.5089C139.406 72.4989 139.406 72.4789 139.386 72.4689C139.366 72.4589 139.376 72.4389 139.366 72.4289C139.366 72.4189 139.356 72.3989 139.346 72.3889C139.346 72.3789 139.336 72.3589 139.326 72.3489C139.326 72.3489 139.326 72.3289 139.316 72.3189C139.316 72.3089 139.306 72.2989 139.296 72.2789C139.296 72.2689 139.286 72.2589 139.276 72.2489C139.276 72.2489 139.276 72.2289 139.266 72.2189C139.266 72.2189 139.256 72.1989 139.246 72.1889C139.246 72.1889 139.246 72.1689 139.236 72.1589C139.236 72.1589 139.236 72.1389 139.226 72.1389C139.226 72.1389 139.226 72.1389 139.226 72.1289V72.1189C139.226 72.1189 139.226 72.0989 139.216 72.0989C139.216 72.0989 139.216 72.0789 139.206 72.0789C139.206 72.0789 139.206 72.0589 139.196 72.0589C139.196 72.0589 139.196 72.0389 139.186 72.0389C139.176 72.0389 139.176 72.0189 139.166 72.0189C139.166 72.0089 139.156 71.9989 139.146 71.9889C139.146 71.9789 139.136 71.9689 139.126 71.9589C139.126 71.9589 139.126 71.9489 139.116 71.9389C139.116 71.9389 139.116 71.9289 139.106 71.9189C139.076 71.8689 139.036 71.8289 139.006 71.7789C138.996 71.7689 138.986 71.7589 138.976 71.7389C138.976 71.7389 138.976 71.7389 138.966 71.7289C138.966 71.7289 138.966 71.7289 138.956 71.7189C138.956 71.7189 138.936 71.6989 138.936 71.6889C138.936 71.6889 138.926 71.6789 138.916 71.6689C138.916 71.6689 138.906 71.6589 138.896 71.6489C138.896 71.6489 138.886 71.6389 138.876 71.6289C138.876 71.6289 138.866 71.6189 138.856 71.6089C138.856 71.6089 138.846 71.5989 138.836 71.5889C138.826 71.5789 138.826 71.5789 138.816 71.5689C138.816 71.5689 138.806 71.5589 138.796 71.5489C138.796 71.5489 138.776 71.5289 138.766 71.5189C138.756 71.5089 138.746 71.4989 138.736 71.4989C138.736 71.4989 138.716 71.4789 138.706 71.4789C138.696 71.4789 138.686 71.4589 138.676 71.4489C138.666 71.4489 138.656 71.4289 138.646 71.4189C138.636 71.4089 138.626 71.3989 138.606 71.3889C138.596 71.3889 138.586 71.3689 138.566 71.3589C138.556 71.3589 138.536 71.3389 138.526 71.3289C138.516 71.3289 138.496 71.3089 138.486 71.2989C138.476 71.2989 138.456 71.2789 138.446 71.2689C138.436 71.2689 138.416 71.2489 138.406 71.2489L105.516 52.2289C105.516 52.2289 105.486 52.2089 105.476 52.2089C105.466 52.2089 105.446 52.1989 105.436 52.1889C105.426 52.1889 105.406 52.1789 105.396 52.1689C105.386 52.1689 105.376 52.1589 105.356 52.1489C105.346 52.1489 105.336 52.1489 105.316 52.1389C105.316 52.1389 105.296 52.1389 105.286 52.1389C105.276 52.1389 105.256 52.1389 105.246 52.1289C105.236 52.1289 105.226 52.1289 105.206 52.1289C105.196 52.1289 105.176 52.1289 105.166 52.1289C105.156 52.1289 105.136 52.1289 105.126 52.1289C105.126 52.1289 105.096 52.1289 105.086 52.1289C105.066 52.1289 105.056 52.1289 105.046 52.1289C105.026 52.1289 105.016 52.1289 104.996 52.1289C104.996 52.1289 104.996 52.1289 104.986 52.1289C104.986 52.1289 104.986 52.1289 104.976 52.1289C104.966 52.1289 104.956 52.1289 104.946 52.1289C104.916 52.1389 104.886 52.1589 104.866 52.1689L104.336 52.5589C104.336 52.5589 104.406 52.5189 104.456 52.5089C104.456 52.5089 104.456 52.5089 104.466 52.5089C104.506 52.5089 104.556 52.4989 104.616 52.5089C104.666 52.5089 104.726 52.5289 104.796 52.5489C104.856 52.5689 104.926 52.5989 104.996 52.6389L137.886 71.6589C137.956 71.6989 138.016 71.7389 138.076 71.7889C138.136 71.8389 138.206 71.8889 138.266 71.9489C138.326 72.0089 138.386 72.0689 138.436 72.1389C138.496 72.2089 138.546 72.2689 138.596 72.3389C138.646 72.4089 138.696 72.4789 138.736 72.5589C138.776 72.6389 138.816 72.7089 138.846 72.7889C138.876 72.8689 138.906 72.9389 138.926 73.0089C138.946 73.0789 138.966 73.1589 138.976 73.2289L142.196 94.9089C142.196 94.9789 142.206 95.0389 142.206 95.0889C142.206 95.1389 142.206 95.1889 142.186 95.2389C142.186 95.2689 142.166 95.2989 142.146 95.3289C142.116 95.3789 142.086 95.4189 142.046 95.4489L142.576 95.0589C142.576 95.0589 142.646 94.9889 142.676 94.9389C142.676 94.9389 142.676 94.9389 142.686 94.9189C142.686 94.8989 142.706 94.8789 142.706 94.8589C142.706 94.8589 142.706 94.8589 142.706 94.8489C142.706 94.8389 142.706 94.8289 142.706 94.8189C142.706 94.8089 142.706 94.7889 142.706 94.7689C142.706 94.7589 142.706 94.7389 142.706 94.7289V94.7089L142.666 94.5989Z" fill="white"/>
<path opacity="0.2" d="M119.588 83.7891L115.598 86.8291L122.328 90.7191L127.038 88.0991L119.588 83.7891Z" fill="#787EB2"/>
<path d="M123.736 77.3696L122.326 91.2196L115.566 87.3096L118.206 74.3496L123.736 77.3696Z" fill="#BBC0D2"/>
<path d="M158.477 115.94L168.757 121.9L185.367 112.31L175.097 106.34L158.477 115.94Z" fill="#E28B6F"/>
<path d="M156.598 112.389L156.608 114.939L166.878 120.899L166.868 118.359L156.598 112.389Z" fill="#CBDCEB"/>
<path d="M166.867 118.36L166.877 120.9L183.497 111.31L183.487 108.76L166.867 118.36Z" fill="#A7CFEE"/>
<path d="M156.598 112.389L166.868 118.359L183.488 108.759L173.218 102.789L156.598 112.389Z" fill="white"/>
<path d="M143.848 104.059L154.118 110.029L170.738 100.439L160.468 94.4688L143.848 104.059Z" fill="white"/>
<path d="M131.558 166.709C137.218 169.979 137.248 175.279 131.628 178.549L105.228 193.889C99.6082 197.159 90.4582 197.159 84.7982 193.889L58.2182 178.549C52.5582 175.279 52.5282 169.979 58.1482 166.709L84.5482 151.369C90.1682 148.099 99.3182 148.099 104.978 151.369L131.558 166.709Z" fill="#CBDCEB"/>
<path d="M89.7295 185.378C89.7295 186.608 88.7295 187.608 87.4995 187.608C86.2695 187.608 85.2695 186.608 85.2695 185.378C85.2695 184.148 86.2695 183.148 87.4995 183.148C88.7295 183.148 89.7295 184.148 89.7295 185.378Z" fill="#333333"/>
<path d="M69.3897 173.048C69.3897 174.278 68.3897 175.278 67.1597 175.278C65.9297 175.278 64.9297 174.278 64.9297 173.048C64.9297 171.818 65.9297 170.818 67.1597 170.818C68.3897 170.818 69.3897 171.818 69.3897 173.048Z" fill="#333333"/>
<path d="M110.081 173.048C110.081 174.278 109.081 175.278 107.851 175.278C106.621 175.278 105.621 174.278 105.621 173.048C105.621 171.818 106.621 170.818 107.851 170.818C109.081 170.818 110.081 171.818 110.081 173.048Z" fill="#333333"/>
<path d="M90.9388 172.719C90.8288 172.799 90.7088 172.879 90.5788 172.959C90.4288 173.049 90.2688 173.129 90.0988 173.209L89.0288 183.549H86.1087L84.9188 173.209C84.7588 173.139 84.6088 173.059 84.4688 172.979C84.3287 172.899 84.1988 172.809 84.0788 172.719L66.2288 172.069V170.379L66.2188 171.479V173.169L84.0788 173.819C84.1988 173.909 84.3287 173.999 84.4688 174.079C84.6088 174.159 84.7588 174.239 84.9188 174.309L86.1087 184.649H89.0288L90.0988 174.309C90.2688 174.229 90.4288 174.149 90.5788 174.059C90.5788 174.059 90.5987 174.049 90.6087 174.039C90.7287 173.969 90.8388 173.889 90.9388 173.819L108.779 173.169V172.069L90.9488 172.719H90.9388Z" fill="url(#paint3_linear_1827_12429)"/>
<path d="M108.77 170.378V172.078L90.9405 172.728C90.7005 172.908 90.4205 173.078 90.1005 173.218L89.0305 183.558H86.1105L84.9205 173.218C84.7605 173.148 84.6105 173.068 84.4705 172.988C84.3305 172.908 84.2005 172.818 84.0805 172.728L66.2305 172.078V170.388L84.0605 169.728C84.3005 169.548 84.5805 169.378 84.9005 169.238L85.9705 158.908H88.9005L90.0805 169.248C90.2405 169.318 90.3905 169.388 90.5305 169.478C90.6705 169.558 90.8005 169.648 90.9205 169.738L108.77 170.388V170.378Z" fill="#625E6D"/>
<path d="M89.1673 161.409C89.0773 161.319 88.9673 161.229 88.8273 161.149C88.0173 160.679 86.6973 160.679 85.8873 161.149C85.7473 161.229 85.6373 161.319 85.5473 161.409H85.2773V171.209C85.2773 171.519 85.4773 171.819 85.8873 172.059C86.6973 172.529 88.0173 172.529 88.8273 172.059C89.2373 171.829 89.4373 171.519 89.4373 171.209V161.409H89.1673Z" fill="url(#paint4_linear_1827_12429)"/>
<path d="M88.8287 160.56C89.6387 161.03 89.6387 161.79 88.8287 162.26C88.0187 162.73 86.6988 162.73 85.8888 162.26C85.0788 161.79 85.0788 161.03 85.8888 160.56C86.6988 160.09 88.0187 160.09 88.8287 160.56Z" fill="#4E4E4E"/>
<path d="M90.0186 154.53C89.7186 154.23 89.2586 153.96 88.6086 153.79C87.7886 153.57 86.9286 153.57 86.1086 153.79C85.4586 153.97 84.9986 154.23 84.6986 154.53H84.3086V161.98C84.3086 162.6 84.8786 163.23 86.0286 163.57C86.8986 163.83 87.8286 163.83 88.6986 163.57C89.8386 163.23 90.4186 162.61 90.4186 161.98V154.53H90.0286H90.0186Z" fill="url(#paint5_linear_1827_12429)"/>
<path d="M88.6883 152.939C90.9783 153.619 90.9783 155.439 88.6883 156.119C87.8183 156.379 86.8883 156.379 86.0183 156.119C83.7283 155.439 83.7283 153.619 86.0183 152.939C86.8883 152.679 87.8183 152.679 88.6883 152.939Z" fill="#4E4E4E"/>
<path d="M90.9811 159.91L68.1211 146.62L89.1011 134.51L111.961 147.8L90.9811 159.91Z" fill="#7B82B4"/>
<path d="M103.501 162.629C103.501 162.629 102.041 167.159 103.101 168.219C104.171 169.289 105.501 169.549 106.471 169.239C107.451 168.929 108.381 168.489 108.381 168.489L108.691 167.559L109.051 168.179C109.051 168.179 109.581 168.089 110.291 167.689C111.001 167.289 113.041 166.489 113.891 165.959C114.731 165.429 116.241 164.499 116.381 163.339C116.471 162.189 112.341 162.589 111.231 162.629C110.121 162.669 109.411 162.229 109.011 162.229C108.611 162.229 104.301 162.759 104.301 162.759" fill="#171E26"/>
<path d="M88.6198 136.859C88.6198 136.859 102.9 132.369 106.58 133.389C110.25 134.409 111.89 135.629 112.09 137.269C112.29 138.899 109.64 162.369 109.64 162.369C109.64 162.369 107.8 164.609 104.54 163.999C102.09 163.389 101.89 162.779 101.89 162.779C101.89 162.779 101.89 148.699 101.48 146.659C101.07 144.619 101.68 142.369 101.68 142.369C101.68 142.369 93.1098 145.629 90.6598 143.799C88.2098 141.959 86.5798 139.309 88.6198 136.859Z" fill="#171E26"/>
<path d="M84.8086 138.968C84.8086 138.968 86.4386 146.318 90.7986 149.578C95.1486 152.838 107.399 149.308 107.399 149.308L110.259 148.288L113.729 148.698C113.729 148.698 113.389 161.008 113.659 162.638C113.929 164.268 114.749 172.158 114.479 172.978C114.479 173.798 118.289 175.158 120.189 173.798L121.819 172.708C121.819 172.708 124.539 152.028 124.269 147.678C123.999 143.328 121.819 141.418 120.189 140.608C118.559 139.788 99.2386 138.708 98.1486 138.428C97.0586 138.158 84.8186 138.968 84.8186 138.968H84.8086Z" fill="#1F2F3F"/>
<path d="M103.939 111.729C104.009 110.179 103.269 108.709 101.979 107.849C99.1187 105.939 95.2187 103.518 92.6987 102.188C89.5687 100.538 86.3387 98.7985 84.6087 98.6385C79.7887 98.1885 76.8887 102.679 77.3387 108.569C77.6187 112.149 78.5687 116.139 79.8687 120.239C80.4187 121.989 80.7987 125.079 80.9387 127.919C80.9087 129.289 80.7887 130.848 80.4187 131.748C80.0087 132.718 79.5887 134.059 79.2887 135.109C78.9687 136.199 79.3487 137.359 80.2287 138.079C82.2487 139.719 86.2487 142.428 90.9887 142.748C97.8587 143.218 100.509 141.808 100.509 141.808L101.909 141.498C101.909 141.498 103.159 141.028 103.309 139.778C103.449 138.648 102.249 133.308 101.999 131.438C102.399 127.548 103.179 121.828 103.419 119.218C103.649 116.818 103.829 114.079 103.929 111.729H103.939Z" fill="#F2F9FD"/>
<path d="M98.8787 97.1292C99.3587 95.6192 99.5287 89.5192 98.9187 87.3992C98.1387 84.6692 95.4887 82.2992 91.5187 82.4892C87.7087 82.6792 84.8987 84.3592 83.9687 87.1992C83.4187 88.8792 83.5387 91.8292 84.5587 93.9692C85.2487 95.4192 86.8187 96.6992 88.5287 97.5992C89.7287 98.2892 93.1187 99.8592 94.7887 100.339C96.7387 100.909 98.1787 99.3092 98.8787 97.1292Z" fill="#F79456"/>
<path d="M87.6583 96.0801C89.5683 95.3101 93.9483 96.1401 95.4783 97.4001C95.4783 97.4001 93.9683 103.48 93.9483 103.48C91.1583 103.63 87.1883 102.24 86.2383 101.1L87.6483 96.09L87.6583 96.0801Z" fill="#F79456"/>
<path d="M95.4798 93.2194C94.6798 92.1394 93.0898 92.5294 93.0898 94.2494C93.0898 96.2594 94.4498 97.3894 95.4798 97.3894C95.4798 96.0994 95.5298 94.7594 95.4798 93.2194Z" fill="#F79456"/>
<path d="M86.8178 99.1995C86.8178 99.1995 89.0778 101.149 94.4678 101.929L95.4778 103.719C95.4778 103.719 93.2178 104.419 90.5578 104.109C87.9078 103.799 85.7178 101.689 85.4878 101.219L85.2578 100.749L86.8178 99.1895V99.1995Z" fill="#F2F9FD"/>
<path d="M82.5987 88.589C82.5987 88.589 82.0887 83.869 86.4187 81.879C90.7487 79.889 96.4087 81.219 98.6287 84.259C100.149 86.839 98.0387 88.939 97.5787 89.879C97.1087 90.819 97.5787 92.689 97.1087 93.389C96.6387 94.089 97.2287 95.1491 97.2287 95.1491L96.4087 95.849C96.4087 95.849 95.5887 94.329 95.1187 93.979C94.6487 93.629 93.2087 94.919 93.5187 96.169C93.8287 97.419 94.9987 98.119 94.9987 98.119C94.9987 98.119 94.5287 98.4291 94.0587 98.7391C93.5887 99.0491 92.6587 99.289 91.1687 99.289C89.6787 99.289 87.6587 98.589 86.8787 98.119C86.0987 97.649 83.7587 95.929 82.8187 93.909C81.8787 91.879 81.6487 89.929 82.5887 88.599L82.5987 88.589Z" fill="#673F2A"/>
<path d="M86.1994 167.259L63.3294 153.979L60.6094 116.699L83.4794 129.979L86.1994 167.259Z" fill="#545786"/>
<path d="M83.4794 129.979L60.6094 116.699L64.9094 114.219L87.7694 127.499L83.4794 129.979Z" fill="#7B82B4"/>
<path d="M87.7705 127.498L90.9805 159.908L111.96 147.798L113.35 149.688V151.578L91.4105 164.248L86.2005 167.258L83.4805 129.978L87.7705 127.498Z" fill="#6A70A4"/>
<path d="M115.739 173.449C115.739 173.449 114.279 177.979 115.339 179.039C116.409 180.109 117.739 180.369 118.709 180.059C119.689 179.749 120.619 179.309 120.619 179.309L120.929 178.379L121.289 178.999C121.289 178.999 121.819 178.909 122.529 178.509C123.239 178.109 125.279 177.309 126.129 176.779C126.969 176.249 128.479 175.319 128.619 174.159C128.709 173.009 124.579 173.409 123.469 173.449C122.359 173.489 121.649 173.049 121.249 173.049C120.849 173.049 116.539 173.579 116.539 173.579" fill="#171E26"/>
<path d="M127.52 113.258C127.52 113.258 129.83 110.398 130.78 110.268C131.73 110.128 134.72 109.858 135.81 110.268C136.9 110.678 136.63 111.488 136.35 112.168C136.08 112.848 134.45 113.938 133.09 114.208L131.73 114.478L130.1 115.298L127.52 113.258Z" fill="#F79456"/>
<path d="M98.958 106.049C98.958 106.049 101.948 106.589 103.588 109.309C105.218 112.029 111.208 118.289 112.568 118.829C113.928 119.369 125.898 112.839 127.528 112.569C129.158 112.299 130.518 113.389 130.788 115.019C131.058 116.649 118.548 127.259 113.918 127.529C109.288 127.799 101.678 121.269 98.408 118.279C95.148 115.289 94.598 106.039 98.948 106.039L98.958 106.049Z" fill="#F2F9FD"/>
<path d="M169.152 259.288C169.852 259.698 170.722 259.698 171.432 259.288L174.872 257.308C176.382 256.438 176.392 254.248 174.872 253.368C174.172 252.958 173.302 252.958 172.592 253.368L169.152 255.348C167.642 256.218 167.632 258.408 169.152 259.288Z" fill="white"/>
<path d="M179.98 253.039C180.68 253.449 181.55 253.449 182.26 253.039L226.72 227.369C228.23 226.499 228.24 224.309 226.72 223.429C226.02 223.019 225.15 223.019 224.44 223.429L179.98 249.099C178.47 249.969 178.46 252.159 179.98 253.039Z" fill="white"/>
<path d="M59.1328 48.3081V50.0581C59.1328 51.0881 60.2428 51.7381 61.1428 51.2181L96.5428 31.2981C96.9628 31.0581 97.2128 30.6181 97.2128 30.1381V28.3881C97.2128 27.3581 96.1028 26.7081 95.2028 27.2281L59.8028 47.1481C59.3928 47.3881 59.1328 47.8281 59.1328 48.3081Z" fill="#F2F9FE"/>
<path d="M32.9709 71.979V73.729C32.9709 74.759 34.0809 75.399 34.9709 74.889L96.5309 39.999C96.9509 39.759 97.2009 39.319 97.2009 38.839V37.089C97.2009 36.059 96.0909 35.419 95.1909 35.929L33.6309 70.829C33.2109 71.069 32.9609 71.509 32.9609 71.989L32.9709 71.979Z" fill="#F2F9FE"/>
<g opacity="0.53">
<path d="M47.1506 81.2572V83.0072C47.1506 84.0372 48.2606 84.6772 49.1506 84.1672L96.5206 57.4072C96.9406 57.1672 97.1906 56.7272 97.1906 56.2472V54.4972C97.1906 53.4672 96.0806 52.8272 95.1806 53.3372L47.8106 80.0972C47.3906 80.3372 47.1406 80.7772 47.1406 81.2572H47.1506Z" fill="#F2F9FE"/>
</g>
<path d="M38.3008 77.6282V79.3782C38.3008 80.4082 39.4108 81.0482 40.3008 80.5382L96.5208 48.6982C96.9408 48.4582 97.1908 48.0182 97.1908 47.5382V45.7882C97.1908 44.7582 96.0808 44.1182 95.1908 44.6282L38.9708 76.4682C38.5508 76.7082 38.3008 77.1482 38.3008 77.6282Z" fill="#F2F9FE"/>
<path d="M15.2698 50.9883L15.3098 65.9383L13.6298 66.9083L13.5898 51.9583L15.2698 50.9883Z" fill="#3B7CF2"/>
<path d="M27.9692 43.6582L28.0092 58.6082L26.3092 59.5882L22.1592 54.3882C21.2492 53.2582 20.3792 52.0482 19.7092 50.8082L19.6492 50.8682C19.7492 52.6982 19.7892 54.4782 19.7992 56.9582L19.8192 63.3382L18.2392 64.2482L18.1992 49.2982L20.0392 48.2382L24.2192 53.3982C25.1992 54.5882 25.9492 55.7282 26.5692 56.9082L26.6092 56.8682C26.4492 54.9582 26.4092 53.1682 26.3992 50.8282L26.3792 44.5782L27.9592 43.6682L27.9692 43.6582Z" fill="#3B7CF2"/>
<path d="M39.048 37.2578V38.9078L35.078 41.1978L35.118 54.4978L33.418 55.4778L33.378 42.1778L29.418 44.4678V42.8178L39.048 37.2578Z" fill="#3B7CF2"/>
<path d="M47.5183 32.3691L47.5283 33.9892L42.1783 37.0792L42.1883 41.7992L47.2483 38.8792V40.4792L42.1983 43.3992L42.2083 48.7892L47.8483 45.5291V47.1492L40.5383 51.3691L40.4883 36.4292L47.5183 32.3691Z" fill="#3B7CF2"/>
<path d="M57.5 37.4695C57.93 39.3095 58.24 40.5795 58.51 40.9895L56.77 41.9895C56.56 41.6895 56.26 40.5795 55.89 38.9295C55.49 37.0895 54.8 36.7095 53.28 37.5295L51.7 38.4395L51.72 44.9095L50.04 45.8795L50 31.1295C50.85 30.4395 52.06 29.6295 53.22 28.9595C55.01 27.9195 56.17 27.6295 56.98 28.0095C57.64 28.2995 58.01 29.1095 58.01 30.2595C58.01 32.2295 56.94 34.1595 55.58 35.4895V35.5595C56.58 35.3795 57.18 36.0995 57.5 37.4695ZM53.42 35.9795C55.21 34.9395 56.35 33.1595 56.34 31.4495C56.34 29.5195 55.12 29.3795 53.34 30.3795C52.53 30.8495 51.95 31.2695 51.68 31.5095L51.7 36.9695L53.42 35.9795Z" fill="#3B7CF2"/>
<path d="M70.0491 19.3577L65.4391 36.9877L63.5791 38.0576L59.2891 25.5677L61.0991 24.5177L63.1491 30.7077C63.7191 32.4077 64.1991 33.9477 64.5491 35.4977L64.5891 35.4677C64.9491 33.5377 65.4891 31.3377 66.0591 29.0477L68.2391 20.3877L70.0291 19.3477L70.0491 19.3577Z" fill="#3B7CF2"/>
<path d="M73.1409 17.5781L73.1809 32.5181L71.5009 33.4881L71.4609 18.5481L73.1409 17.5781Z" fill="#3B7CF2"/>
<path d="M83.0981 11.8281V13.4481L77.7581 16.5281L77.7681 21.2481L82.8281 18.3281V19.9281L77.7781 22.8481L77.7881 28.2381L83.4181 24.9881L83.4281 26.6081L76.1181 30.8281L76.0781 15.8781L83.0981 11.8281Z" fill="#3B7CF2"/>
<path d="M100.449 1.80859L96.7986 18.8886L95.0386 19.8986L93.3786 13.0586C92.9686 11.3786 92.6986 10.0786 92.5186 8.66859C92.2586 10.3086 91.9686 11.9386 91.4886 14.1486L89.6586 22.9986L87.8986 24.0086L84.5586 10.9686L86.3286 9.94859L87.8986 16.6186C88.2886 18.2586 88.6386 19.9186 88.8786 21.2286C89.1186 19.5986 89.5286 17.5886 89.9586 15.4086L91.6786 6.86859L93.4386 5.8586L95.0386 12.5286C95.4186 14.0886 95.7686 15.6586 95.9586 17.1286C96.2686 15.3086 96.6286 13.4386 97.0286 11.3386L98.7286 2.80859L100.449 1.81859V1.80859Z" fill="#3B7CF2"/>
<path d="M136.068 16.3398H171.218C174.078 16.3398 176.388 18.6499 176.388 21.5099C176.388 24.3699 174.078 26.6799 171.218 26.6799H168.638L166.138 29.1799L163.638 26.6799H136.068C133.218 26.6799 130.898 24.3699 130.898 21.5099C130.898 18.6499 133.208 16.3398 136.068 16.3398Z" fill="#FBC93B"/>
<path d="M146.119 23.16H169.249C169.569 23.16 169.829 22.9 169.829 22.58C169.829 22.26 169.569 22 169.249 22H146.119C145.799 22 145.539 22.26 145.539 22.58C145.539 22.9 145.799 23.16 146.119 23.16Z" fill="white"/>
<path d="M153.35 19.9706H169.25C169.57 19.9706 169.83 19.7106 169.83 19.3906C169.83 19.0706 169.57 18.8105 169.25 18.8105H153.35C153.03 18.8105 152.77 19.0706 152.77 19.3906C152.77 19.7106 153.03 19.9706 153.35 19.9706Z" fill="white"/>
<path d="M138.947 0H171.227C173.847 0 175.977 2.13 175.977 4.75C175.977 7.37 173.847 9.5 171.227 9.5H168.857L166.567 11.79L164.277 9.5H138.957C136.337 9.5 134.207 7.37 134.207 4.75C134.207 2.13 136.337 0 138.957 0H138.947Z" fill="#7D7FBD"/>
<path d="M169.599 5.47017H140.749C140.459 5.47017 140.219 5.23016 140.219 4.94016C140.219 4.65016 140.459 4.41016 140.749 4.41016H169.599C169.889 4.41016 170.129 4.65016 170.129 4.94016C170.129 5.23016 169.889 5.47017 169.599 5.47017Z" fill="white"/>
<path d="M61.1384 64.6895H93.4184C96.0384 64.6895 98.1684 66.8195 98.1684 69.4395C98.1684 72.0595 96.0384 74.1895 93.4184 74.1895H91.0484L88.7584 76.4795L86.4684 74.1895H61.1484C58.5284 74.1895 56.3984 72.0595 56.3984 69.4395C56.3984 66.8195 58.5284 64.6895 61.1484 64.6895H61.1384Z" fill="#92CA63"/>
<path d="M91.7902 70.1596H62.9402C62.6502 70.1596 62.4102 69.9196 62.4102 69.6296C62.4102 69.3396 62.6502 69.0996 62.9402 69.0996H91.7902C92.0802 69.0996 92.3202 69.3396 92.3202 69.6296C92.3202 69.9196 92.0802 70.1596 91.7902 70.1596Z" fill="white"/>
<defs>
<linearGradient id="paint0_linear_1827_12429" x1="167.299" y1="120.28" x2="209.859" y2="120.28" gradientUnits="userSpaceOnUse">
<stop offset="0.16" stop-color="#454055"/>
<stop offset="0.55" stop-color="#2A253A"/>
</linearGradient>
<linearGradient id="paint1_linear_1827_12429" x1="186.367" y1="109.369" x2="190.527" y2="109.369" gradientUnits="userSpaceOnUse">
<stop offset="0.05" stop-color="#E5E5E5"/>
<stop offset="0.55" stop-color="#CCCCCC"/>
</linearGradient>
<linearGradient id="paint2_linear_1827_12429" x1="185.397" y1="101.46" x2="191.497" y2="101.46" gradientUnits="userSpaceOnUse">
<stop offset="0.16" stop-color="#454055"/>
<stop offset="0.55" stop-color="#2A253A"/>
</linearGradient>
<linearGradient id="paint3_linear_1827_12429" x1="66.2087" y1="177.509" x2="108.779" y2="177.509" gradientUnits="userSpaceOnUse">
<stop offset="0.16" stop-color="#454055"/>
<stop offset="0.55" stop-color="#2A253A"/>
</linearGradient>
<linearGradient id="paint4_linear_1827_12429" x1="85.2773" y1="166.599" x2="89.4373" y2="166.599" gradientUnits="userSpaceOnUse">
<stop offset="0.05" stop-color="#E5E5E5"/>
<stop offset="0.55" stop-color="#CCCCCC"/>
</linearGradient>
<linearGradient id="paint5_linear_1827_12429" x1="84.3086" y1="158.69" x2="90.4086" y2="158.69" gradientUnits="userSpaceOnUse">
<stop offset="0.16" stop-color="#454055"/>
<stop offset="0.55" stop-color="#2A253A"/>
</linearGradient>
</defs>
</svg>
