<svg width="25" height="22" viewBox="0 0 25 22" fill="none" xmlns="http://www.w3.org/2000/svg">
<path d="M13.31 15.8889H10.89C10.2245 15.8889 9.68 15.3389 9.68 14.6667H1.2221V19.5556C1.2221 20.9 2.3111 22 3.6421 22H20.57C21.901 22 22.99 20.9 22.99 19.5556V14.6667H14.52C14.52 15.3389 13.9755 15.8889 13.31 15.8889ZM21.78 4.88889H16.94C16.94 2.18778 14.7741 0 12.1 0C9.4259 0 7.26 2.18778 7.26 4.88889H2.42C1.089 4.88889 0 5.98889 0 7.33333V11C0 12.3567 1.0769 13.4444 2.42 13.4444H9.68V12.2222C9.68 11.55 10.2245 11 10.89 11H13.31C13.9755 11 14.52 11.55 14.52 12.2222V13.4444H21.78C23.111 13.4444 24.2 12.3444 24.2 11V7.33333C24.2 5.98889 23.111 4.88889 21.78 4.88889ZM9.68 4.88889C9.68 3.54444 10.769 2.44444 12.1 2.44444C13.431 2.44444 14.52 3.54444 14.52 4.88889H9.6679H9.68Z" fill="#0C2160"/>
</svg>
