<svg width="22" height="22" viewBox="0 0 22 22" fill="none" xmlns="http://www.w3.org/2000/svg">
<path d="M2.44445 22C1.77222 22 1.19656 21.7604 0.717446 21.2813C0.238335 20.8022 -0.00081274 20.227 2.07508e-06 19.5556V2.44445C2.07508e-06 1.77222 0.239558 1.19656 0.718669 0.717446C1.19778 0.238335 1.77304 -0.00081274 2.44445 2.07508e-06H7.33333C8.00556 2.07508e-06 8.58122 0.239558 9.06033 0.718669C9.53944 1.19778 9.77859 1.77304 9.77778 2.44445V19.5556C9.77778 20.2278 9.53822 20.8034 9.05911 21.2826C8.58 21.7617 8.00474 22.0008 7.33333 22H2.44445ZM14.6667 8.55556C13.9944 8.55556 13.4188 8.316 12.9397 7.83689C12.4606 7.35778 12.2214 6.78252 12.2222 6.11111V2.44445C12.2222 1.77222 12.4618 1.19656 12.9409 0.717446C13.42 0.238335 13.9953 -0.00081274 14.6667 2.07508e-06H19.5556C20.2278 2.07508e-06 20.8034 0.239558 21.2826 0.718669C21.7617 1.19778 22.0008 1.77304 22 2.44445V6.11111C22 6.78333 21.7604 7.359 21.2813 7.83811C20.8022 8.31722 20.227 8.55637 19.5556 8.55556H14.6667ZM14.6667 22C13.9944 22 13.4188 21.7604 12.9397 21.2813C12.4606 20.8022 12.2214 20.227 12.2222 19.5556V13.4444C12.2222 12.7722 12.4618 12.1966 12.9409 11.7174C13.42 11.2383 13.9953 10.9992 14.6667 11H19.5556C20.2278 11 20.8034 11.2396 21.2826 11.7187C21.7617 12.1978 22.0008 12.773 22 13.4444V19.5556C22 20.2278 21.7604 20.8034 21.2813 21.2826C20.8022 21.7617 20.227 22.0008 19.5556 22H14.6667Z" fill="#0C2160"/>
</svg>
