<svg width="23" height="22" viewBox="0 0 23 22" fill="none" xmlns="http://www.w3.org/2000/svg">
<path d="M11.1992 0C5.13388 0 0.199219 4.93466 0.199219 11C0.199219 17.0653 5.13388 22 11.1992 22C17.2646 22 22.1992 17.0653 22.1992 11C22.1992 4.93466 17.2646 0 11.1992 0ZM8.54335 6.17798C9.2134 5.46774 10.1563 5.07692 11.1992 5.07692C12.2421 5.07692 13.1766 5.47038 13.8493 6.18433C14.5309 6.90779 14.8625 7.87981 14.7843 8.92481C14.6277 11 13.02 12.6923 11.1992 12.6923C9.3784 12.6923 7.76754 11 7.61417 8.92428C7.53643 7.87082 7.86749 6.89563 8.54335 6.17798ZM11.1992 20.3077C9.95668 20.3085 8.72662 20.0598 7.58199 19.5763C6.43737 19.0929 5.40148 18.3845 4.53576 17.4932C5.03158 16.7861 5.66334 16.1849 6.39412 15.7247C7.74215 14.8606 9.44821 14.3846 11.1992 14.3846C12.9502 14.3846 14.6563 14.8606 16.0027 15.7247C16.7341 16.1847 17.3664 16.7859 17.8627 17.4932C16.997 18.3846 15.9612 19.093 14.8165 19.5765C13.6719 20.06 12.4418 20.3086 11.1992 20.3077Z" fill="#1C34E9"/>
</svg>
