<svg width="25" height="29" viewBox="0 0 25 29" fill="none" xmlns="http://www.w3.org/2000/svg">
<path d="M9.72222 2.76191C9.3287 2.76191 8.99861 2.62934 8.73195 2.36419C8.46528 2.09905 8.33241 1.77131 8.33333 1.38096C8.33333 0.989687 8.46667 0.661481 8.73333 0.396338C9 0.131195 9.32963 -0.000915856 9.72222 4.77838e-06H15.2778C15.6713 4.77838e-06 16.0014 0.132576 16.2681 0.397719C16.5347 0.662862 16.6676 0.990608 16.6667 1.38096C16.6667 1.77223 16.5333 2.10043 16.2667 2.36558C16 2.63072 15.6704 2.76283 15.2778 2.76191H9.72222ZM12.5 17.9524C12.8935 17.9524 13.2236 17.8198 13.4903 17.5547C13.7569 17.2895 13.8898 16.9618 13.8889 16.5714V11.0476C13.8889 10.6564 13.7556 10.3281 13.4889 10.063C13.2222 9.79786 12.8926 9.66575 12.5 9.66667C12.1065 9.66667 11.7764 9.79924 11.5097 10.0644C11.2431 10.3295 11.1102 10.6573 11.1111 11.0476V16.5714C11.1111 16.9627 11.2444 17.2909 11.5111 17.556C11.7778 17.8212 12.1074 17.9533 12.5 17.9524ZM12.5 29C10.787 29 9.17222 28.6718 7.65556 28.0154C6.13889 27.359 4.81389 26.4673 3.68056 25.3405C2.5463 24.2127 1.64908 22.8948 0.988891 21.3868C0.328705 19.8788 -0.000923981 18.2737 1.94522e-06 16.5714C1.94522e-06 14.8683 0.330095 13.2627 0.99028 11.7547C1.65046 10.2467 2.54722 8.92924 3.68056 7.80238C4.81482 6.67461 6.14028 5.78251 7.65694 5.1261C9.17361 4.46969 10.788 4.14194 12.5 4.14286C13.9352 4.14286 15.3125 4.37302 16.6319 4.83334C17.9514 5.29365 19.1898 5.96111 20.3472 6.83572L21.3542 5.83453C21.6088 5.58135 21.9213 5.45476 22.2917 5.45476C22.662 5.45476 22.9861 5.59286 23.2639 5.86905C23.5185 6.12223 23.6458 6.44445 23.6458 6.83572C23.6458 7.22699 23.5185 7.54921 23.2639 7.80238L22.2917 8.76905C23.1713 9.91984 23.8426 11.1512 24.3056 12.4631C24.7685 13.775 25 15.1444 25 16.5714C25 18.2746 24.6699 19.8802 24.0097 21.3882C23.3495 22.8962 22.4528 24.2136 21.3194 25.3405C20.1852 26.4683 18.8597 27.3603 17.3431 28.0168C15.8264 28.6732 14.212 29.0009 12.5 29ZM12.5 26.2381C15.1852 26.2381 17.4769 25.2944 19.375 23.4071C21.2731 21.5198 22.2222 19.2413 22.2222 16.5714C22.2222 13.9016 21.2731 11.623 19.375 9.73572C17.4769 7.84842 15.1852 6.90476 12.5 6.90476C9.81481 6.90476 7.52315 7.84842 5.625 9.73572C3.72685 11.623 2.77778 13.9016 2.77778 16.5714C2.77778 19.2413 3.72685 21.5198 5.625 23.4071C7.52315 25.2944 9.81481 26.2381 12.5 26.2381Z" fill="#F79964"/>
</svg>
