<svg width="24" height="23" viewBox="0 0 24 23" fill="none" xmlns="http://www.w3.org/2000/svg">
<path d="M0.628711 4.63768H5.10933C5.25397 5.42454 5.64967 6.13325 6.22878 6.64267C6.80789 7.1521 7.53447 7.43061 8.28432 7.43061C9.03417 7.43061 9.76074 7.1521 10.3399 6.64267C10.919 6.13325 11.3147 5.42454 11.4593 4.63768H23.3713C23.538 4.63768 23.6979 4.56684 23.8159 4.44074C23.9338 4.31465 24 4.14363 24 3.96531C24 3.78698 23.9338 3.61596 23.8159 3.48987C23.6979 3.36377 23.538 3.29293 23.3713 3.29293H11.4593C11.3147 2.50607 10.919 1.79736 10.3399 1.28794C9.76074 0.778514 9.03417 0.5 8.28432 0.5C7.53447 0.5 6.80789 0.778514 6.22878 1.28794C5.64967 1.79736 5.25397 2.50607 5.10933 3.29293H0.628711C0.461967 3.29293 0.302051 3.36377 0.184145 3.48987C0.066239 3.61596 0 3.78698 0 3.96531C0 4.14363 0.066239 4.31465 0.184145 4.44074C0.302051 4.56684 0.461967 4.63768 0.628711 4.63768ZM8.28222 1.84958C8.6735 1.84958 9.05599 1.97366 9.38133 2.20614C9.70667 2.43862 9.96024 2.76905 10.11 3.15565C10.2597 3.54225 10.2989 3.96765 10.2226 4.37806C10.1462 4.78848 9.9578 5.16546 9.68112 5.46135C9.40445 5.75724 9.05194 5.95875 8.66818 6.04038C8.28442 6.12202 7.88664 6.08012 7.52514 5.91998C7.16365 5.75985 6.85467 5.48867 6.63729 5.14074C6.4199 4.79281 6.30388 4.38376 6.30388 3.96531C6.30498 3.40454 6.51377 2.86709 6.88454 2.47057C7.25531 2.07405 7.75787 1.85076 8.28222 1.84958Z" fill="white"/>
<path d="M23.3713 10.7213H18.8236C18.6769 9.93693 18.2806 9.23112 17.7021 8.72398C17.1236 8.21684 16.3987 7.9397 15.6507 7.9397C14.9027 7.9397 14.1778 8.21684 13.5993 8.72398C13.0209 9.23112 12.6246 9.93693 12.4778 10.7213H0.628711C0.461967 10.7213 0.302051 10.7922 0.184145 10.9183C0.066239 11.0444 0 11.2154 0 11.3937C0 11.572 0.066239 11.743 0.184145 11.8691C0.302051 11.9952 0.461967 12.0661 0.628711 12.0661H12.4778C12.6246 12.8505 13.0209 13.5563 13.5993 14.0634C14.1778 14.5706 14.9027 14.8477 15.6507 14.8477C16.3987 14.8477 17.1236 14.5706 17.7021 14.0634C18.2806 13.5563 18.6769 12.8505 18.8236 12.0661H23.3713C23.538 12.0661 23.6979 11.9952 23.8159 11.8691C23.9338 11.743 24 11.572 24 11.3937C24 11.2154 23.9338 11.0444 23.8159 10.9183C23.6979 10.7922 23.538 10.7213 23.3713 10.7213ZM15.6507 13.5094C15.2594 13.5094 14.8769 13.3853 14.5516 13.1529C14.2263 12.9204 13.9727 12.59 13.823 12.2034C13.6732 11.8168 13.6341 11.3914 13.7104 10.9809C13.7867 10.5705 13.9751 10.1935 14.2518 9.89766C14.5285 9.60177 14.881 9.40026 15.2648 9.31863C15.6485 9.23699 16.0463 9.27889 16.4078 9.43902C16.7693 9.59916 17.0783 9.87034 17.2957 10.2183C17.513 10.5662 17.6291 10.9753 17.6291 11.3937C17.628 11.9545 17.4192 12.4919 17.0484 12.8884C16.6776 13.285 16.1751 13.5082 15.6507 13.5094Z" fill="white"/>
<path d="M23.3713 18.152H12.109C11.9622 17.3676 11.5659 16.6618 10.9875 16.1546C10.409 15.6475 9.68408 15.3704 8.93608 15.3704C8.18808 15.3704 7.46318 15.6475 6.88471 16.1546C6.30624 16.6618 5.90992 17.3676 5.76319 18.152H0.628711C0.461967 18.152 0.302051 18.2228 0.184145 18.3489C0.066239 18.475 0 18.646 0 18.8244C0 19.0027 0.066239 19.1737 0.184145 19.2998C0.302051 19.4259 0.461967 19.4967 0.628711 19.4967H5.76319C5.90992 20.2811 6.30624 20.9869 6.88471 21.4941C7.46318 22.0012 8.18808 22.2784 8.93608 22.2784C9.68408 22.2784 10.409 22.0012 10.9875 21.4941C11.5659 20.9869 11.9622 20.2811 12.109 19.4967H23.3713C23.538 19.4967 23.6979 19.4259 23.8159 19.2998C23.9338 19.1737 24 19.0027 24 18.8244C24 18.646 23.9338 18.475 23.8159 18.3489C23.6979 18.2228 23.538 18.152 23.3713 18.152ZM8.93608 20.9401C8.5448 20.9401 8.16231 20.816 7.83697 20.5835C7.51163 20.351 7.25807 20.0206 7.10833 19.634C6.95859 19.2474 6.91941 18.822 6.99575 18.4116C7.07208 18.0012 7.2605 17.6242 7.53718 17.3283C7.81386 17.0324 8.16636 16.8309 8.55013 16.7493C8.93389 16.6677 9.33167 16.7096 9.69316 16.8697C10.0547 17.0298 10.3636 17.301 10.581 17.6489C10.7984 17.9969 10.9144 18.4059 10.9144 18.8244C10.9144 19.3855 10.706 19.9236 10.335 20.3204C9.96397 20.7172 9.46077 20.9401 8.93608 20.9401Z" fill="white"/>
</svg>
